<!--
  #%L
  Fishola :: Backend
  %%
  Copyright (C) 2019 - 2020 INRAE - UMR CARRTEL
  %%
  This program is free software: you can redistribute it and/or modify
  it under the terms of the GNU Affero General Public License as published by
  the Free Software Foundation, either version 3 of the License, or
  (at your option) any later version.
  
  This program is distributed in the hope that it will be useful,
  but WITHOUT ANY WARRANTY; without even the implied warranty of
  MERCHANTABILITY or FITNESS FOR A PARTICULAR PURPOSE.  See the
  GNU General Public License for more details.
  
  You should have received a copy of the GNU Affero General Public License
  along with this program.  If not, see <http://www.gnu.org/licenses/>.
  #L%
  -->
<svg width="152" height="80" viewBox="0 0 152 80" fill="none" xmlns="http://www.w3.org/2000/svg">
<path fill-rule="evenodd" clip-rule="evenodd" d="M42.3493 71.4184V69.3568H33.7615V58.7295H44.9598V56.697H31.7V79.628H33.7615V71.4184H42.3493Z" fill="#2D3436"/>
<path fill-rule="evenodd" clip-rule="evenodd" d="M50.5589 56.6678H48.4973V79.628H50.5589V56.6678Z" fill="#2D3436"/>
<path fill-rule="evenodd" clip-rule="evenodd" d="M59.8883 68.2612L59.7874 68.2376C58.4534 67.9261 56.9792 67.5818 55.6719 66.2372C54.4218 64.9494 53.707 63.3822 53.7769 61.7831L53.7769 61.7815C53.8464 60.3612 54.4579 59.0537 55.5865 57.9861L55.5921 57.9808L55.5979 57.9758C56.9957 56.7831 58.5284 56.3115 60.1847 56.3115C61.9115 56.3115 63.5394 56.91 64.7752 58.0081C65.5809 58.7143 66.1477 59.6186 66.4543 60.5538L66.5645 60.8898L64.516 61.2058L64.4283 60.9822C64.2184 60.4472 63.8955 59.9509 63.4271 59.5427L63.426 59.5418C61.6615 57.9893 58.8069 57.9562 57.0458 59.4468C56.2691 60.164 55.8716 60.9841 55.8453 61.8705L55.8449 61.8797C55.7862 62.8514 56.2405 63.8566 57.1633 64.8005L57.1649 64.8021C58.0238 65.6937 59.1938 65.989 60.3557 66.2744L60.3573 66.2748C61.6003 66.5582 63.0507 66.889 64.5365 68.0117C66.0734 69.1143 67.0082 70.8845 67.1375 72.7776L67.1379 72.7842C67.229 74.7511 66.4995 76.6516 65.101 78.0427C63.8448 79.2988 62.034 79.9107 60.2792 79.9115C58.5621 79.9115 56.9676 79.3512 55.6978 78.3171L55.6926 78.3128C54.5566 77.3446 53.8195 76.0362 53.6196 74.6291L53.578 74.3364L55.6062 74.0173L55.6465 74.3221C55.7662 75.2264 56.2599 76.0777 57.0396 76.7419C58.8961 78.2679 61.8077 78.2398 63.6077 76.6586C64.6301 75.6327 65.1583 74.2859 65.07 72.9192L65.0696 72.9135C65.0083 71.5718 64.3845 70.4201 63.317 69.645L63.3156 69.644C62.2916 68.8914 61.1008 68.5664 59.8883 68.2612Z" fill="#2D3436"/>
<path fill-rule="evenodd" clip-rule="evenodd" d="M86.6623 56.6678H84.6298V66.6644C84.3644 66.7838 84.0117 66.9317 83.5385 67.0799L83.5362 67.0807C82.4804 67.4208 80.7008 67.8297 78.1891 67.8297C74.734 67.8297 72.6311 67.0679 71.7774 66.6693V56.6678H69.7158V79.628H71.7774V68.8832C73.0746 69.3458 75.1824 69.8622 78.1891 69.8622C81.1961 69.8622 83.3276 69.3456 84.6298 68.8829V79.628H86.6623V56.6678Z" fill="#2D3436"/>
<path d="M103.578 56.0542H103.152C100.213 56.1446 97.4564 57.347 95.3795 59.4323C93.2013 61.587 92 64.4715 92 67.5368C92 70.623 93.2013 73.5145 95.3795 75.6692C97.4564 77.7544 100.213 78.9569 103.166 79.0542H103.586H103.593C106.495 78.9569 109.252 77.7614 111.365 75.6692C113.521 73.5006 114.716 70.6091 114.716 67.5368C114.716 64.4785 113.529 61.6009 111.365 59.4323C109.252 57.347 106.495 56.1446 103.578 56.0542ZM112.422 67.5368C112.422 72.5553 108.347 76.7326 103.369 76.8508C98.3826 76.7326 94.3229 72.5553 94.3229 67.5368C94.3229 62.5392 98.3754 58.3757 103.354 58.2576C108.355 58.3757 112.422 62.5392 112.422 67.5368Z" fill="white"/>
<path d="M119.969 56.4783H117.639V78.6859H130.346V76.4895H119.969V56.4783Z" fill="white"/>
<path d="M142.656 56.5129H141.078L132.134 78.7205H134.616L136.244 74.6405C137.438 75.0436 139.312 75.4676 141.947 75.4676C144.566 75.4676 146.433 75.0645 147.62 74.6683L149.284 78.7205H151.767L142.656 56.5129ZM146.759 72.6178C145.869 72.9097 144.284 73.2642 141.939 73.2642C139.718 73.2642 138.205 72.9306 137.293 72.6387C137.221 72.6248 137.156 72.6039 137.091 72.583L141.874 60.6903L146.759 72.6178Z" fill="white"/>
<path d="M71.0032 31.3704C70.8657 31.1606 67.6165 26.095 61.6391 20.9353C58.5998 18.3157 54.9236 16 50.806 14.3356C50.1909 6.33198 43.4899 0 35.3343 0C26.7662 0 19.7974 6.96879 19.7974 15.5369V16.521C17.4672 17.8453 15.1298 19.4735 12.8069 21.4419L12.7997 21.4491C8.97878 24.7635 6.57625 28.1212 5.38222 30.01C4.46318 28.3745 3.03758 25.6318 2.40076 23.3161C2.35734 23.1714 2.32116 23.0412 2.29221 22.9037C2.15472 22.2813 1.53961 21.8833 0.910034 22.0208C0.287691 22.1583 -0.110319 22.7734 0.0271752 23.403C0.0633579 23.5839 0.114014 23.7576 0.16467 23.9385C1.01135 27.0357 3.05205 30.654 3.89149 32.0796C3.05205 33.5052 1.02582 37.1307 0.179143 40.2352C0.128487 40.4161 0.0850675 40.597 0.0416483 40.7779C-0.0886095 41.4003 0.3094 42.0154 0.931743 42.1529C1.01135 42.1673 1.09095 42.1818 1.17779 42.1818C1.71329 42.1818 2.1909 41.8128 2.30669 41.2628C2.33563 41.1253 2.37182 40.9878 2.408 40.8503C3.04481 38.5201 4.47765 35.7485 5.39669 34.1131C7.24201 36.9136 11.9385 43.0936 19.7902 47.3704V64.7164C17.1705 65.1217 15.1516 67.3867 15.1516 70.1221C15.1516 73.1398 17.6047 75.5929 20.6224 75.5929C23.64 75.5929 26.0932 73.1398 26.0932 70.1221C26.0932 67.6183 24.3999 65.5052 22.0986 64.8539V48.5066C26.455 50.5038 31.6436 51.8716 37.7296 51.8716C37.744 51.8716 37.7658 51.8716 37.7802 51.8716C58.4478 51.8426 70.4822 33.4039 70.9887 32.6151C71.242 32.2388 71.242 31.754 71.0032 31.3704ZM6.85124 32.0579C7.65449 30.6829 10.0787 26.8838 14.3121 23.2004C16.1357 21.659 17.9666 20.3419 19.7974 19.2275V44.7001C12.1773 40.1845 7.9729 33.9104 6.85124 32.0579ZM23.792 70.1004C23.792 71.8444 22.3736 73.2555 20.6369 73.2555C18.8928 73.2555 17.4817 71.8372 17.4817 70.1004C17.4817 68.3636 18.9001 66.9453 20.6369 66.9453C22.3736 66.9453 23.792 68.3636 23.792 70.1004ZM35.3343 2.31569C41.9123 2.31569 47.3687 7.14971 48.3673 13.4527C40.5591 10.9055 31.4121 10.7969 22.1276 15.2981C22.2506 8.1194 28.1194 2.31569 35.3343 2.31569ZM42.759 49.1506C36.7961 42.0877 35.8191 31.7684 38.6558 23.1714C39.365 21.0294 40.3347 18.9887 41.6373 17.1506C42.361 16.123 40.6676 15.1461 39.9512 16.1664C37.3677 19.8281 36 24.2786 35.4428 28.6857C34.8132 33.6427 35.3053 38.853 37.1579 43.5133C38.0046 45.6409 39.1118 47.6237 40.4795 49.4328C39.5966 49.5124 38.7065 49.5559 37.7947 49.5631C37.7802 49.5631 37.7658 49.5631 37.7513 49.5631C31.5857 49.5631 26.3971 48.0724 22.1203 45.9521V17.9104C31.5061 13.0185 40.7834 13.2212 48.5554 15.9711V24.9154L46.0661 22.4333C45.6102 21.9774 44.8793 21.9846 44.4306 22.4333C43.9819 22.882 43.9819 23.6201 44.4306 24.0687L48.8883 28.5192C48.91 28.5409 48.9317 28.5482 48.9535 28.5699C48.9824 28.6061 49.0113 28.6495 49.0475 28.6857C49.2719 28.91 49.5686 29.0258 49.8653 29.0258C50.162 29.0258 50.4587 28.91 50.683 28.6857L55.3795 23.9891C55.8282 23.5405 55.8282 22.8024 55.3795 22.3537C54.9308 21.905 54.1927 21.905 53.744 22.3537L50.8567 25.2338V16.8829C54.3519 18.4025 57.4853 20.4288 60.1122 22.6938C64.6278 26.5871 67.5658 30.502 68.6079 31.9855C66.5672 34.8584 57.2465 46.7915 42.759 49.1506Z" fill="white"/>
</svg>
