<?xml version="1.0" encoding="utf-8"?>
<!-- Generator: Adobe Illustrator 24.0.1, SVG Export Plug-In . SVG Version: 6.00 Build 0)  -->
<svg version="1.1" id="Calque_1" xmlns="http://www.w3.org/2000/svg" xmlns:xlink="http://www.w3.org/1999/xlink" x="0px" y="0px"
	 viewBox="0 0 214.58 43.37" style="enable-background:new 0 0 214.58 43.37;" xml:space="preserve">
<style type="text/css">
	.st0{fill:#1A171B;}
	.st1{fill:#FFFFFF;}
	.st2{fill:#1D9AC4;}
</style>
<g>
	<g>
		<path class="st0" d="M53.66,8.36v15.49h11.85v2.02H53.66V37.2h-2.02V6.39h17.47v1.98H53.66z"/>
		<path class="st0" d="M74.82,6.34h2.02V37.2h-2.02V6.34z"/>
		<path class="st0" d="M97.03,35.14l-0.26,0.26c-1.58,1.36-3.64,2.15-5.88,2.2h-0.22c-2.28,0-4.39-0.75-6.06-2.11
			c-1.49-1.27-2.46-2.99-2.72-4.83l1.98-0.31c0.18,1.36,0.92,2.63,2.06,3.6c2.72,2.24,6.98,2.2,9.61-0.13
			c1.49-1.49,2.28-3.47,2.15-5.49c-0.09-1.97-1.01-3.69-2.59-4.83c-1.67-1.23-3.29-1.58-4.87-1.98c-1.89-0.44-3.86-0.88-5.62-2.68
			c-1.67-1.71-2.59-3.77-2.5-5.84c0.09-1.84,0.88-3.56,2.37-4.96c1.84-1.58,3.86-2.2,6.06-2.2c2.28,0,4.43,0.79,6.06,2.24
			c1.05,0.92,1.8,2.11,2.2,3.34l-2.02,0.31c-0.31-0.79-0.79-1.54-1.49-2.15c-2.59-2.28-6.76-2.33-9.35-0.13
			c-1.14,1.05-1.76,2.28-1.8,3.64c-0.09,1.49,0.62,2.99,1.93,4.35c1.32,1.36,2.85,1.71,4.61,2.15c1.71,0.39,3.64,0.83,5.62,2.33
			c2.02,1.45,3.25,3.77,3.42,6.28C99.84,30.79,98.87,33.29,97.03,35.14z"/>
		<path class="st0" d="M124.68,6.34h1.98V37.2h-1.98V22.19c-1.67,0.66-4.74,1.54-9.3,1.54s-7.59-0.88-9.26-1.54V37.2h-2.02V6.34
			h2.02v13.65c1.05,0.53,4.08,1.76,9.26,1.76c3.51,0,6.01-0.57,7.51-1.05c0.83-0.26,1.4-0.53,1.8-0.7V6.34z"/>
	</g>
	<g>
		<path class="st1" d="M147.7,5.03l-0.59,0c-4.09,0.14-7.92,1.88-10.8,4.89c-3.03,3.13-4.7,7.29-4.7,11.73
			c0,4.47,1.67,8.65,4.7,11.77c2.88,3.02,6.72,4.76,10.83,4.9h0.58l0.01,0c4.04-0.13,7.88-1.87,10.81-4.9
			c3-3.14,4.66-7.32,4.66-11.77c0-4.42-1.65-8.59-4.66-11.73C155.6,6.91,151.76,5.17,147.7,5.03z M159.91,21.66
			c0,7.22-5.62,13.23-12.5,13.4c-6.89-0.17-12.49-6.17-12.49-13.4c0-7.19,5.59-13.18,12.47-13.35
			C154.3,8.48,159.91,14.47,159.91,21.66z"/>
		<polygon class="st1" points="170.47,5.65 167.15,5.65 167.15,37.81 184.87,37.81 184.87,34.53 170.47,34.53 		"/>
		<path class="st1" d="M201.91,5.69h-2.25l-12.44,32.16h3.55l2.25-5.87c1.66,0.58,4.25,1.18,7.88,1.18c3.61,0,6.18-0.58,7.83-1.14
			l2.3,5.84h3.55L201.91,5.69z M207.51,28.96c-1.24,0.41-3.41,0.92-6.61,0.92c-3.07,0-5.16-0.48-6.43-0.9
			c-0.08-0.02-0.16-0.04-0.23-0.07l6.58-17L207.51,28.96z"/>
	</g>
	<g>
		<circle class="st1" cx="21.68" cy="21.68" r="21.68"/>
		<path class="st2" d="M39.86,18.3c-0.07-0.1-1.66-2.59-4.59-5.11c-1.45-1.25-3.2-2.36-5.15-3.17c-0.39-3.94-3.72-7.03-7.76-7.03
			c-4.3,0-7.8,3.5-7.8,7.8v0.31c-1.09,0.64-2.19,1.4-3.28,2.33c0,0,0,0-0.01,0.01c-1.63,1.41-2.72,2.84-3.37,3.8
			c-0.42-0.78-0.94-1.84-1.19-2.76c-0.02-0.06-0.03-0.12-0.05-0.18c-0.1-0.46-0.56-0.75-1.01-0.65C5.19,13.74,4.9,14.2,5,14.65
			c0.02,0.09,0.04,0.18,0.07,0.28c0.39,1.43,1.29,3.08,1.75,3.86c-0.45,0.78-1.35,2.43-1.74,3.87c-0.03,0.09-0.05,0.19-0.07,0.28
			c-0.1,0.46,0.19,0.91,0.65,1.01c0.06,0.01,0.12,0.02,0.18,0.02c0.39,0,0.74-0.27,0.83-0.67c0.01-0.06,0.03-0.12,0.05-0.19
			c0.25-0.92,0.77-1.98,1.19-2.77c1.03,1.5,3.19,4.14,6.65,6.05v7.95c-1.28,0.31-2.24,1.47-2.24,2.85c0,1.62,1.32,2.94,2.94,2.94
			s2.94-1.32,2.94-2.94c0-1.27-0.81-2.34-1.93-2.75v-7.22c2.05,0.86,4.46,1.44,7.27,1.44c0.01,0,0.02,0,0.02,0
			c10.15-0.01,16.06-9.06,16.31-9.45C40.04,18.93,40.04,18.58,39.86,18.3z M8.92,18.79c0.44-0.74,1.57-2.42,3.46-4.06
			c0.72-0.61,1.45-1.13,2.18-1.6v11.29C11.35,22.4,9.53,19.78,8.92,18.79z M16.49,37.19c0,0.68-0.56,1.24-1.24,1.24
			s-1.24-0.56-1.24-1.24s0.56-1.24,1.24-1.24S16.49,36.51,16.49,37.19z M22.36,4.69c2.87,0,5.28,2,5.93,4.67
			c-3.61-1.07-7.77-1.08-12,0.85C16.58,7.11,19.19,4.69,22.36,4.69z M26.22,26.7c-3.11-3.77-3.33-9.58-1.11-13.84
			c0.54-1.03-1.02-1.94-1.55-0.91c-2.41,4.62-2.31,10.63,0.6,14.97c-0.21,0.01-0.41,0.03-0.62,0.03c-0.01,0-0.01,0-0.02,0
			c-2.86,0-5.28-0.66-7.27-1.61V12.14c4.33-2.2,8.6-2.15,12.21-0.92v3.41l-0.71-0.71c-0.33-0.33-0.87-0.33-1.2,0s-0.33,0.87,0,1.2
			l2.16,2.15c0.01,0.01,0.03,0.02,0.05,0.04c0.01,0.01,0.02,0.03,0.03,0.04c0.17,0.17,0.38,0.25,0.6,0.25s0.43-0.08,0.6-0.25
			l2.27-2.27c0.33-0.33,0.33-0.87,0-1.2c-0.33-0.33-0.87-0.33-1.2,0l-0.9,0.9V11.9c1.5,0.7,2.85,1.58,4,2.57
			c2.01,1.73,3.36,3.47,3.94,4.28C36.95,20.32,32.69,25.51,26.22,26.7z"/>
	</g>
</g>
</svg>
