<?xml version="1.0" encoding="utf-8"?>
<!-- Generator: Adobe Illustrator 24.0.1, SVG Export Plug-In . SVG Version: 6.00 Build 0)  -->
<svg version="1.1" id="Calque_1" xmlns="http://www.w3.org/2000/svg" xmlns:xlink="http://www.w3.org/1999/xlink" x="0px" y="0px"
	 viewBox="0 0 204.09 110.55" style="enable-background:new 0 0 204.09 110.55;" xml:space="preserve">
<style type="text/css">
	.st0{fill:#1A171B;}
	.st1{fill:#FFFFFF;}
</style>
<g>
	<g>
		<path class="st0" d="M43.59,80.73v15.44H55.4v2.01H43.59v11.29h-2.01V78.76h17.41v1.97H43.59z"/>
		<path class="st0" d="M64.68,78.72h2.01v30.75h-2.01V78.72z"/>
		<path class="st0" d="M86.81,107.41l-0.26,0.26c-1.57,1.36-3.63,2.14-5.86,2.19h-0.22c-2.27,0-4.37-0.74-6.04-2.1
			c-1.49-1.27-2.45-2.98-2.71-4.81l1.97-0.31c0.18,1.36,0.92,2.62,2.06,3.59c2.71,2.23,6.95,2.19,9.58-0.13
			c1.49-1.49,2.27-3.46,2.14-5.47c-0.09-1.97-1.01-3.67-2.58-4.81c-1.66-1.22-3.28-1.57-4.86-1.97c-1.88-0.44-3.85-0.87-5.6-2.67
			c-1.66-1.71-2.58-3.76-2.49-5.82c0.09-1.84,0.88-3.54,2.36-4.94c1.84-1.57,3.85-2.19,6.04-2.19c2.28,0,4.42,0.79,6.04,2.23
			c1.05,0.92,1.79,2.1,2.19,3.32l-2.01,0.31c-0.31-0.79-0.79-1.53-1.49-2.14c-2.58-2.27-6.74-2.32-9.32-0.13
			c-1.14,1.05-1.75,2.28-1.79,3.63c-0.09,1.49,0.61,2.98,1.93,4.33c1.31,1.36,2.84,1.71,4.59,2.14c1.71,0.39,3.63,0.83,5.6,2.32
			c2.01,1.44,3.24,3.76,3.41,6.25C89.61,103.08,88.65,105.58,86.81,107.41z"/>
		<path class="st0" d="M114.37,78.72h1.97v30.75h-1.97V94.51c-1.66,0.66-4.72,1.53-9.27,1.53s-7.57-0.87-9.23-1.53v14.96h-2.01
			V78.72h2.01v13.6c1.05,0.53,4.07,1.75,9.23,1.75c3.5,0,5.99-0.57,7.48-1.05c0.83-0.26,1.4-0.52,1.79-0.7V78.72z"/>
	</g>
	<g>
		<path class="st1" d="M137.59,77.46l-0.59,0c-4.06,0.13-7.87,1.86-10.74,4.86c-3.01,3.1-4.67,7.25-4.67,11.66
			c0,4.44,1.66,8.6,4.67,11.7c2.87,3,6.68,4.73,10.76,4.87h0.58l0.01,0c4.01-0.14,7.82-1.86,10.74-4.87
			c2.98-3.12,4.63-7.28,4.63-11.7c0-4.4-1.64-8.54-4.63-11.66C145.43,79.32,141.62,77.59,137.59,77.46z M149.81,93.98
			c0,7.22-5.63,13.23-12.51,13.4c-6.89-0.17-12.5-6.18-12.5-13.4c0-7.19,5.6-13.18,12.48-13.35
			C144.19,80.8,149.81,86.79,149.81,93.98z"/>
		<polygon class="st1" points="160.24,78.07 157.02,78.07 157.02,110.02 174.58,110.02 174.58,106.86 160.24,106.86 		"/>
		<path class="st1" d="M191.59,78.12h-2.18l-12.36,31.95h3.43l2.25-5.87c1.65,0.58,4.24,1.19,7.88,1.19c3.62,0,6.2-0.58,7.84-1.15
			l2.3,5.83h3.43L191.59,78.12z M197.26,101.29c-1.23,0.42-3.42,0.93-6.66,0.93c-3.07,0-5.16-0.48-6.42-0.9
			c-0.1-0.02-0.19-0.05-0.28-0.08l6.61-17.11L197.26,101.29z"/>
	</g>
	<path class="st1" d="M98.11,43.35c-0.19-0.29-4.68-7.29-12.94-14.42c-4.2-3.62-9.28-6.82-14.97-9.12C69.35,8.75,60.09,0,48.82,0
		C36.98,0,27.35,9.63,27.35,21.47v1.36c-3.22,1.83-6.45,4.08-9.66,6.8c0,0-0.01,0.01-0.01,0.01c-5.28,4.58-8.6,9.22-10.25,11.83
		c-1.27-2.26-3.24-6.05-4.12-9.25c-0.06-0.2-0.11-0.38-0.15-0.57c-0.19-0.86-1.04-1.41-1.91-1.22c-0.86,0.19-1.41,1.04-1.22,1.91
		c0.05,0.25,0.12,0.49,0.19,0.74c1.17,4.28,3.99,9.28,5.15,11.25c-1.16,1.97-3.96,6.98-5.13,11.27c-0.07,0.25-0.13,0.5-0.19,0.75
		c-0.18,0.86,0.37,1.71,1.23,1.9c0.11,0.02,0.22,0.04,0.34,0.04c0.74,0,1.4-0.51,1.56-1.27c0.04-0.19,0.09-0.38,0.14-0.57
		c0.88-3.22,2.86-7.05,4.13-9.31c2.55,3.87,9.04,12.41,19.89,18.32v23.97c-3.62,0.56-6.41,3.69-6.41,7.47
		c0,4.17,3.39,7.56,7.56,7.56c4.17,0,7.56-3.39,7.56-7.56c0-3.46-2.34-6.38-5.52-7.28V67.03c6.02,2.76,13.19,4.65,21.6,4.65
		c0.02,0,0.05,0,0.07,0c28.56-0.04,45.19-25.52,45.89-26.61C98.44,44.55,98.44,43.88,98.11,43.35z M9.46,44.3
		c1.11-1.9,4.46-7.15,10.31-12.24c2.52-2.13,5.05-3.95,7.58-5.49v35.2C16.82,55.53,11.01,46.86,9.46,44.3z M32.87,96.87
		c0,2.41-1.96,4.36-4.36,4.36c-2.41,0-4.36-1.96-4.36-4.36s1.96-4.36,4.36-4.36C30.91,92.51,32.87,94.47,32.87,96.87z M48.82,3.2
		c9.09,0,16.63,6.68,18.01,15.39c-10.79-3.52-23.43-3.67-36.26,2.55C30.74,11.22,38.85,3.2,48.82,3.2z M59.08,67.92
		c-8.24-9.76-9.59-24.02-5.67-35.9c0.98-2.96,2.32-5.78,4.12-8.32c1-1.42-1.34-2.77-2.33-1.36c-3.57,5.06-5.46,11.21-6.23,17.3
		c-0.87,6.85-0.19,14.05,2.37,20.49c1.17,2.94,2.7,5.68,4.59,8.18c-1.22,0.11-2.45,0.17-3.71,0.18c-0.02,0-0.04,0-0.06,0
		c-8.52,0-15.69-2.06-21.6-4.99V24.75c12.97-6.76,25.79-6.48,36.53-2.68v12.36L63.65,31c-0.63-0.63-1.64-0.62-2.26,0
		c-0.62,0.62-0.62,1.64,0,2.26l6.16,6.15c0.03,0.03,0.06,0.04,0.09,0.07c0.04,0.05,0.08,0.11,0.13,0.16
		c0.31,0.31,0.72,0.47,1.13,0.47s0.82-0.16,1.13-0.47l6.49-6.49c0.62-0.62,0.62-1.64,0-2.26c-0.62-0.62-1.64-0.62-2.26,0l-3.99,3.98
		V23.33c4.83,2.1,9.16,4.9,12.79,8.03c6.24,5.38,10.3,10.79,11.74,12.84C91.98,48.17,79.1,64.66,59.08,67.92z"/>
</g>
</svg>
