<?xml version="1.0" encoding="utf-8"?>
<!-- Generator: Adobe Illustrator 24.0.1, SVG Export Plug-In . SVG Version: 6.00 Build 0)  -->
<svg version="1.1" id="Calque_1" xmlns="http://www.w3.org/2000/svg" xmlns:xlink="http://www.w3.org/1999/xlink" x="0px" y="0px"
	 viewBox="0 0 80.5 80.41" style="enable-background:new 0 0 80.5 80.41;" xml:space="preserve">
<style type="text/css">
	.st0{fill:#1E9BC4;}
	.st1{fill:#FFFFFF;}
</style>
<g>
	<g>
		<circle class="st0" cx="40.2" cy="40.2" r="40.2"/>
	</g>
	<path class="st1" d="M73.67,34.25c-0.12-0.19-3.06-4.76-8.45-9.42c-2.71-2.33-5.98-4.4-9.63-5.9c-0.64-7.24-6.72-12.94-14.13-12.94
		c-7.83,0-14.19,6.37-14.19,14.19v0.73c-2.06,1.19-4.13,2.63-6.18,4.37c0,0-0.01,0.01-0.01,0.01c-3.21,2.79-5.32,5.61-6.46,7.37
		c-0.81-1.48-1.92-3.69-2.44-5.57c-0.03-0.12-0.07-0.24-0.09-0.35c-0.15-0.7-0.84-1.15-1.54-1c-0.7,0.15-1.15,0.84-1,1.54
		c0.04,0.17,0.08,0.33,0.13,0.5c0.75,2.71,2.49,5.86,3.29,7.23c-0.8,1.37-2.54,4.53-3.28,7.25c-0.04,0.17-0.09,0.33-0.12,0.5
		c-0.15,0.7,0.3,1.39,1,1.54c0.09,0.02,0.18,0.03,0.27,0.03c0.6,0,1.14-0.42,1.27-1.03c0.03-0.12,0.06-0.24,0.09-0.36
		c0.52-1.9,1.64-4.13,2.45-5.61c1.81,2.66,5.94,7.86,12.63,11.54v15.19c-2.37,0.47-4.16,2.56-4.16,5.07c0,2.85,2.32,5.17,5.17,5.17
		s5.17-2.32,5.17-5.17c0-2.29-1.51-4.22-3.58-4.89V50.16c3.86,1.72,8.43,2.88,13.76,2.88c0.01,0,0.03,0,0.04,0
		c18.68-0.02,29.55-16.68,30-17.39C73.94,35.22,73.94,34.68,73.67,34.25z M30.85,69.13c0,1.42-1.15,2.57-2.57,2.57
		s-2.57-1.15-2.57-2.57s1.15-2.57,2.57-2.57S30.85,67.71,30.85,69.13z M41.46,8.59c5.63,0,10.32,4.03,11.37,9.35
		c-6.86-2.14-14.83-2.2-22.94,1.61C30.23,13.45,35.28,8.59,41.46,8.59z M16.22,35c0.78-1.32,2.92-4.58,6.56-7.74
		c1.49-1.26,2.99-2.36,4.49-3.3v21.92C20.9,41.99,17.3,36.75,16.22,35z M48.2,50.06c-5.91-7.16-6.36-18.21-2.12-26.31
		c0.66-1.27-1.26-2.39-1.92-1.12c-4.48,8.55-4.19,19.83,1.48,27.74c-0.65,0.05-1.31,0.08-1.98,0.08c-0.01,0-0.03,0-0.04,0
		c-5.41,0-9.98-1.29-13.76-3.14V22.47c8.23-4.24,16.36-4.09,23.19-1.71v7.21l-1.78-1.78c-0.51-0.51-1.33-0.51-1.83,0
		c-0.51,0.51-0.51,1.33,0,1.83l4,4c0.03,0.03,0.06,0.04,0.09,0.07c0.02,0.03,0.03,0.06,0.05,0.08c0.25,0.25,0.59,0.38,0.92,0.38
		s0.66-0.13,0.92-0.38l4.21-4.21c0.51-0.51,0.51-1.33,0-1.84c-0.51-0.51-1.33-0.51-1.84,0l-2.14,2.14V21.8
		c2.96,1.33,5.63,3.07,7.88,5c3.89,3.35,6.46,6.72,7.47,8.14C68.98,37.72,60.79,47.95,48.2,50.06z"/>
</g>
</svg>
