<?xml version="1.0" encoding="utf-8"?>
<!-- Generator: Adobe Illustrator 24.0.1, SVG Export Plug-In . SVG Version: 6.00 Build 0)  -->
<svg version="1.1" id="Calque_1" xmlns="http://www.w3.org/2000/svg" xmlns:xlink="http://www.w3.org/1999/xlink" x="0px" y="0px"
	 viewBox="0 0 80.5 80.41" style="enable-background:new 0 0 80.5 80.41;" xml:space="preserve">
<style type="text/css">
	.st0{fill:#FFFFFF;}
	.st1{fill:#1E9BC4;}
</style>
<g>
	<g>
		<rect class="st0" width="80.41" height="80.41"/>
	</g>
	<path class="st1" d="M73.9,33.92c-0.12-0.19-3.08-4.8-8.5-9.48c-2.69-2.32-5.93-4.38-9.55-5.88c-0.73-7.31-6.9-13.03-14.39-13.03
		c-7.98,0-14.47,6.49-14.47,14.47v0.57c-2.03,1.18-4.06,2.6-6.08,4.31c-0.01,0-0.01,0.01-0.01,0.01c-3.02,2.62-5.05,5.26-6.25,7.04
		c-0.78-1.45-1.73-3.41-2.2-5.11c-0.03-0.12-0.06-0.23-0.09-0.34c-0.18-0.85-1.03-1.39-1.87-1.2c-0.85,0.18-1.39,1.02-1.2,1.87
		c0.04,0.17,0.08,0.34,0.13,0.51c0.73,2.66,2.4,5.71,3.24,7.16c-0.84,1.45-2.5,4.51-3.22,7.17c-0.05,0.17-0.09,0.34-0.13,0.52
		c-0.18,0.85,0.36,1.69,1.21,1.87c0.11,0.02,0.22,0.04,0.33,0.04c0.73,0,1.38-0.51,1.54-1.25c0.03-0.11,0.05-0.23,0.09-0.35
		c0.47-1.71,1.42-3.68,2.2-5.13c1.91,2.78,5.92,7.68,12.33,11.22v14.75c-2.38,0.58-4.16,2.72-4.16,5.28c0,3,2.44,5.45,5.45,5.45
		c3,0,5.45-2.44,5.45-5.45c0-2.35-1.5-4.33-3.58-5.1V50.47c3.79,1.6,8.27,2.66,13.48,2.66c0.01,0,0.03,0,0.05,0
		c18.83-0.02,29.78-16.8,30.24-17.52C74.23,35.1,74.23,34.44,73.9,33.92z M16.53,34.83c0.82-1.37,2.91-4.48,6.42-7.54
		c1.34-1.14,2.69-2.09,4.03-2.97v20.94C21.05,41.54,17.67,36.68,16.53,34.83z M30.57,68.95c0,1.27-1.03,2.3-2.3,2.3
		c-1.27,0-2.3-1.03-2.3-2.3s1.03-2.3,2.3-2.3C29.54,66.66,30.57,67.69,30.57,68.95z M41.46,8.69c5.32,0,9.79,3.7,10.99,8.67
		c-6.7-1.99-14.4-2-22.26,1.57C30.74,13.19,35.58,8.69,41.46,8.69z M48.62,49.51c-5.76-6.98-6.18-17.77-2.06-25.66
		c0.99-1.9-1.89-3.59-2.88-1.68c-4.47,8.56-4.28,19.7,1.12,27.76c-0.38,0.02-0.75,0.06-1.14,0.06c-0.01,0-0.03,0-0.04,0
		c-5.31,0-9.78-1.22-13.48-2.98v-24.5c8.03-4.08,15.95-3.99,22.64-1.72v6.33l-1.31-1.31c-0.62-0.62-1.61-0.61-2.23,0
		c-0.62,0.62-0.61,1.61,0,2.23l4,3.99c0.03,0.03,0.06,0.04,0.09,0.07c0.02,0.02,0.03,0.06,0.05,0.08c0.31,0.31,0.71,0.46,1.12,0.46
		c0.4,0,0.81-0.15,1.11-0.46l4.21-4.21c0.62-0.62,0.62-1.61,0-2.23c-0.62-0.62-1.61-0.62-2.23,0l-1.67,1.67v-5.35
		c2.78,1.3,5.29,2.94,7.41,4.77c3.72,3.21,6.24,6.44,7.31,7.93C68.5,37.69,60.62,47.29,48.62,49.51z"/>
</g>
</svg>
