<?xml version="1.0" encoding="UTF-8" standalone="no"?>
<!-- Generator: Adobe Illustrator 19.0.0, SVG Export Plug-In . SVG Version: 6.00 Build 0)  -->

<svg
   xmlns:dc="http://purl.org/dc/elements/1.1/"
   xmlns:cc="http://creativecommons.org/ns#"
   xmlns:rdf="http://www.w3.org/1999/02/22-rdf-syntax-ns#"
   xmlns:svg="http://www.w3.org/2000/svg"
   xmlns="http://www.w3.org/2000/svg"
   xmlns:sodipodi="http://sodipodi.sourceforge.net/DTD/sodipodi-0.dtd"
   xmlns:inkscape="http://www.inkscape.org/namespaces/inkscape"
   version="1.1"
   id="Capa_1"
   x="0px"
   y="0px"
   viewBox="0 0 512 512"
   style="enable-background:new 0 0 512 512;"
   xml:space="preserve"
   sodipodi:docname="photo_poisson.svg"
   inkscape:version="0.92.5 (2060ec1f9f, 2020-04-08)"><metadata
   id="metadata73"><rdf:RDF><cc:Work
       rdf:about=""><dc:format>image/svg+xml</dc:format><dc:type
         rdf:resource="http://purl.org/dc/dcmitype/StillImage" /><dc:title /></cc:Work></rdf:RDF></metadata><defs
   id="defs71" /><sodipodi:namedview
   pagecolor="#ffffff"
   bordercolor="#666666"
   borderopacity="1"
   objecttolerance="10"
   gridtolerance="10"
   guidetolerance="10"
   inkscape:pageopacity="0"
   inkscape:pageshadow="2"
   inkscape:window-width="1920"
   inkscape:window-height="1015"
   id="namedview69"
   showgrid="false"
   inkscape:zoom="0.20727539"
   inkscape:cx="-738.86989"
   inkscape:cy="790.88528"
   inkscape:window-x="0"
   inkscape:window-y="0"
   inkscape:window-maximized="1"
   inkscape:current-layer="g922"
   inkscape:snap-text-baseline="true" />
<g
   id="g6"
   style="fill:#dfe6e9;fill-opacity:0.63137257">
	<g
   id="g4"
   style="fill:#dfe6e9;fill-opacity:0.63137257">
		<circle
   cx="437"
   cy="196"
   r="15"
   id="circle2"
   style="fill:#dfe6e9;fill-opacity:0.63137257" />
	</g>
</g>
<g
   id="g12"
   style="fill:#dfe6e9;fill-opacity:0.63137257">
	<g
   id="g10"
   style="fill:#dfe6e9;fill-opacity:0.63137257">
		<circle
   cx="437"
   cy="436"
   r="15"
   id="circle8"
   style="fill:#dfe6e9;fill-opacity:0.63137257" />
	</g>
</g>
<g
   id="g18"
   style="fill:#dfe6e9;fill-opacity:0.63137257">
	<g
   id="g16"
   style="fill:#dfe6e9;fill-opacity:0.63137257">
		<circle
   cx="76"
   cy="196"
   r="15"
   id="circle14"
   style="fill:#dfe6e9;fill-opacity:0.63137257" />
	</g>
</g>
<g
   id="g24"
   style="fill:#dfe6e9;fill-opacity:0.63137257">
	<g
   id="g22"
   style="fill:#dfe6e9;fill-opacity:0.63137257">
		<circle
   cx="76"
   cy="436"
   r="15"
   id="circle20"
   style="fill:#dfe6e9;fill-opacity:0.63137257" />
	</g>
</g>
<g
   id="g30"
   style="fill:#dfe6e9;fill-opacity:0.63137257">
	
<g
   id="g956"
   transform="matrix(0.59745566,0,0,0.59745566,110.64532,156.47665)"
   style="fill:#dfe6e9;fill-opacity:0.63137257"><g
     id="g895"
     style="fill:#dfe6e9;fill-opacity:0.63137257">
	<g
   id="g893"
   style="fill:#dfe6e9;fill-opacity:0.63137257">
		<g
   id="g891"
   style="fill:#dfe6e9;fill-opacity:0.63137257">
			<path
   id="path883"
   d="M 510.646,261.469 C 468.003,185.134 397.9,138.456 315.733,129.806 274.538,77.776 145.277,64.595 139.698,64.052 c -3.635,-0.375 -7.292,1.208 -9.521,4.167 -2.24,2.938 -2.792,6.833 -1.458,10.281 12.673,32.896 25.656,70.313 29.092,85.621 -23.473,10.741 -43.99,22.163 -57.217,31.681 C 71.906,149.906 13.344,149.333 10.667,149.333 4.771,149.333 0,154.104 0,160 0,221.802 21.542,252.823 35.948,266.667 21.542,280.51 0,311.531 0,373.333 0,379.229 4.771,384 10.667,384 c 2.677,0 61.24,-0.573 89.927,-46.469 17.573,12.646 47.957,28.637 81.159,41.931 -7.337,11.867 -11.086,30.742 -11.086,57.871 0,5.896 4.771,10.667 10.667,10.667 3.172,0 75.708,-0.629 111.832,-43.003 91.87,-1.775 170.978,-49.891 217.48,-133.133 1.802,-3.229 1.802,-7.166 0,-10.395 z M 154.906,87.417 c 35.841,5.188 94.682,17.952 127.934,40.799 -30.66,1.198 -69.78,12.79 -105.243,27.336 -4.722,-18.75 -15.199,-48.043 -22.691,-68.135 z m 37.344,338.635 c 1.421,-29.671 8.267,-37.254 10.186,-38.806 20.786,7.296 41.846,13.094 60.969,16.004 -23.139,16.281 -54.682,21.348 -71.155,22.802 z m 8.948,-39.198 0.004,-0.029 c 0.029,0.01 0.059,0.018 0.087,0.029 -0.06,-0.008 -0.027,0.009 -0.091,0 z M 288,384 c -62.333,0 -164.25,-51.177 -183.125,-70.49 -2.021,-2.073 -4.781,-3.208 -7.625,-3.208 -0.646,0 -1.302,0.063 -1.948,0.177 -3.49,0.646 -6.438,3 -7.844,6.26 -14.396,33.385 -48.25,42.5 -65.844,44.99 3.333,-66.844 34.969,-84.708 36.594,-85.573 3.51,-1.802 5.677,-5.438 5.729,-9.385 0.052,-3.99 -2.188,-7.708 -5.719,-9.583 -1.427,-0.76 -33.25,-18.5 -36.604,-85.521 17.583,2.573 51.562,11.823 65.844,44.927 1.406,3.26 4.354,5.615 7.844,6.26 3.521,0.656 7.094,-0.49 9.573,-3.031 18.875,-19.313 120.792,-70.49 183.125,-70.49 84.219,0 157.167,42.677 201.042,117.333 C 445.167,341.323 372.219,384 288,384 Z"
   inkscape:connector-curvature="0"
   style="fill:#dfe6e9;fill-opacity:0.63137257" />
			<path
   id="path885"
   d="m 320,266.666 c 0,-49.083 19.365,-79.146 19.563,-79.448 3.229,-4.917 1.875,-11.521 -3.021,-14.771 -4.896,-3.229 -11.5,-1.906 -14.75,2.969 -0.948,1.417 -23.125,35.333 -23.125,91.25 0,55.917 22.177,89.833 23.125,91.25 2.052,3.083 5.438,4.75 8.885,4.75 2.031,0 4.083,-0.583 5.906,-1.792 4.906,-3.271 6.229,-9.885 2.958,-14.792 C 339.344,345.792 320,316.198 320,266.666 Z"
   inkscape:connector-curvature="0"
   style="fill:#dfe6e9;fill-opacity:0.63137257" />
			<path
   id="path887"
   d="m 293.875,172.448 c -4.906,-3.229 -11.49,-1.906 -14.75,2.969 -0.948,1.416 -23.125,35.333 -23.125,91.249 0,29.865 6.437,53.333 11.844,67.76 1.604,4.281 5.667,6.927 9.99,6.927 1.24,0 2.51,-0.219 3.74,-0.677 5.521,-2.063 8.313,-8.208 6.25,-13.729 -4.781,-12.781 -10.49,-33.615 -10.49,-60.281 0,-49.083 19.365,-79.146 19.563,-79.448 3.228,-4.916 1.874,-11.52 -3.022,-14.77 z"
   inkscape:connector-curvature="0"
   style="fill:#dfe6e9;fill-opacity:0.63137257" />
			<circle
   id="circle889"
   r="21.333"
   cy="234.66499"
   cx="383.99899"
   style="fill:#dfe6e9;fill-opacity:0.63137257" />
		</g>
	</g>
</g><g
     id="g897"
     style="fill:#dfe6e9;fill-opacity:0.63137257">
</g><g
     id="g899"
     style="fill:#dfe6e9;fill-opacity:0.63137257">
</g><g
     id="g901"
     style="fill:#dfe6e9;fill-opacity:0.63137257">
</g><g
     id="g903"
     style="fill:#dfe6e9;fill-opacity:0.63137257">
</g><g
     id="g905"
     style="fill:#dfe6e9;fill-opacity:0.63137257">
</g><g
     id="g907"
     style="fill:#dfe6e9;fill-opacity:0.63137257">
</g><g
     id="g909"
     style="fill:#dfe6e9;fill-opacity:0.63137257">
</g><g
     id="g911"
     style="fill:#dfe6e9;fill-opacity:0.63137257">
</g><g
     id="g913"
     style="fill:#dfe6e9;fill-opacity:0.63137257">
</g><g
     id="g915"
     style="fill:#dfe6e9;fill-opacity:0.63137257">
</g><g
     id="g917"
     style="fill:#dfe6e9;fill-opacity:0.63137257">
</g><g
     id="g919"
     style="fill:#dfe6e9;fill-opacity:0.63137257">
</g><g
     id="g921"
     style="fill:#dfe6e9;fill-opacity:0.63137257">
</g><g
     id="g923"
     style="fill:#dfe6e9;fill-opacity:0.63137257">
</g><g
     id="g925"
     style="fill:#dfe6e9;fill-opacity:0.63137257">
</g></g></g>
<g
   id="g36"
   style="fill:#dfe6e9;fill-opacity:0.63137257">
	<g
   id="g34"
   style="fill:#dfe6e9;fill-opacity:0.63137257">
		<path
   d="M467,121h-85.945l-82.14-62.461C300.267,54.264,301,49.716,301,45c0-24.813-20.187-45-45-45s-45,20.187-45,45    c0,4.716,0.733,9.264,2.085,13.539L130.945,121H45c-24.813,0-45,20.187-45,45v301c0,24.813,20.187,45,45,45h422    c24.813,0,45-20.187,45-45V166C512,141.187,491.813,121,467,121z M256,30c8.271,0,15,6.729,15,15s-6.729,15-15,15s-15-6.729-15-15    S247.729,30,256,30z M231.149,82.491C238.275,87.23,246.819,90,256,90c9.181,0,17.725-2.77,24.851-7.509L331.493,121H180.507    L231.149,82.491z M482,467c0,8.271-6.729,15-15,15H45c-8.271,0-15-6.729-15-15V166c0-8.271,6.729-15,15-15    c46.746,0,407.604,0,422,0c8.271,0,15,6.729,15,15V467z"
   id="path32"
   style="fill:#dfe6e9;fill-opacity:0.63137257" />
	</g>
</g>
<g
   id="g38">
</g>
<g
   id="g40">
</g>
<g
   id="g42">
</g>
<g
   id="g44">
</g>
<g
   id="g46">
</g>
<g
   id="g48">
</g>
<g
   id="g50">
</g>
<g
   id="g52">
</g>
<g
   id="g54">
</g>
<g
   id="g56">
</g>
<g
   id="g58">
</g>
<g
   id="g60">
</g>
<g
   id="g62">
</g>
<g
   id="g64">
</g>
<g
   id="g66">
</g>
<g
   inkscape:groupmode="layer"
   id="layer1"
   inkscape:label="Layer 1"><g
     id="g922"
     transform="translate(215.89635,-6.6336867)"><circle
       style="opacity:1;fill:#636e72;fill-opacity:0.63137255;stroke:none;stroke-width:0.75590551;stroke-miterlimit:4;stroke-dasharray:none;stroke-opacity:1;paint-order:stroke fill markers"
       id="use894"
       cx="52.767963"
       cy="322.33685"
       r="92.570084" /><text
       xml:space="preserve"
       style="font-style:normal;font-variant:normal;font-weight:normal;font-stretch:normal;font-size:133.33332825px;line-height:1.25;font-family:Chilanka;-inkscape-font-specification:'Chilanka, Normal';font-variant-ligatures:normal;font-variant-caps:normal;font-variant-numeric:normal;font-feature-settings:normal;text-align:start;letter-spacing:0px;word-spacing:0px;writing-mode:lr-tb;text-anchor:start;fill:#ffffff;fill-opacity:1;stroke:none"
       x="10.530004"
       y="361.72513"
       id="use896"><tspan
         sodipodi:role="line"
         id="tspan898"
         x="10.530004"
         y="361.72513"
         style="font-style:normal;font-variant:normal;font-weight:normal;font-stretch:normal;font-size:133.33332825px;font-family:Dyuthi;-inkscape-font-specification:'Dyuthi, Normal';font-variant-ligatures:normal;font-variant-caps:normal;font-variant-numeric:normal;font-feature-settings:normal;text-align:start;writing-mode:lr-tb;text-anchor:start;fill:#ffffff;fill-opacity:1">+</tspan></text>
</g></g></svg>