<svg width="49" height="40" viewBox="0 0 49 40" fill="none" xmlns="http://www.w3.org/2000/svg">
<path d="M9.55602 9.65473V2.73957C9.55602 2.15388 9.08121 1.67908 8.49553 1.67908H4.96186C4.37617 1.67908 3.90137 2.15388 3.90137 2.73957V9.65473" fill="#E5E9EA"/>
<path d="M6.46936 9.65473V1.67908H4.96186C4.37617 1.67908 3.90137 2.15388 3.90137 2.73957V9.65473" fill="#D1D1D1"/>
<path d="M48.3974 10.915V36.7879C48.3974 38.5618 46.9593 39.9999 45.1854 39.9999H3.212C1.43812 39.9999 0 38.5618 0 36.7879V10.915C0 9.14116 1.43812 7.70304 3.212 7.70304H9.56322C10.9312 7.70304 12.15 6.8368 12.5985 5.54396L13.7709 2.16011C14.2193 0.867184 15.4371 0 16.8061 0H35.5425C36.9105 0 38.1283 0.867184 38.5767 2.16011L39.7501 5.54396C40.1985 6.83689 41.4163 7.70304 42.7843 7.70304H45.1853C46.9593 7.70304 48.3974 9.14116 48.3974 10.915Z" fill="#E17055"/>
<path d="M5.73065 39.9999H3.212C1.43812 39.9999 0 38.5618 0 36.7879V10.915C0 9.14115 1.43812 7.70303 3.212 7.70303H5.53111V7.70899C3.85005 7.81268 2.51865 9.20836 2.51865 10.915V36.7879C2.51865 38.5619 3.95677 39.9999 5.73065 39.9999Z" fill="#B55842"/>
<path d="M19.3246 0C17.9557 0 16.7378 0.867184 16.2894 2.16011L15.1169 5.54396C14.6685 6.83689 13.4497 7.70304 12.0817 7.70304H9.92651V7.68233C11.1433 7.54404 12.1903 6.72129 12.5982 5.54396L13.7706 2.16011C14.219 0.867184 15.4368 0 16.8058 0C16.806 0 19.3246 0 19.3246 0Z" fill="#B55842"/>
<path d="M48.3974 16.4442V36.788C48.3974 38.5619 46.9593 40 45.1854 40H3.212C1.43812 40 0 38.5619 0 36.788V16.4442H48.3974Z" fill="#1AB7DA"/>
<path d="M5.73065 39.9999H3.212C1.43812 39.9999 0 38.5618 0 36.7879V16.4442H2.51865V36.788C2.51865 38.5619 3.95677 39.9999 5.73065 39.9999Z" fill="#36A6CE"/>
<path d="M24.1988 36.9874C31.5896 36.9874 37.5811 30.996 37.5811 23.6051C37.5811 16.2142 31.5896 10.2227 24.1988 10.2227C16.8079 10.2227 10.8164 16.2142 10.8164 23.6051C10.8164 30.996 16.8079 36.9874 24.1988 36.9874Z" fill="#E5E9EA"/>
<path d="M33.6609 23.6051C33.6609 26.3914 32.4569 28.8962 30.5397 30.6287C28.8617 32.1448 26.6393 33.0682 24.1987 33.0682C21.7591 33.0682 19.5357 32.1447 17.8577 30.6286C15.9406 28.8971 14.7356 26.3913 14.7356 23.605C14.7356 20.8186 15.9406 18.3128 17.8577 16.5824C19.5358 15.0653 21.7591 14.1428 24.1987 14.1428C26.6393 14.1428 28.8617 15.0663 30.5397 16.5824C32.4569 18.314 33.6609 20.8187 33.6609 23.6051Z" fill="#566368"/>
<path d="M30.8891 16.9141C32.8594 18.8843 33.7792 21.5068 33.6486 24.0875C31.0679 24.218 28.4454 23.2983 26.4751 21.3281C24.5049 19.3579 23.5851 16.7353 23.7164 14.1554C26.2963 14.0241 28.9189 14.944 30.8891 16.9141Z" fill="#6F7B7F"/>
<path d="M21.9215 25.8818C23.8917 27.852 24.8115 30.4745 24.6809 33.0552C22.1009 33.1865 19.4769 32.2667 17.5068 30.2964C15.5366 28.3262 14.6168 25.7022 14.7487 23.123C17.3287 22.9916 19.9513 23.9114 21.9215 25.8818Z" fill="#6F7B7F"/>
<path d="M24.1985 33.8085C18.5724 33.8085 13.9951 29.2313 13.9951 23.6052C13.9951 17.9791 18.5724 13.4018 24.1985 13.4018C29.8246 13.4018 34.4018 17.979 34.4018 23.6052C34.4018 29.2314 29.8246 33.8085 24.1985 33.8085ZM24.1985 14.8833C19.3893 14.8833 15.4766 18.796 15.4766 23.6052C15.4766 28.4144 19.3893 32.327 24.1985 32.327C29.0077 32.327 32.9203 28.4144 32.9203 23.6052C32.9203 18.796 29.0077 14.8833 24.1985 14.8833Z" fill="#435054"/>
<path d="M24.1984 19.8066C22.1039 19.8066 20.3999 21.5107 20.3999 23.6053C20.3999 25.6999 22.1039 27.4038 24.1984 27.4038C26.293 27.4038 27.997 25.6998 27.997 23.6053C27.997 21.5108 26.293 19.8066 24.1984 19.8066Z" fill="#435054"/>
<path d="M29.0061 6.9627H34.8273C35.5926 6.9627 36.2131 6.34232 36.2131 5.57694V4.05204C36.2131 3.28676 35.5927 2.66629 34.8273 2.66629H29.0061C28.2408 2.66629 27.6204 3.28667 27.6204 4.05204V5.57694C27.6204 6.34223 28.2408 6.9627 29.0061 6.9627Z" fill="#E5E9EA"/>
<path d="M34.8272 7.70339H29.006C27.8334 7.70339 26.8794 6.74943 26.8794 5.57683V4.05212C26.8794 2.87953 27.8334 1.92557 29.006 1.92557H34.8272C35.9998 1.92557 36.9537 2.87953 36.9537 4.05212V5.57693C36.9536 6.74952 35.9997 7.70339 34.8272 7.70339ZM29.006 3.40708C28.6502 3.40708 28.361 3.69642 28.361 4.05203V5.57683C28.361 5.93253 28.6502 6.22178 29.006 6.22178H34.8272C35.1829 6.22178 35.4721 5.93244 35.4721 5.57683V4.05212C35.4721 3.69642 35.1828 3.40717 34.8272 3.40717C34.8272 3.40708 29.006 3.40708 29.006 3.40708Z" fill="#B55842"/>
<path d="M9.20041 37.2581C10.6798 37.2581 11.8791 36.0588 11.8791 34.5794C11.8791 33.1 10.6798 31.9007 9.20041 31.9007C7.72102 31.9007 6.52173 33.1 6.52173 34.5794C6.52173 36.0588 7.72102 37.2581 9.20041 37.2581Z" fill="#566368"/>
</svg>