<?xml version="1.0" encoding="UTF-8" standalone="no"?>
<svg
   height="24"
   viewBox="0 0 24 24"
   width="24"
   version="1.1"
   id="svg1"
   sodipodi:docname="heart.svg"
   inkscape:version="1.4.2 (ebf0e940d0, 2025-05-08)"
   xmlns:inkscape="http://www.inkscape.org/namespaces/inkscape"
   xmlns:sodipodi="http://sodipodi.sourceforge.net/DTD/sodipodi-0.dtd"
   xmlns="http://www.w3.org/2000/svg"
   xmlns:svg="http://www.w3.org/2000/svg">
  <defs
     id="defs1" />
  <sodipodi:namedview
     id="namedview1"
     pagecolor="#ffffff"
     bordercolor="#999999"
     borderopacity="1"
     inkscape:showpageshadow="0"
     inkscape:pageopacity="0"
     inkscape:pagecheckerboard="0"
     inkscape:deskcolor="#d1d1d1"
     inkscape:zoom="49.5"
     inkscape:cx="11.989899"
     inkscape:cy="12"
     inkscape:window-width="2560"
     inkscape:window-height="1367"
     inkscape:window-x="1920"
     inkscape:window-y="30"
     inkscape:window-maximized="1"
     inkscape:current-layer="svg1" />
  <path
     d="m 13.052839,3.1222402 c 1.021409,-0.4999536 1.912417,-0.6646274 3.294689,-0.6646106 3.537348,0.014649 6.155521,2.9979793 6.155521,6.7982033 0,2.9006331 -1.617309,5.7025871 -4.629782,8.4120011 -1.581238,1.422164 -3.600142,2.829552 -5.046012,3.578275 L 12,21.674492 11.172745,21.246109 C 9.7268747,20.497386 7.7079711,19.089998 6.1267332,17.667834 3.11426,14.95842 1.4969513,12.156466 1.4969513,9.2558329 c 0,-3.8408782 2.593715,-6.7982187 6.162946,-6.7982187 1.3326782,0 2.2693966,0.180247 3.3106237,0.6952389 0.362515,0.1793006 0.703113,0.3919808 1.019903,0.6374648 0.32948,-0.2600633 0.684257,-0.4829784 1.062415,-0.6680777 z"
     fill-rule="evenodd"
     id="path1"
     sodipodi:nodetypes="scssscssssscs"
     style="fill:#e03131;fill-opacity:1;stroke:#6d1010;stroke-width:2.00513;stroke-dasharray:none;stroke-opacity:1" />
  <path
     id="path2"
     style="fill:#ffffff;fill-opacity:0.0748915;stroke:none;stroke-width:1.59198;stroke-dasharray:none;stroke-opacity:1"
     d="m 12.181147,19.685547 0.636719,-0.330078 c 1.147952,-0.59445 2.752385,-1.712667 4.007812,-2.841797 2.391761,-2.151145 3.675782,-4.376723 3.675782,-6.6796876 0,-3.0171961 -2.080187,-5.3848534 -4.888672,-5.3964844 -1.097458,-1.33e-5 -1.804284,0.1304045 -2.615234,0.5273438 -0.289632,0.1417672 -0.562691,0.3125949 -0.816407,0.5097656 z"
     sodipodi:nodetypes="ccsscscc" />
  <path
     id="path3"
     style="fill:#ffffff;fill-opacity:0.13333334;stroke:none;stroke-width:1.59198;stroke-dasharray:none;stroke-opacity:1"
     d="M 12.160945,19.685547 V 5.4746094 c -0.0093,0.00722 -0.0181,0.014188 -0.02734,0.021484 0,0 0.0179,14.2390956 0.0078,14.1992186 z"
     sodipodi:nodetypes="ccccc" />
</svg>
