<svg width="180" height="180" viewBox="0 0 180 180" fill="none" xmlns="http://www.w3.org/2000/svg">
<path d="M128.992 112.546C125.696 112.547 122.601 111.035 120.262 108.219C115.199 102.124 114.527 91.4001 118.589 81.5328C128.062 58.5217 131.882 40.5691 128.808 33.5101C128.198 32.1066 127.364 31.2472 126.185 30.8048C116.521 27.1828 101.678 54.0023 96.0017 67.5599C95.3724 69.0639 93.6427 69.7725 92.1395 69.1427C90.6362 68.5132 89.9274 66.7831 90.5571 65.2794C90.7497 64.8187 95.3531 53.8848 101.966 43.4741C111.516 28.4382 120.362 22.3135 128.257 25.2768C130.958 26.2896 132.964 28.2666 134.221 31.1529C139.36 42.9569 130.053 69.1929 124.048 83.7809C120.312 92.857 121.82 100.855 124.802 104.445C126.298 106.246 128.072 106.948 130.075 106.527C132.456 106.029 140.784 102.455 147.997 77.4118C154.359 55.3203 172.861 5.60259 174.301 1.88141C174.882 0.380907 176.619 -0.38675 178.119 0.194531C179.619 0.775812 180.387 2.51297 179.806 4.01348C178.433 7.55883 159.859 57.5525 153.669 79.0462C148.022 98.6537 140.073 110.466 131.284 112.307C130.514 112.468 129.748 112.546 128.992 112.546Z" fill="#807A72"/>
<path d="M123.279 173.445C112.056 163.467 98.9762 154.67 94.755 151.905V132.845C94.755 130.833 92.6889 129.38 90.795 130.07C77.0989 135.052 72.8907 146.535 71.6486 151.894L52.2804 150.817L95.892 67.7927C96.6468 66.3558 96.1001 64.5789 94.6682 63.8148C83.0403 57.6109 66.0613 57.004 49.2506 62.1905C30.8555 67.8655 15.8291 79.668 8.02442 94.5724C-1.2452 112.272 -2.56602 132.01 4.49053 147.371C10.4077 160.251 21.7891 169.219 36.5382 172.624C40.179 173.464 43.8493 173.81 47.4267 173.81C60.0974 173.809 71.5769 169.478 76.2175 167.47C82.8097 174.889 92.5458 179.171 104.54 179.89C105.81 179.967 107.046 180 108.235 180C115.998 180 121.757 178.586 122.034 178.516C124.289 177.952 125.02 174.993 123.279 173.445Z" fill="#E17055"/>
<path d="M122.527 172.783C122.371 172.853 122.209 172.916 122.034 172.96C121.757 173.029 115.997 174.444 108.234 174.444C107.045 174.444 105.81 174.41 104.539 174.334C92.5451 173.614 82.809 169.333 76.2169 161.913C71.577 163.921 60.0967 168.253 47.4261 168.253C43.8486 168.253 40.1779 167.908 36.5375 167.068C21.7885 163.663 10.4074 154.695 4.48987 141.814C1.85456 136.078 0.388902 129.73 0.0679262 123.107C-0.330042 131.726 1.12542 140.046 4.48987 147.37C10.407 160.25 21.7885 169.219 36.5375 172.623C40.1783 173.464 43.8486 173.809 47.4261 173.809C60.0967 173.808 71.5763 169.477 76.2169 167.469C82.809 174.888 92.5451 179.17 104.539 179.89C105.81 179.966 107.045 179.999 108.234 179.999C115.997 179.999 121.757 178.585 122.034 178.515C124.289 177.952 125.02 174.992 123.279 173.445C123.029 173.223 122.778 173.003 122.527 172.783Z" fill="#B55842"/>
<path d="M66.3731 112.179C68.6002 112.179 70.7788 111.971 72.8921 111.578L95.8919 67.7927C96.6467 66.3558 96.1001 64.5789 94.6682 63.8148C83.0403 57.6109 66.0612 57.004 49.2506 62.1905C42.9056 64.1478 36.9625 66.8348 31.5773 70.1255C31.1712 72.2724 30.9561 74.4871 30.9561 76.7524C30.9554 96.318 46.8125 112.179 66.3731 112.179Z" fill="#FFD042"/>
<path d="M57.8628 84.1333C61.9379 84.1333 65.2414 80.8289 65.2414 76.7528C65.2414 72.6767 61.9379 69.3723 57.8628 69.3723C53.7877 69.3723 50.4843 72.6767 50.4843 76.7528C50.4843 80.8289 53.7877 84.1333 57.8628 84.1333Z" fill="#FFB266"/>
<path d="M57.8629 81.1811C60.308 81.1811 62.2901 79.1985 62.2901 76.7528C62.2901 74.307 60.308 72.3244 57.8629 72.3244C55.4178 72.3244 53.4357 74.307 53.4357 76.7528C53.4357 79.1985 55.4178 81.1811 57.8629 81.1811Z" fill="#807A72"/>
<path d="M156.736 74.9337C166.327 74.9337 174.102 67.1568 174.102 57.5635C174.102 47.9701 166.327 40.1932 156.736 40.1932C147.146 40.1932 139.371 47.9701 139.371 57.5635C139.371 67.1568 147.146 74.9337 156.736 74.9337Z" fill="#FFD042"/>
<path d="M139.522 55.29L170.389 68.2896C172.659 65.4032 174.033 61.7812 174.094 57.8381L144.405 45.334C141.795 47.9662 140.027 51.4289 139.522 55.29Z" fill="#E17055"/>
<path d="M161.162 73.1146C151.572 73.1146 143.796 65.3374 143.796 55.744C143.796 49.3358 147.268 43.7421 152.43 40.7313C144.922 42.6467 139.369 49.4558 139.369 57.5631C139.369 67.1565 147.144 74.9337 156.735 74.9337C159.919 74.9337 162.901 74.0725 165.467 72.5758C164.09 72.9271 162.648 73.1146 161.162 73.1146Z" fill="#FFC412"/>
<path d="M146.614 46.2645L144.404 45.334C141.796 47.9658 140.027 51.4289 139.522 55.29L143.855 57.1147C143.82 56.6618 143.796 56.2057 143.796 55.7437C143.796 52.2454 144.834 48.9909 146.614 46.2645Z" fill="#B55842"/>
<path d="M23.5649 118.08C21.3792 118.08 19.1774 117.391 17.3099 115.965C12.7821 112.509 11.9095 106.012 15.365 101.482C16.3536 100.187 18.206 99.9369 19.5019 100.927C20.7981 101.916 21.0466 103.768 20.0577 105.065C18.5766 107.006 18.9506 109.79 20.8912 111.272C22.8319 112.753 25.6152 112.379 27.0963 110.438C28.0849 109.142 29.9373 108.892 31.2331 109.882C32.529 110.871 32.7779 112.724 31.7886 114.02C29.7583 116.68 26.6783 118.08 23.5649 118.08Z" fill="#B55842"/>
<path d="M44.2254 131.364C42.0401 131.364 39.8379 130.675 37.9704 129.25C33.4423 125.794 32.5697 119.296 36.0256 114.767C37.0152 113.471 38.8665 113.222 40.1624 114.211C41.4586 115.2 41.7072 117.053 40.7182 118.349C39.2371 120.29 39.6112 123.075 41.5518 124.556C43.4924 126.037 46.2761 125.663 47.7568 123.722C48.7454 122.427 50.5978 122.177 51.8937 123.167C53.1895 124.156 53.4384 126.008 52.4491 127.305C50.4189 129.965 47.3392 131.364 44.2254 131.364Z" fill="#B55842"/>
<path d="M26.5451 140.276C24.2951 140.276 22.1183 139.544 20.2996 138.155C15.7719 134.699 14.8993 128.202 18.3548 123.673C19.3437 122.377 21.1958 122.127 22.4916 123.117C23.7878 124.106 24.0364 125.959 23.0474 127.255C21.5667 129.196 21.9404 131.981 23.881 133.462C24.8211 134.179 25.9858 134.489 27.1565 134.331C28.3286 134.173 29.3689 133.569 30.086 132.628C31.075 131.333 32.927 131.083 34.2229 132.073C35.5191 133.061 35.7676 134.914 34.7787 136.21C33.1046 138.404 30.6767 139.816 27.9419 140.183C27.4746 140.245 27.0085 140.276 26.5451 140.276Z" fill="#B55842"/>
<path d="M96.0471 2.03613C88.3426 -0.584034 79.9448 3.55527 77.3257 11.2617C75.0469 17.9688 79.8707 35.6949 80.8607 39.1801C81.414 41.1283 83.8271 41.9561 85.4591 40.7432C88.3672 38.5834 102.991 27.4687 105.27 20.762C107.888 13.0566 103.751 4.65559 96.0471 2.03613Z" fill="#1AB7DA"/>
<path d="M80.438 14.229C83.0571 6.52251 91.4549 2.38321 99.1594 5.00337C100.528 5.46861 101.782 6.11916 102.908 6.91355C101.201 4.72627 98.8634 2.99368 96.0466 2.03613C88.3422 -0.584034 79.9444 3.55527 77.3253 11.2617C75.0465 17.9688 79.8702 35.6949 80.8602 39.1801C81.2364 40.5048 82.4729 41.3094 83.7385 41.3087C82.3948 36.4386 78.3054 20.507 80.438 14.229Z" fill="#1E9BC4"/>
<path d="M146.183 127.498C139.449 125.315 121.795 130.389 118.324 131.428C116.382 132.01 115.592 134.434 116.826 136.049C119.026 138.927 130.344 153.397 137.08 155.582C137.08 155.582 137.08 155.582 137.08 155.582C138.587 156.07 140.116 156.302 141.621 156.302C147.845 156.302 153.648 152.327 155.669 146.092C158.18 138.35 153.924 130.009 146.183 127.498Z" fill="#1AB7DA"/>
<path d="M155.125 135.585C155.363 137.625 155.18 139.746 154.507 141.824C152.486 148.059 146.683 152.034 140.459 152.034C138.953 152.034 137.425 151.802 135.918 151.314C135.918 151.314 135.918 151.314 135.918 151.314C129.839 149.342 120.032 137.37 116.558 132.936C116.079 133.901 116.109 135.111 116.826 136.05C119.027 138.928 130.344 153.398 137.08 155.582C137.08 155.582 137.08 155.582 137.08 155.582C138.587 156.071 140.116 156.303 141.621 156.303C147.846 156.303 153.649 152.328 155.669 146.093C156.833 142.505 156.541 138.79 155.125 135.585Z" fill="#1E9BC4"/>
<path d="M31.3095 25.8535C31.3091 25.8535 31.3091 25.8535 31.3095 25.8535C25.6954 19.9605 16.3365 19.7358 10.4457 25.3499C4.5546 30.9644 4.32854 40.3265 9.94158 46.2191C14.8269 51.3472 32.766 55.2875 36.3126 56.0253C38.3003 56.4413 40.1449 54.6763 39.8289 52.674C39.2632 49.0949 36.1944 30.9816 31.3095 25.8535Z" fill="#1AB7DA"/>
<path d="M14.3146 44.7433C8.70155 38.8506 8.92761 29.489 14.8184 23.8741C15.8365 22.9036 16.9604 22.1116 18.1491 21.4896C15.3475 21.9625 12.6531 23.2461 10.4457 25.3497C4.55454 30.9645 4.32883 40.3262 9.94186 46.2188C14.8272 51.347 32.7663 55.2872 36.3128 56.025C37.7194 56.3193 39.0512 55.5193 39.5989 54.3177C34.4053 53.1868 18.8167 49.4695 14.3146 44.7433Z" fill="#1E9BC4"/>
<path d="M23.5768 35.4217C26.0218 35.4217 28.004 33.439 28.004 30.9933C28.004 28.5476 26.0218 26.5649 23.5768 26.5649C21.1317 26.5649 19.1495 28.5476 19.1495 30.9933C19.1495 33.439 21.1317 35.4217 23.5768 35.4217Z" fill="#89EBF0"/>
<path d="M97.3643 20.6607C99.8094 20.6607 101.792 18.678 101.792 16.2323C101.792 13.7866 99.8094 11.804 97.3643 11.804C94.9193 11.804 92.9371 13.7866 92.9371 16.2323C92.9371 18.678 94.9193 20.6607 97.3643 20.6607Z" fill="#89EBF0"/>
<path d="M143.112 141.702C145.557 141.702 147.539 139.719 147.539 137.273C147.539 134.827 145.557 132.845 143.112 132.845C140.667 132.845 138.685 134.827 138.685 137.273C138.685 139.719 140.667 141.702 143.112 141.702Z" fill="#89EBF0"/>
</svg>
