<svg width="50" height="60" viewBox="0 0 50 60" fill="none" xmlns="http://www.w3.org/2000/svg">
<path d="M43.8075 19.9924L46.3303 17.4692C47.7008 16.0991 47.7008 13.8689 46.3303 12.4979C44.9597 11.1273 42.7295 11.1273 41.3589 12.4979L38.6655 15.1913C35.8557 13.2344 32.6527 11.8799 29.2969 11.2299V7.73438H31.6406C32.2879 7.73438 32.8125 7.20978 32.8125 6.5625V3.51562C32.8125 1.577 31.2355 0 29.2969 0H19.9219C17.9832 0 16.4062 1.577 16.4062 3.51562V6.5625C16.4062 7.20978 16.9308 7.73438 17.5781 7.73438H19.9219V11.2299C16.5665 11.8794 13.363 13.2344 10.5533 15.1913L7.8598 12.4979C6.48972 11.1273 4.25949 11.1273 2.88849 12.4979C1.51794 13.8684 1.51794 16.0986 2.88849 17.4692L5.41122 19.9924C1.91437 24.348 0 29.7734 0 35.3906C0 48.9601 11.0399 60 24.6094 60C38.1789 60 49.2188 48.9601 49.2188 35.3906C49.2188 29.7734 47.3044 24.348 43.8075 19.9924V19.9924ZM43.0161 14.155C43.4734 13.6981 44.2163 13.6986 44.6732 14.155C45.1295 14.6118 45.1295 15.3552 44.6732 15.8121L42.2516 18.2332C41.7059 17.6729 41.1337 17.1387 40.5386 16.6328L43.0161 14.155ZM18.75 3.51562C18.75 2.86926 19.2755 2.34375 19.9219 2.34375H29.2969C29.9432 2.34375 30.4688 2.86926 30.4688 3.51562V5.39062H18.75V3.51562ZM26.9531 7.73438V10.892C25.3999 10.7465 23.8193 10.7465 22.2656 10.892V7.73438H26.9531ZM4.54559 14.155C5.00244 13.6986 5.74585 13.6981 6.2027 14.155L8.68011 16.6328C8.08502 17.1387 7.51282 17.6729 6.96716 18.2332L4.54559 15.8121C4.0892 15.3552 4.0892 14.6118 4.54559 14.155ZM24.6094 57.6562C12.3322 57.6562 2.34375 47.6678 2.34375 35.3906C2.34375 29.9748 4.30984 24.7568 7.87949 20.6969C8.86276 19.5786 9.96002 18.5568 11.1406 17.6587C14.0991 15.4074 17.601 13.9256 21.2677 13.3731C22.365 13.2088 23.4892 13.125 24.6094 13.125C25.7295 13.125 26.8538 13.2088 27.9506 13.3731C31.6177 13.9256 35.1196 15.4074 38.0786 17.6587C39.2587 18.5568 40.356 19.5786 41.3393 20.6969C44.9089 24.7568 46.875 29.9748 46.875 35.3906C46.875 47.6678 36.8866 57.6562 24.6094 57.6562Z" fill="black"/>
<path d="M24.6094 38.9062C26.548 38.9062 28.125 37.3293 28.125 35.3906C28.125 33.8631 27.1454 32.5603 25.7812 32.0764V23.6719C25.7812 23.0246 25.2567 22.5 24.6094 22.5C23.9621 22.5 23.4375 23.0246 23.4375 23.6719V32.0764C22.0734 32.5603 21.0938 33.8631 21.0938 35.3906C21.0938 37.3293 22.6707 38.9062 24.6094 38.9062ZM24.6094 34.2188C25.2557 34.2188 25.7812 34.7443 25.7812 35.3906C25.7812 36.037 25.2557 36.5625 24.6094 36.5625C23.963 36.5625 23.4375 36.037 23.4375 35.3906C23.4375 34.7443 23.963 34.2188 24.6094 34.2188Z" fill="black"/>
<path d="M37.093 23.0272C37.0747 23.0057 37.0564 22.9842 37.0358 22.9641C37.0139 22.9416 36.9905 22.9215 36.9672 22.9013C34.9017 20.8579 32.3502 19.3459 29.5811 18.5283C28.96 18.3452 28.3086 18.6995 28.1255 19.3203C27.9424 19.941 28.2967 20.5928 28.9174 20.7759C30.9691 21.382 32.883 22.4294 34.5145 23.8279L33.7239 24.6184C33.2666 25.0762 33.2666 25.8182 33.7239 26.276C33.9528 26.5049 34.2526 26.6193 34.5529 26.6193C34.8528 26.6193 35.1526 26.5049 35.3815 26.276L36.1739 25.4836C38.2942 27.9491 39.5535 30.9841 39.7989 34.2186H38.6719C38.0246 34.2186 37.5 34.7437 37.5 35.3905C37.5 36.0378 38.0246 36.5624 38.6719 36.5624H39.7989C39.5535 39.7974 38.2942 42.8319 36.1739 45.2974L35.3815 44.505C34.9237 44.0477 34.1817 44.0477 33.7239 44.505C33.2661 44.9628 33.2661 45.7048 33.7239 46.1626L34.5163 46.955C32.0508 49.0754 29.0158 50.3347 25.7812 50.5805V49.453C25.7812 48.8057 25.2567 48.2811 24.6094 48.2811C23.9621 48.2811 23.4375 48.8057 23.4375 49.453V50.58C20.2029 50.3347 17.168 49.0754 14.7025 46.955L15.4948 46.1626C15.9526 45.7048 15.9526 44.9628 15.4948 44.505C15.0371 44.0477 14.295 44.0477 13.8373 44.505L13.0449 45.2974C10.9245 42.8319 9.66522 39.7969 9.41986 36.5624H10.5469C11.1942 36.5624 11.7188 36.0378 11.7188 35.3905C11.7188 34.7432 11.1942 34.2186 10.5469 34.2186H9.41986C9.66522 30.9841 10.9245 27.9491 13.0449 25.4836L13.8373 26.276C14.0662 26.5049 14.366 26.6193 14.6658 26.6193C14.9661 26.6193 15.266 26.5049 15.4948 26.276C15.9521 25.8182 15.9521 25.0762 15.4948 24.6184L14.7043 23.8279C16.3358 22.4289 18.2497 21.382 20.3014 20.7759C20.9221 20.5928 21.2764 19.941 21.0933 19.3203C20.9102 18.6995 20.2592 18.3457 19.6376 18.5283C16.869 19.3454 14.3184 20.857 12.2534 22.8995C12.2292 22.9201 12.2054 22.9412 12.1829 22.9636C12.1628 22.9837 12.1449 23.0048 12.1266 23.0259C8.84033 26.3428 7.03125 30.73 7.03125 35.3905C7.03125 40.0505 8.84033 44.4373 12.1257 47.7538C12.144 47.7753 12.1623 47.7968 12.1829 47.817C12.2031 47.8376 12.2241 47.8554 12.2452 47.8737C15.5621 51.1596 19.9489 52.9686 24.6094 52.9686C29.2694 52.9686 33.6562 51.16 36.9727 47.8746C36.9942 47.8559 37.0157 47.8376 37.0358 47.817C37.056 47.7973 37.0738 47.7758 37.0921 47.7552C40.3784 44.4382 42.1875 40.051 42.1875 35.3905C42.1875 30.7305 40.3784 26.3437 37.093 23.0272V23.0272Z" fill="black"/>
<path d="M24.6094 20.1562C25.2562 20.1562 25.7812 19.6312 25.7812 18.9844C25.7812 18.3376 25.2562 17.8125 24.6094 17.8125C23.9626 17.8125 23.4375 18.3376 23.4375 18.9844C23.4375 19.6312 23.9626 20.1562 24.6094 20.1562Z" fill="black"/>
</svg>
