<svg width="60" height="60" viewBox="0 0 60 60" fill="none" xmlns="http://www.w3.org/2000/svg">
<path d="M58.8283 57.6564H53.6721V48.3986C53.6721 47.7513 53.1473 47.2267 52.5002 47.2267C51.8531 47.2267 51.3283 47.7513 51.3283 48.3986V57.6564H37.2658V35.3907C37.2658 34.7435 36.741 34.2189 36.0939 34.2189H23.9064C23.2593 34.2189 22.7345 34.7435 22.7345 35.3907V57.6564H8.67203V31.1719H9.12297C9.43375 31.1719 9.73176 31.0483 9.9516 30.8286L30.0002 10.7801L50.0487 30.8286C50.2686 31.0483 50.5666 31.1719 50.8774 31.1719H51.3283V39.9609C51.3283 40.6082 51.8531 41.1328 52.5002 41.1328C53.1473 41.1328 53.6721 40.6082 53.6721 39.9609V31.1719H58.8283C59.3023 31.1719 59.7296 30.8863 59.911 30.4485C60.0924 30.0107 59.992 29.5065 59.6569 29.1714L30.8288 0.343213C30.3711 -0.114404 29.6293 -0.114404 29.1714 0.343213L18.1558 11.3588C17.6982 11.8165 17.6982 12.5585 18.1558 13.0161C18.6135 13.4738 19.3556 13.4738 19.8132 13.0161L30.0002 2.82911L55.999 28.8281H51.3628L30.8288 8.29415C30.3711 7.83654 29.6293 7.83654 29.1714 8.29415L8.63746 28.8281H4.00117L13.2507 19.5787C13.7083 19.1211 13.7083 18.3791 13.2507 17.9213C12.793 17.4638 12.051 17.4637 11.5933 17.9213L0.343277 29.1714C0.00823782 29.5065 -0.0921919 30.0105 0.0892144 30.4485C0.270621 30.8864 0.698004 31.1719 1.17203 31.1719H6.32828V57.6563H1.17203C0.524918 57.6563 0.000151885 58.1809 0.000151885 58.8281C0.000151885 59.4754 0.524918 60 1.17203 60H7.50016H23.9064H36.0939H52.5002H58.8283C59.4754 60 60.0002 59.4754 60.0002 58.8281C60.0002 58.1809 59.4754 57.6564 58.8283 57.6564ZM34.922 57.6564H25.0783V36.5626H34.922V57.6564Z" fill="#2D3436"/>
<path d="M47.5784 34.2186H41.0159C40.3688 34.2186 39.844 34.7432 39.844 35.3904V47.1092C39.844 47.7564 40.3688 48.2811 41.0159 48.2811H47.5784C48.2255 48.2811 48.7502 47.7564 48.7502 47.1092V35.3904C48.7502 34.7432 48.2255 34.2186 47.5784 34.2186ZM46.4065 45.9373H42.1877V36.5623H46.4065V45.9373Z" fill="#2D3436"/>
<path d="M18.9846 34.2186H12.4221C11.775 34.2186 11.2502 34.7432 11.2502 35.3904V47.1092C11.2502 47.7564 11.775 48.2811 12.4221 48.2811H18.9846C19.6317 48.2811 20.1565 47.7564 20.1565 47.1092V35.3904C20.1565 34.7432 19.6317 34.2186 18.9846 34.2186ZM17.8128 45.9373H13.594V36.5623H17.8128V45.9373Z" fill="#2D3436"/>
<path d="M30.0002 19.256C27.0279 19.256 24.6096 21.6743 24.6096 24.6466C24.6096 27.619 27.0279 30.0373 30.0002 30.0373C32.9726 30.0373 35.3909 27.619 35.3909 24.6466C35.3909 21.6743 32.9726 19.256 30.0002 19.256ZM30.0002 27.6935C28.3201 27.6935 26.9534 26.3266 26.9534 24.6466C26.9534 22.9666 28.3201 21.5998 30.0002 21.5998C31.6804 21.5998 33.0471 22.9666 33.0471 24.6466C33.0471 26.3266 31.6804 27.6935 30.0002 27.6935Z" fill="#2D3436"/>
<path d="M28.6021 46.2807C28.3842 46.0627 28.0818 45.9373 27.7737 45.9373C27.4655 45.9373 27.1631 46.0627 26.9452 46.2807C26.7272 46.4986 26.6018 46.801 26.6018 47.1092C26.6018 47.4174 26.7271 47.7197 26.9452 47.9377C27.1633 48.1557 27.4655 48.2811 27.7737 48.2811C28.0819 48.2811 28.3842 48.1557 28.6021 47.9377C28.8201 47.7197 28.9456 47.4174 28.9456 47.1092C28.9456 46.801 28.8202 46.4986 28.6021 46.2807Z" fill="#2D3436"/>
<path d="M16.4146 14.7572C16.1967 14.5393 15.8944 14.4139 15.5862 14.4139C15.278 14.4139 14.9756 14.5393 14.7577 14.7572C14.5397 14.9752 14.4143 15.2776 14.4143 15.5858C14.4143 15.894 14.5396 16.1963 14.7577 16.4143C14.9758 16.6322 15.278 16.7576 15.5862 16.7576C15.8944 16.7576 16.1967 16.6322 16.4146 16.4143C16.6325 16.1963 16.7581 15.894 16.7581 15.5858C16.7581 15.2776 16.6327 14.9752 16.4146 14.7572Z" fill="#2D3436"/>
<path d="M53.3286 43.0379C53.1108 42.82 52.8083 42.6945 52.5002 42.6945C52.192 42.6945 51.8897 42.8199 51.6717 43.0379C51.4538 43.257 51.3284 43.5582 51.3284 43.8664C51.3284 44.1746 51.4536 44.4769 51.6717 44.6961C51.8897 44.9141 52.192 45.0383 52.5002 45.0383C52.8084 45.0383 53.1108 44.9141 53.3286 44.6961C53.5466 44.4769 53.6721 44.1758 53.6721 43.8664C53.6721 43.5582 53.5467 43.2558 53.3286 43.0379Z" fill="#2D3436"/>
</svg>
