<?xml version="1.0" encoding="UTF-8" standalone="no"?>
<svg
   height="24"
   viewBox="0 0 24 24"
   width="24"
   version="1.1"
   id="svg1"
   sodipodi:docname="lake.svg"
   inkscape:version="1.4.2 (ebf0e940d0, 2025-05-08)"
   xmlns:inkscape="http://www.inkscape.org/namespaces/inkscape"
   xmlns:sodipodi="http://sodipodi.sourceforge.net/DTD/sodipodi-0.dtd"
   xmlns="http://www.w3.org/2000/svg"
   xmlns:svg="http://www.w3.org/2000/svg">
  <defs
     id="defs1">
    <filter
       style="color-interpolation-filters:sRGB;"
       inkscape:label="Drop Shadow"
       id="filter7"
       x="-0.44665759"
       y="-0.44665759"
       width="1.9446637"
       height="1.9497986">
      <feFlood
         result="flood"
         in="SourceGraphic"
         flood-opacity="0.215686"
         flood-color="rgb(24,16,0)"
         id="feFlood6" />
      <feGaussianBlur
         result="blur"
         in="SourceGraphic"
         stdDeviation="3.524393"
         id="feGaussianBlur6" />
      <feOffset
         result="offset"
         in="blur"
         dx="1.000000"
         dy="1.100000"
         id="feOffset6" />
      <feComposite
         result="comp1"
         operator="in"
         in="flood"
         in2="offset"
         id="feComposite6" />
      <feComposite
         result="comp2"
         operator="over"
         in="SourceGraphic"
         in2="comp1"
         id="feComposite7" />
    </filter>
  </defs>
  <sodipodi:namedview
     id="namedview1"
     pagecolor="#ffffff"
     bordercolor="#999999"
     borderopacity="1"
     inkscape:showpageshadow="0"
     inkscape:pageopacity="0"
     inkscape:pagecheckerboard="0"
     inkscape:deskcolor="#d1d1d1"
     inkscape:zoom="24.75"
     inkscape:cx="5.8787879"
     inkscape:cy="9.2121212"
     inkscape:window-width="2560"
     inkscape:window-height="1367"
     inkscape:window-x="1920"
     inkscape:window-y="30"
     inkscape:window-maximized="1"
     inkscape:current-layer="svg1" />
  <circle
     style="fill:#1971c2;fill-opacity:1;stroke:#092742;stroke-width:0.48;stroke-linecap:round;stroke-linejoin:round;stroke-opacity:1;filter:url(#filter7);stroke-dasharray:none"
     id="path2"
     cx="12"
     cy="12"
     r="9.7373734" />
  <path
     id="circle2"
     style="fill:#ffffff;fill-opacity:1;stroke:none;stroke-width:2.5896;stroke-linecap:round;stroke-linejoin:round"
     d="m 10.059978,4.6182192 c -1.5719194,0 -2.4013217,0.8303929 -3.0071888,1.4373716 -0.5447248,0.5447248 -0.8115465,0.7859944 -1.4352006,0.7859944 -0.4869647,0 -0.7554918,-0.1473691 -1.1095118,-0.4711623 A 9.410003,9.410003 0 0 0 3.3681684,8.3158681 c 0.5349296,0.4064801 1.239444,0.7490831 2.2494202,0.7490831 1.570808,0 2.401322,-0.8303927 3.0071891,-1.4373717 0.5447249,-0.5447246 0.8115465,-0.7859943 1.4352003,-0.7859943 0.623654,0 0.892648,0.2412697 1.437372,0.7859943 0.605867,0.606979 1.435271,1.4373717 3.00719,1.4373717 1.57303,0 2.405613,-0.8303927 3.013703,-1.4373717 0.545836,-0.5447246 0.813665,-0.7859943 1.439542,-0.7859943 0.538358,0 0.811242,0.178792 1.224588,0.5753827 A 9.410003,9.410003 0 0 0 17.924267,4.7528373 c -0.935164,0.2597226 -1.519277,0.845693 -1.978015,1.3027535 -0.545835,0.5458354 -0.813612,0.7859944 -1.441712,0.7859944 -0.624766,0 -0.890474,-0.2412708 -1.435199,-0.7859944 C 12.463473,5.4486109 11.6319,4.6182192 10.059978,4.6182192 Z m 0,5.5584148 c -1.5719194,0 -2.4013217,0.830393 -3.0071888,1.437372 C 6.5080644,12.15873 6.2412427,12.4 5.6175886,12.4 4.9939346,12.4 4.7271139,12.15873 4.1823893,11.614006 3.8156451,11.246588 3.3668475,10.79757 2.721134,10.500152 a 9.410003,9.410003 0 0 0 -0.1302755,1.563305 9.410003,9.410003 0 0 0 0.073822,1.17682 c 0.6013466,0.601069 1.4278407,1.383089 2.9529074,1.383089 1.5708079,0 2.401322,-0.830393 3.0071891,-1.437372 C 9.1695022,12.64127 9.4363238,12.4 10.059977,12.4 c 0.623654,0 0.892648,0.24127 1.437372,0.785994 0.605866,0.606979 1.435271,1.437372 3.00719,1.437372 1.57303,0 2.405613,-0.830393 3.013703,-1.437372 C 18.064078,12.64127 18.331907,12.4 18.957784,12.4 c 0.625877,0 0.893707,0.24127 1.439543,0.785994 0.232875,0.232876 0.499069,0.499088 0.827248,0.738227 a 9.410003,9.410003 0 0 0 0.184557,-1.860764 9.410003,9.410003 0 0 0 -0.05428,-1.022663 c -0.552419,-0.454314 -1.291936,-0.86416 -2.397067,-0.86416 -1.573029,0 -2.40344,0.831503 -3.011533,1.437372 C 15.400414,12.159842 15.132637,12.4 14.504537,12.4 c -0.624767,0 -0.890475,-0.24127 -1.4352,-0.785994 -0.605868,-0.606979 -1.437441,-1.437372 -3.009362,-1.437372 z m 0,5.558414 c -1.5719194,0 -2.4013217,0.830394 -3.0071888,1.437371 -0.5447248,0.544726 -0.8115465,0.785996 -1.4352006,0.785996 -0.623654,0 -0.8904747,-0.24127 -1.4351993,-0.785996 -0.070825,-0.07095 -0.1458572,-0.143921 -0.2236395,-0.219296 a 9.410003,9.410003 0 0 0 2.9377089,3.015875 c 0.7927423,-0.28658 1.3129311,-0.808437 1.728319,-1.22459 0.5447249,-0.544723 0.8115465,-0.785993 1.4352003,-0.785993 0.623654,0 0.892648,0.24127 1.437372,0.785993 0.605867,0.60698 1.435271,1.437373 3.00719,1.437373 1.57303,0 2.405613,-0.830393 3.013703,-1.437373 0.545836,-0.544723 0.813665,-0.785993 1.439542,-0.785993 0.130634,0 0.246516,0.01107 0.351744,0.03257 a 9.410003,9.410003 0 0 0 1.207219,-1.928076 c -0.423983,-0.196948 -0.932315,-0.32786 -1.558963,-0.32786 -1.57303,0 -2.40344,0.831504 -3.011533,1.437371 -0.545835,0.545837 -0.813612,0.785995 -1.441712,0.785995 -0.624766,0 -0.890474,-0.241269 -1.435199,-0.785995 -0.605868,-0.606978 -1.437441,-1.437371 -3.009363,-1.437372 z" />
</svg>
