<?xml version="1.0" encoding="UTF-8" standalone="no"?>
<!-- Generator: Adobe Illustrator 24.0.1, SVG Export Plug-In . SVG Version: 6.00 Build 0)  -->

<svg
   xmlns:dc="http://purl.org/dc/elements/1.1/"
   xmlns:cc="http://creativecommons.org/ns#"
   xmlns:rdf="http://www.w3.org/1999/02/22-rdf-syntax-ns#"
   xmlns:svg="http://www.w3.org/2000/svg"
   xmlns="http://www.w3.org/2000/svg"
   xmlns:sodipodi="http://sodipodi.sourceforge.net/DTD/sodipodi-0.dtd"
   xmlns:inkscape="http://www.inkscape.org/namespaces/inkscape"
   version="1.1"
   id="Calque_1"
   x="0px"
   y="0px"
   viewBox="0 0 100 105"
   xml:space="preserve"
   sodipodi:docname="logo-FISHOLA-logo-negatif.svg"
   width="100"
   height="105"
   inkscape:version="0.92.4 5da689c313, 2019-01-14"><metadata
   id="metadata70"><rdf:RDF><cc:Work
       rdf:about=""><dc:format>image/svg+xml</dc:format><dc:type
         rdf:resource="http://purl.org/dc/dcmitype/StillImage" /><dc:title></dc:title></cc:Work></rdf:RDF></metadata><defs
   id="defs68">
	
	
	
</defs><sodipodi:namedview
   pagecolor="#ffffff"
   bordercolor="#666666"
   borderopacity="1"
   objecttolerance="10"
   gridtolerance="10"
   guidetolerance="10"
   inkscape:pageopacity="0"
   inkscape:pageshadow="2"
   inkscape:window-width="2560"
   inkscape:window-height="1031"
   id="namedview66"
   showgrid="false"
   inkscape:zoom="2.1316954"
   inkscape:cx="-85.269959"
   inkscape:cy="55.355"
   inkscape:window-x="0"
   inkscape:window-y="25"
   inkscape:window-maximized="1"
   inkscape:current-layer="Calque_1" />
<style
   type="text/css"
   id="style33">
	.st0{fill:#1A171B;}
	.st1{fill:#1E9BC4;}
</style>
<path
   style="fill:#ffffff;fill-opacity:1"
   inkscape:connector-curvature="0"
   id="path61"
   d="m 98.976001,43.61 c -0.19,-0.29 -4.68,-7.29 -12.95,-14.43 -4.2,-3.62 -9.27,-6.82 -14.95,-9.12 -0.87,-11.0800001 -10.14,-19.82999999 -21.43,-19.82999999 -11.87,0 -21.52,9.64999999 -21.52,21.51999999 v 1.33 c -3.22,1.83 -6.44,4.08 -9.64,6.79 0,0 -0.01,0.01 -0.01,0.01 -5.24,4.55 -8.5499995,9.15 -10.2199995,11.77 -1.27,-2.27 -3.21,-6.01 -4.07,-9.17 -0.06,-0.2 -0.11,-0.38 -0.15,-0.57 -0.2,-0.89 -1.08,-1.45 -1.97,-1.26 -0.89,0.2 -1.45000001,1.08 -1.26000001,1.97 0.05,0.25 0.12,0.49 0.19,0.74 1.18000001,4.27 3.98000001,9.25 5.15000001,11.24 -1.17,1.99 -3.95,6.98 -5.12,11.26 -0.07,0.25 -0.13000001,0.5 -0.18000001,0.74 -0.19,0.89 0.38000001,1.77 1.27000001,1.96 0.12,0.02 0.23,0.04 0.35,0.04 0.76,0 1.45,-0.53 1.61,-1.31 0.04,-0.19 0.09,-0.38 0.14,-0.57 0.87,-3.19 2.82,-6.96 4.08,-9.23 2.5799995,3.9 9.0499995,12.37 19.8299995,18.26 v 23.9 c -3.63,0.58 -6.41,3.72 -6.41,7.510001 0,4.199999 3.42,7.609999 7.61,7.609999 4.19,0 7.61,-3.42 7.61,-7.609999 0,-3.470001 -2.34,-6.400001 -5.52,-7.310001 V 67.39 c 6.01,2.75 13.16,4.62 21.55,4.62 0.02,0 0.05,0 0.07,0 28.59,-0.03 45.24,-25.54 45.94,-26.63 0.34,-0.54 0.34,-1.23 0,-1.77 z m -65.33,53.540001 c 0,2.38 -1.93,4.309999 -4.31,4.309999 -2.38,0 -4.31,-1.939999 -4.31,-4.309999 0,-2.37 1.93,-4.310001 4.31,-4.310001 2.38,0 4.31,1.930001 4.31,4.310001 z m 16,-93.620001 c 9.04,0 16.54,6.63 17.95,15.27 -10.77,-3.49 -23.36,-3.64 -36.15,2.54 0.22,-9.85 8.29,-17.81 18.2,-17.81 z m -39.3,41.05 c 1.12,-1.92 4.46,-7.14 10.28,-12.2 2.49,-2.11 4.99,-3.91 7.5,-5.44 v 35.02 c -10.44,-6.21 -16.21,-14.8 -17.78,-17.38 z m 49.69,23.54 c -8.23,-9.72 -9.57,-23.94 -5.66,-35.79 0.97,-2.94 2.31,-5.75 4.1,-8.29 1.12,-1.58 -1.48,-3.08 -2.59,-1.51 -3.59,5.08 -5.48,11.26 -6.25,17.38 -0.87,6.87 -0.19,14.08 2.37,20.53 1.16,2.91 2.66,5.62 4.52,8.11 -1.15,0.1 -2.31,0.16 -3.5,0.16 -0.02,0 -0.04,0 -0.06,0 -8.49,0 -15.65,-2.05 -21.55,-4.97 V 25.06 c 12.94,-6.74 25.72,-6.46 36.43,-2.67 v 12.2 l -3.34,-3.34 c -0.65,-0.65 -1.69,-0.64 -2.33,0 -0.64,0.64 -0.64,1.69 0,2.33 l 6.16,6.15 c 0.03,0.03 0.06,0.04 0.09,0.07 0.04,0.05 0.08,0.11 0.13,0.16 0.32,0.32 0.74,0.48 1.17,0.48 0.42,0 0.84,-0.16 1.17,-0.48 l 6.49,-6.49 c 0.64,-0.64 0.64,-1.69 0,-2.33 -0.64,-0.64 -1.69,-0.65 -2.33,0 l -3.9,3.9 V 23.69 c 4.8,2.1 9.1,4.88 12.71,7.99 6.21,5.35 10.25,10.73 11.71,12.81 -2.86,4 -15.67,20.33 -35.54,23.63 z"
   class="st1" />
</svg>