<?xml version="1.0" encoding="UTF-8" standalone="no"?>
<!-- Generator: Adobe Illustrator 24.0.1, SVG Export Plug-In . SVG Version: 6.00 Build 0)  -->

<svg
   xmlns:dc="http://purl.org/dc/elements/1.1/"
   xmlns:cc="http://creativecommons.org/ns#"
   xmlns:rdf="http://www.w3.org/1999/02/22-rdf-syntax-ns#"
   xmlns:svg="http://www.w3.org/2000/svg"
   xmlns="http://www.w3.org/2000/svg"
   xmlns:sodipodi="http://sodipodi.sourceforge.net/DTD/sodipodi-0.dtd"
   xmlns:inkscape="http://www.inkscape.org/namespaces/inkscape"
   version="1.1"
   id="Calque_1"
   x="0px"
   y="0px"
   viewBox="0 0 165 34"
   xml:space="preserve"
   sodipodi:docname="logo-FISHOLA-nom.svg"
   width="165"
   height="34"
   inkscape:version="0.92.4 5da689c313, 2019-01-14"><metadata
   id="metadata39"><rdf:RDF><cc:Work
       rdf:about=""><dc:format>image/svg+xml</dc:format><dc:type
         rdf:resource="http://purl.org/dc/dcmitype/StillImage" /><dc:title></dc:title></cc:Work></rdf:RDF></metadata><defs
   id="defs37">
	
	
	
</defs><sodipodi:namedview
   pagecolor="#ffffff"
   bordercolor="#666666"
   borderopacity="1"
   objecttolerance="10"
   gridtolerance="10"
   guidetolerance="10"
   inkscape:pageopacity="0"
   inkscape:pageshadow="2"
   inkscape:window-width="2560"
   inkscape:window-height="1031"
   id="namedview35"
   showgrid="false"
   inkscape:zoom="2.1316954"
   inkscape:cx="8.7866309"
   inkscape:cy="55.355"
   inkscape:window-x="0"
   inkscape:window-y="25"
   inkscape:window-maximized="1"
   inkscape:current-layer="Calque_1" />
<style
   type="text/css"
   id="style2">
	.st0{fill:#1A171B;}
	.st1{fill:#1E9BC4;}
</style>
<g
   id="g873"
   transform="translate(-40.28,-0.350001)"><g
     transform="translate(0,-76.709999)"
     id="g20">
		<g
   id="g6">
			<path
   class="st0"
   d="m 43.64,80.78 v 15.44 h 11.81 v 2.01 H 43.64 v 11.29 H 41.63 V 78.81 h 17.41 v 1.97 z"
   id="path4"
   inkscape:connector-curvature="0"
   style="fill:#1a171b" />
		</g>
		<g
   id="g10">
			<path
   class="st0"
   d="m 64.73,78.77 h 2.01 v 30.75 h -2.01 z"
   id="path8"
   inkscape:connector-curvature="0"
   style="fill:#1a171b" />
		</g>
		<g
   id="g14">
			<path
   class="st0"
   d="m 86.86,107.46 -0.26,0.26 c -1.57,1.36 -3.63,2.14 -5.86,2.19 h -0.22 c -2.27,0 -4.37,-0.74 -6.04,-2.1 -1.49,-1.27 -2.45,-2.98 -2.71,-4.81 l 1.97,-0.31 c 0.18,1.36 0.92,2.62 2.06,3.59 2.71,2.23 6.95,2.19 9.58,-0.13 1.49,-1.49 2.27,-3.46 2.14,-5.47 -0.09,-1.97 -1.01,-3.67 -2.58,-4.81 -1.66,-1.22 -3.28,-1.57 -4.86,-1.97 -1.88,-0.44 -3.85,-0.87 -5.6,-2.67 -1.66,-1.71 -2.58,-3.76 -2.49,-5.82 0.09,-1.84 0.88,-3.54 2.36,-4.94 1.84,-1.57 3.85,-2.19 6.04,-2.19 2.28,0 4.42,0.79 6.04,2.23 1.05,0.92 1.79,2.1 2.19,3.32 l -2.01,0.31 C 86.3,83.35 85.82,82.61 85.12,82 82.54,79.73 78.38,79.68 75.8,81.87 c -1.14,1.05 -1.75,2.28 -1.79,3.63 -0.09,1.49 0.61,2.98 1.93,4.33 1.31,1.36 2.84,1.71 4.59,2.14 1.71,0.39 3.63,0.83 5.6,2.32 2.01,1.44 3.24,3.76 3.41,6.25 0.12,2.59 -0.84,5.08 -2.68,6.92 z"
   id="path12"
   inkscape:connector-curvature="0"
   style="fill:#1a171b" />
		</g>
		<g
   id="g18">
			<path
   class="st0"
   d="m 114.42,78.77 h 1.97 v 30.75 h -1.97 V 94.56 c -1.66,0.66 -4.72,1.53 -9.27,1.53 -4.55,0 -7.57,-0.87 -9.23,-1.53 v 14.96 H 93.91 V 78.77 h 2.01 v 13.6 c 1.05,0.53 4.07,1.75 9.23,1.75 3.5,0 5.99,-0.57 7.48,-1.05 0.83,-0.26 1.4,-0.52 1.79,-0.7 z"
   id="path16"
   inkscape:connector-curvature="0"
   style="fill:#1a171b" />
		</g>
	</g><g
     transform="translate(0,-76.709999)"
     id="g28">
		<path
   class="st1"
   d="m 137.16,77.4 h -0.59 c -4.09,0.14 -7.93,1.88 -10.81,4.9 -3.04,3.13 -4.71,7.29 -4.71,11.74 0,4.47 1.67,8.66 4.7,11.78 2.89,3.02 6.73,4.76 10.84,4.9 h 0.58 0.01 c 4.04,-0.14 7.88,-1.88 10.81,-4.9 3,-3.14 4.66,-7.32 4.66,-11.78 0,-4.43 -1.66,-8.59 -4.66,-11.74 -2.92,-3.03 -6.76,-4.77 -10.83,-4.9 z m 12.11,16.63 c 0,7.16 -5.58,13.12 -12.39,13.28 -6.83,-0.16 -12.38,-6.12 -12.38,-13.28 0,-7.13 5.55,-13.07 12.37,-13.24 6.83,0.18 12.4,6.11 12.4,13.24 z"
   id="path22"
   inkscape:connector-curvature="0"
   style="fill:#1e9bc4" />
		<polygon
   class="st1"
   points="156.49,110.19 174.28,110.19 174.28,106.79 159.93,106.79 159.93,78.01 156.49,78.01 "
   id="polygon24"
   style="fill:#1e9bc4" />
		<path
   class="st1"
   d="m 191.24,78.05 h -2.33 l -12.45,32.18 h 3.68 l 2.24,-5.84 c 1.66,0.57 4.23,1.16 7.81,1.16 3.56,0 6.12,-0.56 7.77,-1.12 l 2.29,5.8 h 3.68 z m 5.45,23.22 c -1.24,0.41 -3.38,0.89 -6.5,0.89 -3.05,0 -5.13,-0.48 -6.39,-0.9 -0.05,-0.01 -0.11,-0.03 -0.16,-0.04 L 190.1,84.5 Z"
   id="path26"
   inkscape:connector-curvature="0"
   style="fill:#1e9bc4" />
	</g></g>
</svg>