<?xml version="1.0" encoding="UTF-8" standalone="no"?>
<!-- Generator: Adobe Illustrator 24.0.1, SVG Export Plug-In . SVG Version: 6.00 Build 0)  -->

<svg
   xmlns:dc="http://purl.org/dc/elements/1.1/"
   xmlns:cc="http://creativecommons.org/ns#"
   xmlns:rdf="http://www.w3.org/1999/02/22-rdf-syntax-ns#"
   xmlns:svg="http://www.w3.org/2000/svg"
   xmlns="http://www.w3.org/2000/svg"
   xmlns:sodipodi="http://sodipodi.sourceforge.net/DTD/sodipodi-0.dtd"
   xmlns:inkscape="http://www.inkscape.org/namespaces/inkscape"
   version="1.1"
   id="Calque_1"
   x="0px"
   y="0px"
   viewBox="0 0 165 34"
   xml:space="preserve"
   sodipodi:docname="logo-FISHOLA-nom-negatif.svg"
   width="165"
   height="34"
   inkscape:version="0.92.4 5da689c313, 2019-01-14"><metadata
   id="metadata39"><rdf:RDF><cc:Work
       rdf:about=""><dc:format>image/svg+xml</dc:format><dc:type
         rdf:resource="http://purl.org/dc/dcmitype/StillImage" /><dc:title></dc:title></cc:Work></rdf:RDF></metadata><defs
   id="defs37">
	
	
	

		
		
		
	
		
		
		
		
	
			
		
			
		
			
		
			
		</defs><sodipodi:namedview
   pagecolor="#ffffff"
   bordercolor="#666666"
   borderopacity="1"
   objecttolerance="10"
   gridtolerance="10"
   guidetolerance="10"
   inkscape:pageopacity="0"
   inkscape:pageshadow="2"
   inkscape:window-width="2560"
   inkscape:window-height="1031"
   id="namedview35"
   showgrid="false"
   inkscape:zoom="6.0293451"
   inkscape:cx="92.881703"
   inkscape:cy="30.081986"
   inkscape:window-x="0"
   inkscape:window-y="25"
   inkscape:window-maximized="1"
   inkscape:current-layer="Calque_1" />
<style
   type="text/css"
   id="style2">
	.st0{fill:#1A171B;}
	.st1{fill:#1E9BC4;}
</style>
<g
   id="g870"><g
     id="g863"><path
       style="fill:#1a171b"
       inkscape:connector-curvature="0"
       id="path4"
       d="m 3.36,3.72 v 15.44 h 11.81 v 2.01 H 3.36 V 32.46 H 1.35 V 1.75 h 17.41 v 1.97 z"
       class="st0" /><path
       style="fill:#1a171b"
       inkscape:connector-curvature="0"
       id="path8"
       d="m 24.45,1.71 h 2.01 v 30.75 h -2.01 z"
       class="st0" /><path
       style="fill:#1a171b"
       inkscape:connector-curvature="0"
       id="path12"
       d="m 46.58,30.4 -0.26,0.26 c -1.57,1.36 -3.63,2.14 -5.86,2.19 h -0.22 c -2.27,0 -4.37,-0.74 -6.04,-2.1 -1.49,-1.27 -2.45,-2.98 -2.71,-4.81 l 1.97,-0.31 c 0.18,1.36 0.92,2.62 2.06,3.59 2.71,2.23 6.95,2.19 9.58,-0.13 1.49,-1.49 2.27,-3.46 2.14,-5.47 C 47.15,21.65 46.23,19.95 44.66,18.81 43,17.59 41.38,17.24 39.8,16.84 37.92,16.4 35.95,15.97 34.2,14.17 32.54,12.46 31.62,10.41 31.71,8.35 31.8,6.51 32.59,4.81 34.07,3.41 c 1.84,-1.57 3.85,-2.19 6.04,-2.19 2.28,0 4.42,0.79 6.04,2.23 1.05,0.92 1.79,2.1 2.19,3.32 L 46.33,7.08 C 46.02,6.29 45.54,5.55 44.84,4.94 42.26,2.67 38.1,2.62 35.52,4.81 c -1.14,1.05 -1.75,2.28 -1.79,3.63 -0.09,1.49 0.61,2.98 1.93,4.33 1.31,1.36 2.84,1.71 4.59,2.14 1.71,0.39 3.63,0.83 5.6,2.32 2.01,1.44 3.24,3.76 3.41,6.25 0.12,2.59 -0.84,5.08 -2.68,6.92 z"
       class="st0" /><path
       style="fill:#1a171b"
       inkscape:connector-curvature="0"
       id="path16"
       d="m 74.14,1.71 h 1.97 V 32.46 H 74.14 V 17.5 c -1.66,0.66 -4.72,1.53 -9.27,1.53 -4.55,0 -7.57,-0.87 -9.23,-1.53 V 32.46 H 53.63 V 1.71 h 2.01 v 13.6 c 1.05,0.53 4.07,1.75 9.23,1.75 3.5,0 5.99,-0.57 7.48,-1.05 0.83,-0.26 1.4,-0.52 1.79,-0.7 z"
       class="st0" /></g></g><g
   id="g845"><path
     style="fill:#ffffff;fill-opacity:1"
     inkscape:connector-curvature="0"
     id="path22"
     d="m 96.88,0.34 h -0.59 c -4.09,0.14 -7.93,1.88 -10.81,4.9 -3.04,3.13 -4.71,7.29 -4.71,11.74 0,4.47 1.67,8.66 4.7,11.78 2.89,3.02 6.73,4.76 10.84,4.9 h 0.58 0.01 c 4.04,-0.14 7.88,-1.88 10.81,-4.9 3,-3.14 4.66,-7.32 4.66,-11.78 0,-4.43 -1.66,-8.59 -4.66,-11.74 -2.92,-3.03 -6.76,-4.77 -10.83,-4.9 z m 12.11,16.63 c 0,7.16 -5.58,13.12 -12.39,13.28 -6.83,-0.16 -12.38,-6.12 -12.38,-13.28 0,-7.13 5.55,-13.07 12.37,-13.24 6.83,0.18 12.4,6.11 12.4,13.24 z"
     class="st1" /><polygon
     transform="translate(-40.28,-77.06)"
     style="fill:#ffffff;fill-opacity:1"
     id="polygon24"
     points="159.93,78.01 156.49,78.01 156.49,110.19 174.28,110.19 174.28,106.79 159.93,106.79 "
     class="st1" /><path
     style="fill:#ffffff;fill-opacity:1"
     inkscape:connector-curvature="0"
     id="path26"
     d="m 150.96,0.99 h -2.33 l -12.45,32.18 h 3.68 l 2.24,-5.84 c 1.66,0.57 4.23,1.16 7.81,1.16 3.56,0 6.12,-0.56 7.77,-1.12 l 2.29,5.8 h 3.68 z m 5.45,23.22 c -1.24,0.41 -3.38,0.89 -6.5,0.89 -3.05,0 -5.13,-0.48 -6.39,-0.9 -0.05,-0.01 -0.11,-0.03 -0.16,-0.04 l 6.46,-16.72 z"
     class="st1" /></g>
</svg>