<svg width="152" height="80" viewBox="0 0 152 80" fill="none" xmlns="http://www.w3.org/2000/svg">
<path d="M42.1993 69.6568V69.5068H42.0493H33.6116V58.5795H44.6598H44.8098V58.4295V56.9969V56.8469H44.6598H32H31.85V56.9969V79.328V79.478H32H33.4616H33.6116V79.328V71.2684H42.0493H42.1993V71.1184V69.6568Z" fill="#2D3436" stroke="#2D3436" stroke-width="0.3"/>
<path d="M48.7974 56.8178H48.6474V56.9678V79.3279V79.4779H48.7974H50.259H50.409V79.3279V56.9678V56.8178H50.259H48.7974Z" fill="#2D3436" stroke="#2D3436" stroke-width="0.3"/>
<path d="M64.7988 78.1326L64.7986 78.1324C63.6291 79.1454 62.0971 79.7243 60.4426 79.7614L60.4392 79.7615V79.7614H60.2793C58.5954 79.7614 57.0346 79.2123 55.7925 78.2007L55.7899 78.1986L55.7899 78.1986C54.6802 77.2527 53.9626 75.9768 53.7681 74.6079L53.7473 74.4616L53.8933 74.4386L55.3258 74.2132L55.4777 74.1893L55.4978 74.3417C55.6231 75.2883 56.139 76.1721 56.9433 76.8568C58.8569 78.4306 61.8543 78.4021 63.7105 76.7679C64.7634 75.7133 65.3111 74.3236 65.2197 72.9095L65.2195 72.9066C65.1561 71.5195 64.5097 70.3256 63.4052 69.5235L63.4045 69.523C62.3006 68.7118 61.224 68.4417 60.1446 68.1709C60.071 68.1525 59.9974 68.134 59.9238 68.1154C59.8923 68.108 59.8608 68.1007 59.8292 68.0933C58.4922 67.781 57.0559 67.4454 55.7797 66.1327L55.7796 66.1326C54.551 64.867 53.8591 63.3381 53.9267 61.7895L53.9268 61.7888H53.9268C53.9942 60.4096 54.5872 59.1378 55.6896 58.095L55.6952 58.0897L55.6953 58.0898C57.0632 56.9227 58.5603 56.4615 60.1847 56.4615C61.8771 56.4615 63.4691 57.0479 64.676 58.1205C65.4606 58.8081 66.013 59.6893 66.3118 60.6004L66.3669 60.7685L66.1921 60.7954L64.7305 61.0208L64.6119 61.0391L64.568 60.9274C64.3503 60.3726 64.0143 59.8554 63.5256 59.4296L63.5251 59.4291C61.7048 57.8275 58.765 57.7928 56.9465 59.3343C56.1436 60.0747 55.7231 60.9319 55.6954 61.866L55.6953 61.8706L55.6952 61.8706C55.6331 62.8982 56.1148 63.9425 57.0561 64.9053L57.0569 64.9061C57.9563 65.8398 59.0003 66.096 60.2451 66.4016C60.2703 66.4078 60.2957 66.414 60.3211 66.4203C60.3215 66.4204 60.3219 66.4205 60.3223 66.4206L64.7988 78.1326ZM64.7988 78.1326L64.8064 78.125L64.9952 77.9363C64.9953 77.9362 64.9953 77.9362 64.9954 77.9361C66.3636 76.5752 67.0772 74.7161 66.9881 72.791L66.9881 72.791L66.9879 72.7878C66.8614 70.9359 65.9468 69.2073 64.4475 68.1324L64.7988 78.1326Z" fill="#2D3436" stroke="#2D3436" stroke-width="0.3"/>
<path d="M84.9299 56.8178H84.7799V56.9678V66.761C84.5031 66.8876 84.1191 67.0552 83.5834 67.223L83.5823 67.2234C82.5126 67.5679 80.7175 67.9796 78.1891 67.9796C74.5905 67.9796 72.4408 67.1584 71.6275 66.764V56.9678V56.8178H71.4775H70.0159H69.8659V56.9678V79.3279V79.4779H70.0159H71.4775H71.6275V79.3279V68.6684C72.8866 69.142 75.0392 69.7121 78.1891 69.7121C81.3391 69.7121 83.5178 69.142 84.7799 68.6683V79.3279V79.4779H84.9299H86.3624H86.5124V79.3279V56.9678V56.8178H86.3624H84.9299Z" fill="#2D3436" stroke="#2D3436" stroke-width="0.3"/>
<path d="M103.578 56.0542H103.152C100.213 56.1446 97.4564 57.347 95.3795 59.4323C93.2013 61.587 92 64.4715 92 67.5368C92 70.623 93.2013 73.5145 95.3795 75.6692C97.4564 77.7544 100.213 78.9569 103.166 79.0542H103.586H103.593C106.495 78.9569 109.252 77.7614 111.365 75.6692C113.521 73.5006 114.716 70.6091 114.716 67.5368C114.716 64.4785 113.529 61.6009 111.365 59.4323C109.252 57.347 106.495 56.1446 103.578 56.0542ZM112.422 67.5368C112.422 72.5553 108.347 76.7326 103.369 76.8508C98.3826 76.7326 94.3229 72.5553 94.3229 67.5368C94.3229 62.5392 98.3754 58.3757 103.354 58.2576C108.355 58.3757 112.422 62.5392 112.422 67.5368Z" fill="white"/>
<path d="M119.969 56.4783H117.639V78.6859H130.346V76.4895H119.969V56.4783Z" fill="white"/>
<path d="M142.656 56.5129H141.078L132.134 78.7205H134.616L136.244 74.6405C137.438 75.0436 139.312 75.4676 141.947 75.4676C144.566 75.4676 146.433 75.0645 147.62 74.6683L149.284 78.7205H151.767L142.656 56.5129ZM146.759 72.6178C145.869 72.9097 144.284 73.2642 141.939 73.2642C139.718 73.2642 138.205 72.9306 137.293 72.6387C137.221 72.6248 137.156 72.6039 137.091 72.583L141.874 60.6903L146.759 72.6178Z" fill="white"/>
<path d="M71.0032 31.3704C70.8657 31.1606 67.6165 26.095 61.6391 20.9353C58.5998 18.3157 54.9236 16 50.806 14.3356C50.1909 6.33198 43.4899 0 35.3343 0C26.7662 0 19.7974 6.96879 19.7974 15.5369V16.521C17.4672 17.8453 15.1298 19.4735 12.8069 21.4419L12.7997 21.4491C8.97878 24.7635 6.57625 28.1212 5.38222 30.01C4.46318 28.3745 3.03758 25.6318 2.40076 23.3161C2.35734 23.1714 2.32116 23.0412 2.29221 22.9037C2.15472 22.2813 1.53961 21.8833 0.910034 22.0208C0.287691 22.1583 -0.110319 22.7734 0.0271752 23.403C0.0633579 23.5839 0.114014 23.7576 0.16467 23.9385C1.01135 27.0357 3.05205 30.654 3.89149 32.0796C3.05205 33.5052 1.02582 37.1307 0.179143 40.2352C0.128487 40.4161 0.0850675 40.597 0.0416483 40.7779C-0.0886095 41.4003 0.3094 42.0154 0.931743 42.1529C1.01135 42.1673 1.09095 42.1818 1.17779 42.1818C1.71329 42.1818 2.1909 41.8128 2.30669 41.2628C2.33563 41.1253 2.37182 40.9878 2.408 40.8503C3.04481 38.5201 4.47765 35.7485 5.39669 34.1131C7.24201 36.9136 11.9385 43.0936 19.7902 47.3704V64.7164C17.1705 65.1217 15.1516 67.3867 15.1516 70.1221C15.1516 73.1398 17.6047 75.5929 20.6224 75.5929C23.64 75.5929 26.0932 73.1398 26.0932 70.1221C26.0932 67.6183 24.3999 65.5052 22.0986 64.8539V48.5066C26.455 50.5038 31.6436 51.8716 37.7296 51.8716C37.744 51.8716 37.7658 51.8716 37.7802 51.8716C58.4478 51.8426 70.4822 33.4039 70.9887 32.6151C71.242 32.2388 71.242 31.754 71.0032 31.3704ZM6.85124 32.0579C7.65449 30.6829 10.0787 26.8838 14.3121 23.2004C16.1357 21.659 17.9666 20.3419 19.7974 19.2275V44.7001C12.1773 40.1845 7.9729 33.9104 6.85124 32.0579ZM23.792 70.1004C23.792 71.8444 22.3736 73.2555 20.6369 73.2555C18.8928 73.2555 17.4817 71.8372 17.4817 70.1004C17.4817 68.3636 18.9001 66.9453 20.6369 66.9453C22.3736 66.9453 23.792 68.3636 23.792 70.1004ZM35.3343 2.31569C41.9123 2.31569 47.3687 7.14971 48.3673 13.4527C40.5591 10.9055 31.4121 10.7969 22.1276 15.2981C22.2506 8.1194 28.1194 2.31569 35.3343 2.31569ZM42.759 49.1506C36.7961 42.0877 35.8191 31.7684 38.6558 23.1714C39.365 21.0294 40.3347 18.9887 41.6373 17.1506C42.361 16.123 40.6676 15.1461 39.9512 16.1664C37.3677 19.8281 36 24.2786 35.4428 28.6857C34.8132 33.6427 35.3053 38.853 37.1579 43.5133C38.0046 45.6409 39.1118 47.6237 40.4795 49.4328C39.5966 49.5124 38.7065 49.5559 37.7947 49.5631C37.7802 49.5631 37.7658 49.5631 37.7513 49.5631C31.5857 49.5631 26.3971 48.0724 22.1203 45.9521V17.9104C31.5061 13.0185 40.7834 13.2212 48.5554 15.9711V24.9154L46.0661 22.4333C45.6102 21.9774 44.8793 21.9846 44.4306 22.4333C43.9819 22.882 43.9819 23.6201 44.4306 24.0687L48.8883 28.5192C48.91 28.5409 48.9317 28.5482 48.9535 28.5699C48.9824 28.6061 49.0113 28.6495 49.0475 28.6857C49.2719 28.91 49.5686 29.0258 49.8653 29.0258C50.162 29.0258 50.4587 28.91 50.683 28.6857L55.3795 23.9891C55.8282 23.5405 55.8282 22.8024 55.3795 22.3537C54.9308 21.905 54.1927 21.905 53.744 22.3537L50.8567 25.2338V16.8829C54.3519 18.4025 57.4853 20.4288 60.1122 22.6938C64.6278 26.5871 67.5658 30.502 68.6079 31.9855C66.5672 34.8584 57.2465 46.7915 42.759 49.1506Z" fill="white"/>
</svg>
