<svg width="129" height="30" viewBox="0 0 129 30" fill="none" xmlns="http://www.w3.org/2000/svg">
<path d="M43.0108 16.2072V16.0572H42.8608H36.2948V7.58393H44.9011H45.0511V7.43393V6.31177V6.16177H44.9011H35H34.85V6.31177V23.7734V23.9234H35H36.1448H36.2948V23.7734V17.5021H42.8608H43.0108V17.3521V16.2072Z" fill="#2D3436" stroke="#2D3436" stroke-width="0.3"/>
<path d="M48.1372 6.13345H47.9872V6.28345V23.7734V23.9234H48.1372H49.282H49.432V23.7734V6.28345V6.13345H49.282H48.1372Z" fill="#2D3436" stroke="#2D3436" stroke-width="0.3"/>
<path d="M60.8308 22.712L60.8311 22.7117C61.9033 21.6336 62.4691 20.176 62.3992 18.6657L62.3992 18.6657L62.399 18.6625C62.2998 17.1987 61.5825 15.8423 60.4001 14.9928C59.2529 14.1242 58.1334 13.8689 57.1655 13.6481L57.1608 13.647C57.1358 13.6408 57.111 13.6346 57.0862 13.6284C56.1164 13.3863 55.3166 13.1867 54.621 12.4702C53.8962 11.7177 53.5215 10.9065 53.5691 10.1181L53.5692 10.1181L53.5693 10.1135C53.5905 9.39085 53.9184 8.7308 54.5389 8.15847C55.9493 6.96258 58.2274 6.98927 59.6395 8.23236L59.6401 8.23286C60.016 8.56048 60.2752 8.96437 60.4434 9.39308L60.4873 9.50474L60.6058 9.48655L61.7507 9.31085L61.9252 9.28408L61.8706 9.1162C61.6359 8.39469 61.1964 7.69708 60.5803 7.15716C59.6275 6.3098 58.3731 5.85012 57.0466 5.85012C55.768 5.85012 54.5873 6.21178 53.5143 7.13317L53.5142 7.13306L53.5093 7.13766C52.638 7.95635 52.172 8.96714 52.119 10.0507L52.119 10.0507L52.119 10.0515C52.0658 11.2751 52.6099 12.481 53.5784 13.4727L53.5785 13.4727C54.5938 14.5111 55.7314 14.7757 56.7862 15.0211C56.8027 15.0249 56.8191 15.0287 56.8355 15.0325C56.892 15.0469 56.9486 15.061 57.005 15.0752C57.8472 15.2865 58.6813 15.4958 59.542 16.1297L59.5432 16.1306C60.4008 16.7494 60.9 17.6816 60.949 18.7532L60.949 18.7532L60.9491 18.756C61.0198 19.8532 60.5916 20.9327 59.7775 21.7485C58.3433 23.0159 56.0148 23.0383 54.5301 21.8165C53.909 21.2876 53.5115 20.6004 53.415 19.8715L53.3949 19.7192L53.2431 19.743L52.121 19.9187L51.975 19.9415L51.9956 20.0879C52.1484 21.1691 52.7178 22.1764 53.5884 22.9184L53.5884 22.9185L53.591 22.9206C54.5651 23.7138 55.7946 24.1501 57.1202 24.1501H57.2449V24.1502L57.2483 24.1501C58.5512 24.121 59.7524 23.6613 60.6753 22.867L60.6755 22.8673L60.6835 22.8593L60.8308 22.712Z" fill="#2D3436" stroke="#2D3436" stroke-width="0.3"/>
<path d="M77.6676 6.28345V6.13345H77.5176H76.9688H76.4011H76.2511V6.28345V13.9266C76.2386 13.932 76.2259 13.9376 76.213 13.9432C75.9968 14.0375 75.7166 14.1596 75.3361 14.2788L75.3352 14.2791C74.4988 14.5468 73.0973 14.8671 71.1246 14.8671C68.3414 14.8671 66.6706 14.2354 66.0265 13.9262V6.28345V6.13345H65.8765H64.7317H64.5817V6.28345V23.7734V23.9234H64.7317H65.8765H66.0265V23.7734V15.4843C67.022 15.8519 68.6956 16.2892 71.1246 16.2892C73.5537 16.2892 75.2471 15.8519 76.2454 15.4842V23.7734V23.9234H76.3954H77.5176H77.6676V23.7734V6.28345Z" fill="#2D3436" stroke="#2D3436" stroke-width="0.3"/>
<path d="M91.9059 6H91.5793C89.3155 6.0757 87.1956 7.01652 85.6015 8.64404C83.9244 10.3364 83 12.5858 83 14.9865C83 17.4034 83.9244 19.6636 85.6015 21.3506C87.1956 22.9835 89.321 23.9243 91.5959 24H91.917H91.9225C94.1587 23.9297 96.2841 22.9889 97.9059 21.3506C99.5664 19.6527 100.485 17.3926 100.485 14.9865C100.485 12.5966 99.572 10.3418 97.9059 8.64404C96.2786 7.01652 94.1531 6.0757 91.9059 6ZM98.6642 14.9919C98.6642 18.8958 95.5535 22.1454 91.7454 22.2373C87.9317 22.1454 84.8321 18.9012 84.8321 14.9919C84.8321 11.1042 87.9262 7.86542 91.7343 7.77351C95.559 7.86542 98.6642 11.1042 98.6642 14.9919Z" fill="white"/>
<path d="M104.509 6.33521H102.672V23.7242H112.48V21.9507H104.509V6.33521Z" fill="white"/>
<path d="M121.911 6.35681H120.666L113.78 23.7458H115.745L116.991 20.5719C117.91 20.8855 119.343 21.2099 121.352 21.2099C123.351 21.2099 124.773 20.8963 125.686 20.5935L126.959 23.7512H128.924L121.911 6.35681ZM125.011 18.939C124.325 19.1607 123.124 19.4364 121.352 19.4364C119.653 19.4364 118.496 19.1769 117.793 18.9498C117.749 18.939 117.705 18.9282 117.666 18.9119L121.308 9.71998L125.011 18.939Z" fill="white"/>
<path d="M15 30C23.2843 30 30 23.2843 30 15C30 6.71573 23.2843 0 15 0C6.71573 0 0 6.71573 0 15C0 23.2843 6.71573 30 15 30Z" fill="white"/>
<path d="M27.5784 12.6616C27.53 12.5924 26.4299 10.8696 24.4027 9.12604C23.3995 8.26119 22.1887 7.4932 20.8395 6.93278C20.5697 4.20676 18.2657 2.06885 15.4705 2.06885C12.4954 2.06885 10.0738 4.49043 10.0738 7.46553V7.68001C9.31969 8.12282 8.55862 8.64865 7.80446 9.2921C7.80446 9.2921 7.80446 9.2921 7.79755 9.29901C6.66978 10.2746 5.91563 11.264 5.4659 11.9282C5.17531 11.3885 4.81553 10.6551 4.64256 10.0186C4.62873 9.97706 4.62181 9.93555 4.60797 9.89403C4.53878 9.57577 4.22052 9.37512 3.90917 9.44431C3.5909 9.50658 3.39026 9.82484 3.45945 10.1362C3.47328 10.1985 3.48712 10.2607 3.50788 10.3299C3.77771 11.3193 4.40041 12.4609 4.71867 13.0006C4.40732 13.5403 3.78463 14.6819 3.5148 15.6782C3.49404 15.7404 3.4802 15.8096 3.46636 15.8719C3.39718 16.1902 3.59782 16.5015 3.91609 16.5707C3.9576 16.5776 3.99911 16.5845 4.04063 16.5845C4.31046 16.5845 4.55262 16.3977 4.61489 16.121C4.62181 16.0795 4.63564 16.0379 4.64948 15.9895C4.82245 15.353 5.18223 14.6196 5.47282 14.073C6.18546 15.1108 7.67993 16.9374 10.0738 18.2589V23.7593C9.18823 23.9738 8.52402 24.7764 8.52402 25.7312C8.52402 26.8521 9.4373 27.7653 10.5582 27.7653C11.679 27.7653 12.5923 26.8521 12.5923 25.7312C12.5923 24.8525 12.0319 24.1122 11.257 23.8285V18.8331C12.6753 19.4282 14.3427 19.8295 16.2869 19.8295C16.2939 19.8295 16.3008 19.8295 16.3008 19.8295C23.3234 19.8225 27.4124 13.561 27.5854 13.2912C27.703 13.0974 27.703 12.8553 27.5784 12.6616ZM6.17162 13.0006C6.47605 12.4886 7.25788 11.3262 8.56553 10.1915C9.06369 9.76949 9.56876 9.40972 10.0738 9.08453V16.8959C7.8529 15.4983 6.59367 13.6855 6.17162 13.0006ZM11.4092 25.7312C11.4092 26.2017 11.0217 26.5891 10.5512 26.5891C10.0808 26.5891 9.6933 26.2017 9.6933 25.7312C9.6933 25.2607 10.0808 24.8733 10.5512 24.8733C11.0217 24.8733 11.4092 25.2607 11.4092 25.7312ZM15.4705 3.24505C17.4562 3.24505 19.1237 4.62881 19.5734 6.47614C17.0757 5.73582 14.1975 5.7289 11.2708 7.06424C11.4714 4.9194 13.2773 3.24505 15.4705 3.24505ZM18.1412 18.4734C15.9894 15.865 15.8372 11.8451 17.3732 8.89772C17.7468 8.18508 16.6675 7.55547 16.3008 8.26811C14.6333 11.4646 14.7025 15.6228 16.7159 18.6256C16.5706 18.6325 16.4322 18.6463 16.2869 18.6463C16.28 18.6463 16.28 18.6463 16.2731 18.6463C14.2943 18.6463 12.62 18.1897 11.2431 17.5324V8.39957C14.239 6.87743 17.1933 6.91202 19.691 7.76304V10.1224L19.1998 9.63112C18.9714 9.4028 18.5978 9.4028 18.3695 9.63112C18.1412 9.85944 18.1412 10.2331 18.3695 10.4614L19.864 11.9489C19.8709 11.9558 19.8847 11.9628 19.8986 11.9766C19.9055 11.9835 19.9124 11.9974 19.9193 12.0043C20.0369 12.1219 20.1822 12.1772 20.3344 12.1772C20.4867 12.1772 20.632 12.1219 20.7496 12.0043L22.3201 10.4337C22.5485 10.2054 22.5485 9.83176 22.3201 9.60344C22.0918 9.37512 21.7182 9.37512 21.4899 9.60344L20.8672 10.2261V8.23352C21.905 8.71783 22.8391 9.32669 23.6347 10.0117C25.0254 11.2086 25.9594 12.4125 26.3607 12.9729C25.5651 14.0592 22.6177 17.65 18.1412 18.4734Z" fill="#1E9BC4"/>
</svg>
