<svg width="129" height="30" viewBox="0 0 129 30" fill="none" xmlns="http://www.w3.org/2000/svg">
<path fill-rule="evenodd" clip-rule="evenodd" d="M45.2011 7.73395H36.4448V15.9072H43.1608V17.6521H36.4448V24.0734H34.7V6.01178H45.2011V7.73395Z" fill="#2D3436"/>
<path fill-rule="evenodd" clip-rule="evenodd" d="M49.582 5.9834H47.8372V24.0733H49.582V5.9834Z" fill="#2D3436"/>
<path fill-rule="evenodd" clip-rule="evenodd" d="M60.7731 22.9806L60.7816 22.9733C61.9378 21.8172 62.6259 20.3157 62.5491 18.6587L62.5487 18.6523C62.4467 17.1473 61.7092 15.7492 60.4891 14.872C59.4812 14.1093 58.342 13.7841 57.1372 13.4865C56.1561 13.2414 55.3942 13.0511 54.7288 12.3658C54.0217 11.6316 53.6747 10.8593 53.719 10.1271L53.7192 10.1178C53.7391 9.44333 54.0435 8.82033 54.6383 8.2708C55.9913 7.12586 58.1841 7.15092 59.5404 8.3449L59.5416 8.34589C59.8967 8.65542 60.1431 9.03814 60.3038 9.44782L60.3915 9.67115L62.1224 9.40551L62.0132 9.06976C61.7707 8.32387 61.3166 7.60312 60.6796 7.0447C59.6979 6.17173 58.4076 5.70007 57.0466 5.70007C55.7363 5.70007 54.5196 6.07178 53.4164 7.01909L53.4066 7.02829C52.5085 7.87223 52.0242 8.919 51.9692 10.0434L51.9692 10.045C51.9138 11.3189 52.4808 12.5634 53.4712 13.5776C54.4364 14.5646 55.6709 14.9003 56.9647 15.2197C57.8091 15.4317 58.6168 15.6345 59.4531 16.2504L59.4554 16.2522C60.2753 16.8437 60.7522 17.7333 60.7991 18.76L60.7995 18.7656C60.867 19.8152 60.4584 20.852 59.6746 21.6392C58.2968 22.8534 56.0542 22.8755 54.6265 21.7014C54.0302 21.1934 53.6547 20.5387 53.5638 19.8518L53.5235 19.5472L51.8058 19.8162L51.8471 20.1088C52.0054 21.2285 52.5943 22.2682 53.4911 23.0326L53.4963 23.0369C54.4979 23.8525 55.7612 24.3001 57.1203 24.3001C58.443 24.3009 59.7664 23.8471 60.7731 22.9806Z" fill="#2D3436"/>
<path fill-rule="evenodd" clip-rule="evenodd" d="M77.8175 24.0733V5.9834H76.101V13.8283C75.8934 13.9185 75.635 14.028 75.2912 14.1356L75.2895 14.1362C74.4667 14.3995 73.0806 14.717 71.1246 14.717C68.4819 14.717 66.858 14.1429 66.1765 13.8308V5.9834H64.4316V24.0733H66.1765V15.6972C67.2045 16.0528 68.8329 16.4392 71.1246 16.4392C73.4167 16.4392 75.0627 16.0527 76.0954 15.6968V24.0733H77.8175Z" fill="#2D3436"/>
<path d="M91.9059 6H91.5793C89.3155 6.0757 87.1956 7.01652 85.6015 8.64404C83.9244 10.3364 83 12.5858 83 14.9865C83 17.4034 83.9244 19.6636 85.6015 21.3506C87.1956 22.9835 89.321 23.9243 91.5959 24H91.917H91.9225C94.1587 23.9297 96.2841 22.9889 97.9059 21.3506C99.5664 19.6527 100.485 17.3926 100.485 14.9865C100.485 12.5966 99.572 10.3418 97.9059 8.64404C96.2786 7.01652 94.1531 6.0757 91.9059 6ZM98.6642 14.9919C98.6642 18.8958 95.5535 22.1454 91.7454 22.2373C87.9317 22.1454 84.8321 18.9012 84.8321 14.9919C84.8321 11.1042 87.9262 7.86542 91.7343 7.77351C95.559 7.86542 98.6642 11.1042 98.6642 14.9919Z" fill="white"/>
<path d="M104.509 6.33521H102.672V23.7242H112.48V21.9507H104.509V6.33521Z" fill="white"/>
<path d="M121.911 6.35687H120.666L113.78 23.7459H115.745L116.991 20.572C117.91 20.8856 119.343 21.21 121.352 21.21C123.351 21.21 124.773 20.8964 125.686 20.5936L126.959 23.7513H128.924L121.911 6.35687ZM125.011 18.939C124.325 19.1607 123.124 19.4365 121.352 19.4365C119.653 19.4365 118.496 19.1769 117.793 18.9498C117.749 18.939 117.705 18.9282 117.666 18.912L121.308 9.72004L125.011 18.939Z" fill="white"/>
<path d="M15 30C23.2843 30 30 23.2843 30 15C30 6.71573 23.2843 0 15 0C6.71573 0 0 6.71573 0 15C0 23.2843 6.71573 30 15 30Z" fill="white"/>
<path d="M27.5784 12.6615C27.53 12.5923 26.4299 10.8695 24.4027 9.12598C23.3995 8.26113 22.1887 7.49314 20.8395 6.93272C20.5697 4.2067 18.2657 2.06879 15.4705 2.06879C12.4954 2.06879 10.0738 4.49037 10.0738 7.46547V7.67995C9.31969 8.12275 8.55862 8.64858 7.80446 9.29203C7.80446 9.29203 7.80446 9.29203 7.79755 9.29895C6.66978 10.2745 5.91563 11.2639 5.4659 11.9281C5.17531 11.3884 4.81553 10.655 4.64256 10.0185C4.62873 9.977 4.62181 9.93548 4.60797 9.89397C4.53878 9.57571 4.22052 9.37506 3.90917 9.44425C3.5909 9.50652 3.39026 9.82478 3.45945 10.1361C3.47328 10.1984 3.48712 10.2607 3.50788 10.3299C3.77771 11.3192 4.40041 12.4609 4.71867 13.0005C4.40732 13.5402 3.78463 14.6818 3.5148 15.6781C3.49404 15.7404 3.4802 15.8096 3.46636 15.8718C3.39718 16.1901 3.59782 16.5014 3.91609 16.5706C3.9576 16.5776 3.99911 16.5845 4.04063 16.5845C4.31046 16.5845 4.55262 16.3977 4.61489 16.1209C4.62181 16.0794 4.63564 16.0379 4.64948 15.9895C4.82245 15.3529 5.18223 14.6195 5.47282 14.0729C6.18546 15.1108 7.67993 16.9373 10.0738 18.2588V23.7593C9.18823 23.9738 8.52402 24.7764 8.52402 25.7311C8.52402 26.852 9.4373 27.7653 10.5582 27.7653C11.679 27.7653 12.5923 26.852 12.5923 25.7311C12.5923 24.8525 12.0319 24.1121 11.257 23.8285V18.8331C12.6753 19.4281 14.3427 19.8294 16.2869 19.8294C16.2939 19.8294 16.3008 19.8294 16.3008 19.8294C23.3234 19.8225 27.4124 13.5609 27.5854 13.2911C27.703 13.0974 27.703 12.8552 27.5784 12.6615ZM6.17162 13.0005C6.47605 12.4885 7.25788 11.3262 8.56553 10.1915C9.06369 9.76943 9.56876 9.40965 10.0738 9.08447V16.8958C7.8529 15.4982 6.59367 13.6855 6.17162 13.0005ZM11.4092 25.7311C11.4092 26.2016 11.0217 26.5891 10.5512 26.5891C10.0808 26.5891 9.6933 26.2016 9.6933 25.7311C9.6933 25.2607 10.0808 24.8732 10.5512 24.8732C11.0217 24.8732 11.4092 25.2607 11.4092 25.7311ZM15.4705 3.24499C17.4562 3.24499 19.1237 4.62875 19.5734 6.47607C17.0757 5.73576 14.1975 5.72884 11.2708 7.06417C11.4714 4.91934 13.2773 3.24499 15.4705 3.24499ZM18.1412 18.4733C15.9894 15.8649 15.8372 11.8451 17.3732 8.89766C17.7468 8.18502 16.6675 7.55541 16.3008 8.26805C14.6333 11.4645 14.7025 15.6228 16.7159 18.6255C16.5706 18.6324 16.4322 18.6463 16.2869 18.6463C16.28 18.6463 16.28 18.6463 16.2731 18.6463C14.2943 18.6463 12.62 18.1896 11.2431 17.5323V8.39951C14.239 6.87737 17.1933 6.91196 19.691 7.76298V10.1223L19.1998 9.63106C18.9714 9.40274 18.5978 9.40274 18.3695 9.63106C18.1412 9.85938 18.1412 10.233 18.3695 10.4613L19.864 11.9489C19.8709 11.9558 19.8847 11.9627 19.8986 11.9765C19.9055 11.9835 19.9124 11.9973 19.9193 12.0042C20.0369 12.1218 20.1822 12.1772 20.3344 12.1772C20.4867 12.1772 20.632 12.1218 20.7496 12.0042L22.3201 10.4336C22.5485 10.2053 22.5485 9.8317 22.3201 9.60338C22.0918 9.37506 21.7182 9.37506 21.4899 9.60338L20.8672 10.2261V8.23345C21.905 8.71777 22.8391 9.32663 23.6347 10.0116C25.0254 11.2085 25.9594 12.4124 26.3607 12.9728C25.5651 14.0591 22.6177 17.65 18.1412 18.4733Z" fill="#1E9BC4"/>
</svg>
