<?xml version="1.0" encoding="utf-8"?>
<!-- Generator: Adobe Illustrator 24.0.1, SVG Export Plug-In . SVG Version: 6.00 Build 0)  -->
<svg version="1.1" id="Calque_1" xmlns="http://www.w3.org/2000/svg" xmlns:xlink="http://www.w3.org/1999/xlink" x="0px" y="0px"
	 viewBox="0 0 203.81 110.71" style="enable-background:new 0 0 203.81 110.71;" xml:space="preserve">
<style type="text/css">
	.st0{fill:#1A171B;}
	.st1{fill:#1E9BC4;}
</style>
<g>
	<g>
		<g>
			<path class="st0" d="M43.64,80.78v15.44h11.81v2.01H43.64v11.29h-2.01V78.81h17.41v1.97H43.64z"/>
		</g>
		<g>
			<path class="st0" d="M64.73,78.77h2.01v30.75h-2.01V78.77z"/>
		</g>
		<g>
			<path class="st0" d="M86.86,107.46l-0.26,0.26c-1.57,1.36-3.63,2.14-5.86,2.19h-0.22c-2.27,0-4.37-0.74-6.04-2.1
				c-1.49-1.27-2.45-2.98-2.71-4.81l1.97-0.31c0.18,1.36,0.92,2.62,2.06,3.59c2.71,2.23,6.95,2.19,9.58-0.13
				c1.49-1.49,2.27-3.46,2.14-5.47c-0.09-1.97-1.01-3.67-2.58-4.81c-1.66-1.22-3.28-1.57-4.86-1.97c-1.88-0.44-3.85-0.87-5.6-2.67
				c-1.66-1.71-2.58-3.76-2.49-5.82c0.09-1.84,0.88-3.54,2.36-4.94c1.84-1.57,3.85-2.19,6.04-2.19c2.28,0,4.42,0.79,6.04,2.23
				c1.05,0.92,1.79,2.1,2.19,3.32l-2.01,0.31c-0.31-0.79-0.79-1.53-1.49-2.14c-2.58-2.27-6.74-2.32-9.32-0.13
				c-1.14,1.05-1.75,2.28-1.79,3.63c-0.09,1.49,0.61,2.98,1.93,4.33c1.31,1.36,2.84,1.71,4.59,2.14c1.71,0.39,3.63,0.83,5.6,2.32
				c2.01,1.44,3.24,3.76,3.41,6.25C89.66,103.13,88.7,105.62,86.86,107.46z"/>
		</g>
		<g>
			<path class="st0" d="M114.42,78.77h1.97v30.75h-1.97V94.56c-1.66,0.66-4.72,1.53-9.27,1.53c-4.55,0-7.57-0.87-9.23-1.53v14.96
				h-2.01V78.77h2.01v13.6c1.05,0.53,4.07,1.75,9.23,1.75c3.5,0,5.99-0.57,7.48-1.05c0.83-0.26,1.4-0.52,1.79-0.7V78.77z"/>
		</g>
	</g>
	<g>
		<path class="st1" d="M137.16,77.4l-0.59,0c-4.09,0.14-7.93,1.88-10.81,4.9c-3.04,3.13-4.71,7.29-4.71,11.74
			c0,4.47,1.67,8.66,4.7,11.78c2.89,3.02,6.73,4.76,10.84,4.9h0.58l0.01,0c4.04-0.14,7.88-1.88,10.81-4.9
			c3-3.14,4.66-7.32,4.66-11.78c0-4.43-1.66-8.59-4.66-11.74C145.07,79.27,141.23,77.53,137.16,77.4z M149.27,94.03
			c0,7.16-5.58,13.12-12.39,13.28c-6.83-0.16-12.38-6.12-12.38-13.28c0-7.13,5.55-13.07,12.37-13.24
			C143.7,80.97,149.27,86.9,149.27,94.03z"/>
		<polygon class="st1" points="159.93,78.01 156.49,78.01 156.49,110.19 174.28,110.19 174.28,106.79 159.93,106.79 		"/>
		<path class="st1" d="M191.24,78.05h-2.33l-12.45,32.18h3.68l2.24-5.84c1.66,0.57,4.23,1.16,7.81,1.16c3.56,0,6.12-0.56,7.77-1.12
			l2.29,5.8h3.68L191.24,78.05z M196.69,101.27c-1.24,0.41-3.38,0.89-6.5,0.89c-3.05,0-5.13-0.48-6.39-0.9
			c-0.05-0.01-0.11-0.03-0.16-0.04l6.46-16.72L196.69,101.27z"/>
	</g>
	<path class="st1" d="M98.2,43.38c-0.19-0.29-4.68-7.29-12.95-14.43c-4.2-3.62-9.27-6.82-14.95-9.12C69.43,8.75,60.16,0,48.87,0
		C37,0,27.35,9.65,27.35,21.52v1.33c-3.22,1.83-6.44,4.08-9.64,6.79c0,0-0.01,0.01-0.01,0.01C12.46,34.2,9.15,38.8,7.48,41.42
		c-1.27-2.27-3.21-6.01-4.07-9.17c-0.06-0.2-0.11-0.38-0.15-0.57c-0.2-0.89-1.08-1.45-1.97-1.26c-0.89,0.2-1.45,1.08-1.26,1.97
		c0.05,0.25,0.12,0.49,0.19,0.74C1.4,37.4,4.2,42.38,5.37,44.37c-1.17,1.99-3.95,6.98-5.12,11.26c-0.07,0.25-0.13,0.5-0.18,0.74
		c-0.19,0.89,0.38,1.77,1.27,1.96c0.12,0.02,0.23,0.04,0.35,0.04c0.76,0,1.45-0.53,1.61-1.31c0.04-0.19,0.09-0.38,0.14-0.57
		c0.87-3.19,2.82-6.96,4.08-9.23c2.58,3.9,9.05,12.37,19.83,18.26v23.9c-3.63,0.58-6.41,3.72-6.41,7.51c0,4.2,3.42,7.61,7.61,7.61
		s7.61-3.42,7.61-7.61c0-3.47-2.34-6.4-5.52-7.31V67.16c6.01,2.75,13.16,4.62,21.55,4.62c0.02,0,0.05,0,0.07,0
		C80.85,71.75,97.5,46.24,98.2,45.15C98.54,44.61,98.54,43.92,98.2,43.38z M32.87,96.92c0,2.38-1.93,4.31-4.31,4.31
		s-4.31-1.94-4.31-4.31s1.93-4.31,4.31-4.31S32.87,94.54,32.87,96.92z M48.87,3.3c9.04,0,16.54,6.63,17.95,15.27
		c-10.77-3.49-23.36-3.64-36.15,2.54C30.89,11.26,38.96,3.3,48.87,3.3z M9.57,44.35c1.12-1.92,4.46-7.14,10.28-12.2
		c2.49-2.11,4.99-3.91,7.5-5.44v35.02C16.91,55.52,11.14,46.93,9.57,44.35z M59.26,67.89c-8.23-9.72-9.57-23.94-5.66-35.79
		c0.97-2.94,2.31-5.75,4.1-8.29c1.12-1.58-1.48-3.08-2.59-1.51c-3.59,5.08-5.48,11.26-6.25,17.38c-0.87,6.87-0.19,14.08,2.37,20.53
		c1.16,2.91,2.66,5.62,4.52,8.11c-1.15,0.1-2.31,0.16-3.5,0.16c-0.02,0-0.04,0-0.06,0c-8.49,0-15.65-2.05-21.55-4.97V24.83
		c12.94-6.74,25.72-6.46,36.43-2.67v12.2l-3.34-3.34c-0.65-0.65-1.69-0.64-2.33,0c-0.64,0.64-0.64,1.69,0,2.33l6.16,6.15
		c0.03,0.03,0.06,0.04,0.09,0.07c0.04,0.05,0.08,0.11,0.13,0.16c0.32,0.32,0.74,0.48,1.17,0.48c0.42,0,0.84-0.16,1.17-0.48
		l6.49-6.49c0.64-0.64,0.64-1.69,0-2.33c-0.64-0.64-1.69-0.65-2.33,0l-3.9,3.9V23.46c4.8,2.1,9.1,4.88,12.71,7.99
		c6.21,5.35,10.25,10.73,11.71,12.81C91.94,48.26,79.13,64.59,59.26,67.89z"/>
</g>
</svg>
