<?xml version="1.0" encoding="UTF-8" standalone="no"?>
<!-- Generator: Adobe Illustrator 19.0.0, SVG Export Plug-In . SVG Version: 6.00 Build 0)  -->

<svg
   xmlns:dc="http://purl.org/dc/elements/1.1/"
   xmlns:cc="http://creativecommons.org/ns#"
   xmlns:rdf="http://www.w3.org/1999/02/22-rdf-syntax-ns#"
   xmlns:svg="http://www.w3.org/2000/svg"
   xmlns="http://www.w3.org/2000/svg"
   xmlns:sodipodi="http://sodipodi.sourceforge.net/DTD/sodipodi-0.dtd"
   xmlns:inkscape="http://www.inkscape.org/namespaces/inkscape"
   version="1.1"
   id="Capa_1"
   x="0px"
   y="0px"
   viewBox="0 0 216 150"
   xml:space="preserve"
   sodipodi:docname="preco_ko1.svg"
   width="216"
   height="150"
   inkscape:version="0.92.5 (2060ec1f9f, 2020-04-08)"><metadata
   id="metadata51"><rdf:RDF><cc:Work
       rdf:about=""><dc:format>image/svg+xml</dc:format><dc:type
         rdf:resource="http://purl.org/dc/dcmitype/StillImage" /><dc:title></dc:title></cc:Work></rdf:RDF></metadata><defs
   id="defs49" /><sodipodi:namedview
   pagecolor="#ffffff"
   bordercolor="#666666"
   borderopacity="1"
   objecttolerance="10"
   gridtolerance="10"
   guidetolerance="10"
   inkscape:pageopacity="0"
   inkscape:pageshadow="2"
   inkscape:window-width="1920"
   inkscape:window-height="1009"
   id="namedview47"
   showgrid="false"
   inkscape:zoom="2.6074715"
   inkscape:cx="163.9569"
   inkscape:cy="114.00182"
   inkscape:window-x="0"
   inkscape:window-y="0"
   inkscape:window-maximized="1"
   inkscape:current-layer="g12" />
<g
   id="g14"
   transform="translate(0,-361.99701)">
	<g
   id="g12">
		<g
   id="g10"
   transform="matrix(0.27627707,0,0,0.27627707,-16.216578,333.1577)">
			<path
   d="M 510.646,261.469 C 468.003,185.134 397.9,138.456 315.733,129.806 274.538,77.776 145.277,64.595 139.698,64.052 c -3.635,-0.375 -7.292,1.208 -9.521,4.167 -2.24,2.938 -2.792,6.833 -1.458,10.281 12.673,32.896 25.656,70.313 29.092,85.621 -23.473,10.741 -43.99,22.163 -57.217,31.681 C 71.906,149.906 13.344,149.333 10.667,149.333 4.771,149.333 0,154.104 0,160 0,221.802 21.542,252.823 35.948,266.667 21.542,280.51 0,311.531 0,373.333 0,379.229 4.771,384 10.667,384 c 2.677,0 61.24,-0.573 89.927,-46.469 17.573,12.646 47.957,28.637 81.159,41.931 -7.337,11.867 -11.086,30.742 -11.086,57.871 0,5.896 4.771,10.667 10.667,10.667 3.172,0 75.708,-0.629 111.832,-43.003 91.87,-1.775 170.978,-49.891 217.48,-133.133 1.802,-3.229 1.802,-7.166 0,-10.395 z M 154.906,87.417 c 35.841,5.188 94.682,17.952 127.934,40.799 -30.66,1.198 -69.78,12.79 -105.243,27.336 -4.722,-18.75 -15.199,-48.043 -22.691,-68.135 z m 37.344,338.635 c 1.421,-29.671 8.267,-37.254 10.186,-38.806 20.786,7.296 41.846,13.094 60.969,16.004 -23.139,16.281 -54.682,21.348 -71.155,22.802 z m 8.948,-39.198 0.004,-0.029 c 0.029,0.01 0.059,0.018 0.087,0.029 -0.06,-0.008 -0.027,0.009 -0.091,0 z M 288,384 c -62.333,0 -164.25,-51.177 -183.125,-70.49 -2.021,-2.073 -4.781,-3.208 -7.625,-3.208 -0.646,0 -1.302,0.063 -1.948,0.177 -3.49,0.646 -6.438,3 -7.844,6.26 -14.396,33.385 -48.25,42.5 -65.844,44.99 3.333,-66.844 34.969,-84.708 36.594,-85.573 3.51,-1.802 5.677,-5.438 5.729,-9.385 0.052,-3.99 -2.188,-7.708 -5.719,-9.583 -1.427,-0.76 -33.25,-18.5 -36.604,-85.521 17.583,2.573 51.562,11.823 65.844,44.927 1.406,3.26 4.354,5.615 7.844,6.26 3.521,0.656 7.094,-0.49 9.573,-3.031 18.875,-19.313 120.792,-70.49 183.125,-70.49 84.219,0 157.167,42.677 201.042,117.333 C 445.167,341.323 372.219,384 288,384 Z"
   id="path2"
   inkscape:connector-curvature="0" />
			<path
   d="m 320,266.666 c 0,-49.083 19.365,-79.146 19.563,-79.448 3.229,-4.917 1.875,-11.521 -3.021,-14.771 -4.896,-3.229 -11.5,-1.906 -14.75,2.969 -0.948,1.417 -23.125,35.333 -23.125,91.25 0,55.917 22.177,89.833 23.125,91.25 2.052,3.083 5.438,4.75 8.885,4.75 2.031,0 4.083,-0.583 5.906,-1.792 4.906,-3.271 6.229,-9.885 2.958,-14.792 C 339.344,345.792 320,316.198 320,266.666 Z"
   id="path4"
   inkscape:connector-curvature="0" />
			<path
   d="m 293.875,172.448 c -4.906,-3.229 -11.49,-1.906 -14.75,2.969 -0.948,1.416 -23.125,35.333 -23.125,91.249 0,29.865 6.437,53.333 11.844,67.76 1.604,4.281 5.667,6.927 9.99,6.927 1.24,0 2.51,-0.219 3.74,-0.677 5.521,-2.063 8.313,-8.208 6.25,-13.729 -4.781,-12.781 -10.49,-33.615 -10.49,-60.281 0,-49.083 19.365,-79.146 19.563,-79.448 3.228,-4.916 1.874,-11.52 -3.022,-14.77 z"
   id="path6"
   inkscape:connector-curvature="0" />
			<circle
   cx="383.99899"
   cy="234.66499"
   r="21.333"
   id="circle8" />
		</g>
	</g>
</g>
<g
   id="g16"
   transform="translate(0,-361.99701)">
</g>
<g
   id="g18"
   transform="translate(0,-361.99701)">
</g>
<g
   id="g20"
   transform="translate(0,-361.99701)">
</g>
<g
   id="g22"
   transform="translate(0,-361.99701)">
</g>
<g
   id="g24"
   transform="translate(0,-361.99701)">
</g>
<g
   id="g26"
   transform="translate(0,-361.99701)">
</g>
<g
   id="g28"
   transform="translate(0,-361.99701)">
</g>
<g
   id="g30"
   transform="translate(0,-361.99701)">
</g>
<g
   id="g32"
   transform="translate(0,-361.99701)">
</g>
<g
   id="g34"
   transform="translate(0,-361.99701)">
</g>
<g
   id="g36"
   transform="translate(0,-361.99701)">
</g>
<g
   id="g38"
   transform="translate(0,-361.99701)">
</g>
<g
   id="g40"
   transform="translate(0,-361.99701)">
</g>
<g
   id="g42"
   transform="translate(0,-361.99701)">
</g>
<g
   id="g44"
   transform="translate(0,-361.99701)">
</g>
</svg>