<svg width="12" height="7" viewBox="0 0 12 7" fill="none" xmlns="http://www.w3.org/2000/svg">
<path d="M0.119903 1.27442L5.72357 6.87771C5.80363 6.95786 5.89574 6.998 5.99994 6.998C6.10413 6.998 6.19641 6.95786 6.27651 6.87771L11.8797 1.27442C11.96 1.19415 12 1.10204 12 0.997807C12 0.893613 11.9599 0.801379 11.8797 0.721275L11.2786 0.120241C11.1985 0.0400948 11.1063 4.25188e-05 11.0021 4.25097e-05C10.8979 4.25005e-05 10.8056 0.0400947 10.7255 0.120241L5.99994 4.84571L1.27421 0.119945C1.19411 0.0397989 1.10183 -1.27154e-07 0.997806 -1.36248e-07C0.893443 -1.45372e-07 0.801209 0.0400516 0.721105 0.119945L0.119945 0.721232C0.0398412 0.801336 4.11431e-05 0.893612 4.1134e-05 0.997764C-9.90885e-07 1.10204 0.0397987 1.19428 0.119903 1.27442Z" fill="black"/>
</svg>
