<svg width="20" height="20" viewBox="0 0 20 20" fill="none" xmlns="http://www.w3.org/2000/svg">
<path d="M7.70828 6.66671H1.45828C0.654144 6.66671 0 6.01257 0 5.20828V1.45828C0 0.654144 0.654144 0 1.45828 0H7.70828C8.51257 0 9.16671 0.654144 9.16671 1.45828V5.20828C9.16671 6.01257 8.51257 6.66671 7.70828 6.66671Z" fill="black"/>
<path d="M7.70828 20H1.45828C0.654144 20 0 19.3458 0 18.5417V9.79172C0 8.98743 0.654144 8.33328 1.45828 8.33328H7.70828C8.51257 8.33328 9.16671 8.98743 9.16671 9.79172V18.5417C9.16671 19.3458 8.51257 20 7.70828 20Z" fill="black"/>
<path d="M18.5417 20H12.2917C11.4874 20 10.8333 19.3459 10.8333 18.5417V14.7917C10.8333 13.9874 11.4874 13.3333 12.2917 13.3333H18.5417C19.3458 13.3333 20 13.9874 20 14.7917V18.5417C20 19.3459 19.3458 20 18.5417 20Z" fill="black"/>
<path d="M18.5417 11.6667H12.2917C11.4874 11.6667 10.8333 11.0126 10.8333 10.2083V1.45828C10.8333 0.654144 11.4874 0 12.2917 0H18.5417C19.3458 0 20 0.654144 20 1.45828V10.2083C20 11.0126 19.3458 11.6667 18.5417 11.6667Z" fill="black"/>
</svg>
