<svg width="20" height="20" viewBox="0 0 20 20" fill="none" xmlns="http://www.w3.org/2000/svg">
<path d="M3.76944 19.0246C3.79227 19.5697 4.24088 20 4.78645 20H14.2891C14.8347 20 15.2833 19.5697 15.3061 19.0246L15.9848 4.69878H3.09082L3.76944 19.0246ZM11.6874 8.25706C11.6874 8.02879 11.8725 7.84365 12.1009 7.84365H12.7622C12.9904 7.84365 13.1756 8.02874 13.1756 8.25706V16.4417C13.1756 16.67 12.9905 16.8551 12.7622 16.8551H12.1009C11.8726 16.8551 11.6874 16.6701 11.6874 16.4417V8.25706ZM8.79374 8.25706C8.79374 8.02879 8.97883 7.84365 9.20715 7.84365H9.86843C10.0967 7.84365 10.2818 8.02874 10.2818 8.25706V16.4417C10.2818 16.67 10.0968 16.8551 9.86843 16.8551H9.20715C8.97888 16.8551 8.79374 16.6701 8.79374 16.4417V8.25706ZM5.89997 8.25706C5.89997 8.02879 6.08506 7.84365 6.31338 7.84365H6.97471C7.20298 7.84365 7.38812 8.02874 7.38812 8.25706V16.4417C7.38812 16.67 7.20303 16.8551 6.97471 16.8551H6.31338C6.08511 16.8551 5.89997 16.6701 5.89997 16.4417V8.25706Z" fill="black"/>
<path d="M16.4365 1.04197H12.0526V0.213167C12.0526 0.095467 11.9571 0 11.8394 0H7.23583C7.11813 0 7.02271 0.095467 7.02271 0.213167V1.04192H2.63876C2.28596 1.04192 2 1.32792 2 1.68072V3.68746H17.0752V1.68077C17.0752 1.32797 16.7893 1.04197 16.4365 1.04197Z" fill="black"/>
</svg>
