<svg width="20" height="20" viewBox="0 0 20 20" fill="none" xmlns="http://www.w3.org/2000/svg">
<path fill-rule="evenodd" clip-rule="evenodd" d="M14.3751 8.75C14.6201 8.75 14.8426 8.8925 14.9438 9.11625C15.0451 9.34 15.0076 9.6025 14.8451 9.78625L10.4701 14.7863C10.3513 14.9213 10.1801 15 10.0001 15C9.82008 15 9.64883 14.9225 9.53008 14.7863L5.15508 9.78625C4.99383 9.60125 4.95383 9.34 5.05633 9.11625C5.15758 8.89375 5.38008 8.75 5.62508 8.75H8.12508V0.625C8.12508 0.28 8.40508 0 8.75008 0H11.2501C11.5951 0 11.8751 0.28 11.8751 0.625V8.75H14.3751ZM17.3333 17.5V13.75H20V18.75C20 19.4412 19.404 20 18.6667 20H1.33333C0.597333 20 0 19.4412 0 18.75V13.75H2.66667V17.5H17.3333Z" fill="black"/>
</svg>
