<svg width="20" height="20" viewBox="0 0 20 20" fill="none" xmlns="http://www.w3.org/2000/svg">
<path d="M10 0C4.47748 0 0 4.47748 0 10C0 15.5232 4.47748 20 10 20C15.5232 20 20 15.5238 20 10C20 4.47748 15.5231 0 10 0ZM10 18.125C5.51253 18.125 1.87503 14.4875 1.87503 10C1.87503 5.51253 5.51253 1.87503 10 1.87503C14.4875 1.87503 18.125 5.51253 18.125 10C18.125 14.4875 14.4875 18.125 10 18.125Z" fill="black"/>
<path d="M14.3742 13.1755L11.184 9.98528L14.3742 6.79508C14.5195 6.64976 14.6373 6.1373 14.2426 5.74264C13.848 5.34798 13.3355 5.46577 13.1902 5.61108L9.99998 8.80129L6.80979 5.6111C6.66449 5.46577 6.15202 5.34798 5.75738 5.74262C5.36273 6.13727 5.48051 6.64976 5.62582 6.79507L8.81603 9.98528L5.62582 13.1755C5.48052 13.3208 5.3627 13.8333 5.75738 14.2279C6.15206 14.6226 6.66453 14.5048 6.80982 14.3595L10 11.1693L13.1902 14.3595C13.3355 14.5048 13.848 14.6226 14.2427 14.2279C14.6374 13.8333 14.5195 13.3208 14.3742 13.1755Z" fill="black"/>
</svg>
