<svg width="20" height="20" viewBox="0 0 20 20" fill="none" xmlns="http://www.w3.org/2000/svg">
<path fill-rule="evenodd" clip-rule="evenodd" d="M0 10C0 4.47254 4.47328 0 10 0C15.5275 0 20 4.47328 20 10C20 15.5275 15.5267 20 10 20H0.78125C0.349766 20 0 19.6502 0 19.2188V10ZM9.8707 5.46883C8.03253 5.46883 7.18835 6.55809 7.18835 7.29336C7.18835 7.82442 7.63765 8.06949 8.00531 8.06949C8.31496 8.06949 8.44107 7.88353 8.58706 7.66824C8.78771 7.37234 9.02593 7.02106 9.82984 7.02106C10.5107 7.02106 11.0553 7.32063 11.0553 7.94695C11.0553 8.54862 10.5448 8.94057 10.113 9.27203C10.0171 9.34565 9.92514 9.41629 9.84347 9.48559C9.44863 9.82598 8.93121 10.3843 8.93121 11.5552C8.93121 12.2632 9.12179 12.4675 9.68007 12.4675C10.3473 12.4675 10.4834 12.168 10.4834 11.9093C10.4834 11.2012 10.4971 10.7927 11.2459 10.2073C11.6136 9.92133 12.7709 8.99543 12.7709 7.71551C12.7709 6.43559 11.6136 5.46883 9.8707 5.46883ZM8.65894 14.4555C8.65894 13.8836 9.1219 13.407 9.69374 13.407C10.2657 13.407 10.7422 13.8836 10.7422 14.4555C10.7422 15.0138 10.2792 15.5039 9.69374 15.5039C9.10827 15.5039 8.65894 15.0137 8.65894 14.4555Z" fill="black"/>
</svg>
