<svg width="20" height="20" viewBox="0 0 20 20" fill="none" xmlns="http://www.w3.org/2000/svg">
<path fill-rule="evenodd" clip-rule="evenodd" d="M17.6348 0.767654H17.6349C18.939 0.767677 20 1.82864 20 3.13277V5.91285C20 6.25664 19.7214 6.53527 19.3776 6.53527H16.5145V16.2655C16.5145 17.9014 15.1836 19.2323 13.5477 19.2323C13.499 19.2323 13.4505 19.2312 13.4023 19.2288V19.2323H2.9668V19.2324L2.95201 19.2323H2.84235V19.2298C1.26393 19.1643 0 17.8598 0 16.2656V14.751C0 14.4073 0.278633 14.1286 0.622422 14.1286H2.76357L2.84231 3.02449C2.84231 1.78219 3.86617 0.767654 5.12446 0.767654H17.6348ZM10.5809 16.2655C10.5809 16.9071 10.7856 17.5017 11.133 17.9875H2.95554C2.01113 17.9815 1.2448 17.2112 1.2448 16.2656V15.3734H10.5809V16.2655ZM17.6348 2.01246C17.0172 2.01246 16.5145 2.51492 16.5145 3.13277V5.29047H18.7552V3.13277C18.7552 2.51497 18.2525 2.01248 17.6349 2.01246L17.6348 2.01246ZM6.03734 4.23238H9.25312C9.59687 4.23238 9.87554 4.51101 9.87554 4.8548C9.87554 5.19859 9.59691 5.47722 9.25312 5.47722H6.03734C5.69355 5.47722 5.41492 5.19859 5.41492 4.8548C5.41492 4.51101 5.69355 4.23238 6.03734 4.23238ZM12.9875 6.72198H6.03734C5.69355 6.72198 5.41492 7.00062 5.41492 7.34441C5.41492 7.6882 5.69355 7.96683 6.03734 7.96683H12.9875C13.3313 7.96683 13.6099 7.6882 13.6099 7.34441C13.6099 7.00062 13.3313 6.72198 12.9875 6.72198ZM6.03734 9.21161H12.9875C13.3313 9.21161 13.6099 9.49024 13.6099 9.83403C13.6099 10.178 13.3313 10.4565 12.9875 10.4565H6.03734C5.69355 10.4565 5.41492 10.1778 5.41492 9.83403C5.41492 9.49024 5.69355 9.21161 6.03734 9.21161ZM12.9875 11.7012H6.03734C5.69355 11.7012 5.41492 11.9799 5.41492 12.3237C5.41492 12.6675 5.69355 12.9461 6.03734 12.9461H12.9875C13.3313 12.9461 13.6099 12.6675 13.6099 12.3237C13.6099 11.9799 13.3313 11.7012 12.9875 11.7012Z" fill="black"/>
</svg>
