<svg width="20" height="20" viewBox="0 0 20 20" fill="none" xmlns="http://www.w3.org/2000/svg">
<path d="M16.1756 7.7564C16.3008 7.71128 16.4137 7.63642 16.505 7.53799C16.5963 7.43956 16.6633 7.32039 16.7007 7.19028C16.738 7.06018 16.7446 6.92288 16.7198 6.78968C16.695 6.65649 16.6395 6.53123 16.558 6.42421C15.5183 5.05898 13.7277 4.36626 12.5087 4.03589C13.1354 5.23374 13.6049 6.73833 13.7633 8.62591L16.1756 7.7564Z" fill="black"/>
<path d="M3.07367 9.22351C2.65838 10.4311 2.2633 12.1866 2.71891 13.7363C2.75708 13.8661 2.82491 13.9849 2.91681 14.0827C3.00872 14.1805 3.12206 14.2546 3.2475 14.2989C3.37294 14.3432 3.5069 14.3564 3.63832 14.3374C3.76975 14.3185 3.89488 14.2679 4.00342 14.1899L5.56113 13.0696C4.65426 12.1933 3.9159 11.1515 3.38415 9.99794C3.2691 9.74468 3.16561 9.48654 3.07367 9.22351Z" fill="black"/>
<path d="M19.9258 15.0509C19.8832 14.9878 19.8247 14.9376 19.7565 14.9055C19.6884 14.8735 19.613 14.8607 19.5384 14.8685C19.5054 14.8722 16.1922 15.1973 14.3027 13.4558C13.428 12.6494 12.9845 11.5047 12.9845 10.0535C12.9845 4.99663 10.7998 2.52895 8.96698 1.34938C7.7515 0.567474 6.36588 0.104009 4.93302 9.04134e-05C4.8475 -0.00169662 4.76346 0.0230439 4.69199 0.0710467C4.62052 0.11905 4.56498 0.188058 4.5327 0.268965C3.10599 3.91182 2.9753 7.06399 4.14411 9.63787C5.48255 12.5853 8.46802 14.8131 13.2709 16.4483C14.898 17.0026 16.6495 18.2164 16.6495 19.5721C16.6494 19.6685 16.6813 19.7621 16.7398 19.8376C16.7984 19.9132 16.8802 19.9664 16.9721 19.9886C17.0639 20.0107 17.1604 20.0005 17.2459 19.9597C17.3313 19.9188 17.4008 19.8497 17.443 19.7635C17.6226 19.3965 17.5458 18.8837 17.4639 18.341C17.4077 18.0362 17.3803 17.7265 17.382 17.4163C19.0828 17.2285 19.9188 15.5609 19.9556 15.4858C19.9892 15.4173 20.0042 15.3407 19.999 15.2642C19.9938 15.1877 19.9685 15.114 19.9258 15.0509ZM6.70172 4.91983C6.53604 4.91983 6.37408 4.86965 6.23632 4.77564C6.09856 4.68162 5.99119 4.548 5.92779 4.39165C5.86438 4.23531 5.84779 4.06328 5.88012 3.89731C5.91244 3.73133 5.99222 3.57888 6.10938 3.45922C6.22653 3.33956 6.3758 3.25807 6.5383 3.22506C6.7008 3.19205 6.86923 3.20899 7.0223 3.27375C7.17537 3.33851 7.3062 3.44817 7.39825 3.58888C7.4903 3.72958 7.53943 3.895 7.53943 4.06423C7.53943 4.29115 7.45117 4.50878 7.29407 4.66923C7.13697 4.82969 6.9239 4.91983 6.70172 4.91983Z" fill="black"/>
<path d="M17.5917 4.06424C18.0544 4.06424 18.4294 3.68118 18.4294 3.20864C18.4294 2.7361 18.0544 2.35303 17.5917 2.35303C17.1291 2.35303 16.754 2.7361 16.754 3.20864C16.754 3.68118 17.1291 4.06424 17.5917 4.06424Z" fill="black"/>
<path d="M7.53936 19.4652C8.00201 19.4652 8.37707 19.0822 8.37707 18.6096C8.37707 18.1371 8.00201 17.754 7.53936 17.754C7.07671 17.754 6.70166 18.1371 6.70166 18.6096C6.70166 19.0822 7.07671 19.4652 7.53936 19.4652Z" fill="black"/>
<path d="M0.837704 7.37973C1.30035 7.37973 1.67541 6.99667 1.67541 6.52413C1.67541 6.05159 1.30035 5.66852 0.837704 5.66852C0.375053 5.66852 0 6.05159 0 6.52413C0 6.99667 0.375053 7.37973 0.837704 7.37973Z" fill="black"/>
</svg>
