<svg width="20" height="20" viewBox="0 0 20 20" fill="none" xmlns="http://www.w3.org/2000/svg">
<path d="M11.2269 9.94415L11.2134 9.95264L14.945 6.22101L15.028 9.27889C15.0318 9.4284 15.0957 9.57222 15.2047 9.68123C15.3137 9.79024 15.4568 9.85342 15.6065 9.85744L16.0819 9.86993C16.2314 9.87383 16.3707 9.81924 16.4742 9.71582C16.5776 9.61234 16.6326 9.4732 16.6287 9.32375L16.4926 4.08811C16.4887 3.93807 16.4261 3.79559 16.3168 3.6868C16.2074 3.57684 16.0648 3.5142 15.9149 3.51041L10.679 3.37409C10.5296 3.37026 10.3905 3.42509 10.287 3.52863C10.1836 3.63205 10.1288 3.77125 10.1325 3.92058L10.145 4.39597C10.1488 4.54536 10.211 4.68754 10.32 4.79655C10.429 4.9055 10.5658 4.96239 10.7152 4.96616L13.7987 5.04113L10.056 8.7838C9.8429 8.99691 9.85732 9.36948 10.0817 9.59387L10.4267 9.93889C10.6511 10.1633 11.0138 10.1573 11.2269 9.94415Z" fill="black"/>
<path d="M8.67303 10.1558L8.68661 10.1474L4.95497 13.879L4.87199 10.8211C4.86816 10.6716 4.80425 10.5278 4.69524 10.4188C4.58623 10.3098 4.44314 10.2466 4.29345 10.2426L3.81806 10.2301C3.6686 10.2262 3.52923 10.2808 3.42581 10.3842C3.32233 10.4877 3.26738 10.6268 3.27127 10.7762L3.40735 16.0119C3.41125 16.1619 3.47383 16.3044 3.58319 16.4132C3.69258 16.5232 3.83513 16.5858 3.98505 16.5896L9.22093 16.7259C9.37032 16.7297 9.50945 16.6749 9.61299 16.5714C9.71641 16.4679 9.77118 16.3288 9.76741 16.1794L9.75492 15.704C9.75121 15.5546 9.68893 15.4125 9.57992 15.3034C9.47097 15.1945 9.33418 15.1376 9.18473 15.1338L6.10128 15.0589L9.84395 11.3162C10.0571 11.1031 10.0426 10.7305 9.81826 10.5061L9.47324 10.1611C9.24886 9.93673 8.88614 9.94274 8.67303 10.1558Z" fill="black"/>
<rect x="1" y="1" width="18" height="18" rx="3" stroke="black" stroke-width="2"/>
</svg>
