<svg width="16" height="20" viewBox="0 0 16 20" fill="none" xmlns="http://www.w3.org/2000/svg">
<path d="M7.99998 9.78131C10.3388 9.78131 12.235 7.59171 12.235 4.89069C12.235 2.1896 11.6125 0 7.99998 0C4.3875 0 3.76483 2.1896 3.76483 4.89069C3.76483 7.59171 5.66102 9.78131 7.99998 9.78131Z" fill="black"/>
<path d="M0.000791795 17.2487C0.00010608 17.0841 -0.000579634 17.2023 0.000791795 17.2487V17.2487Z" fill="black"/>
<path d="M15.9988 17.3774C16.001 17.3323 15.9995 17.0646 15.9988 17.3774V17.3774Z" fill="black"/>
<path d="M15.9897 17.0513C15.9113 12.346 15.265 11.0053 10.3189 10.1566C10.3189 10.1566 9.62267 11.0001 7.99989 11.0001C6.37711 11.0001 5.68076 10.1566 5.68076 10.1566C0.788681 10.996 0.103028 12.3169 0.0128732 16.8984C0.00548053 17.2725 0.00205469 17.2922 0.000732422 17.2487C0.00103294 17.3301 0.00139342 17.4806 0.00139342 17.7431C0.00139342 17.7431 1.17893 20 7.99989 20C14.8207 20 15.9984 17.7431 15.9984 17.7431C15.9984 17.5745 15.9985 17.4572 15.9987 17.3774C15.9974 17.4043 15.9947 17.3522 15.9897 17.0513Z" fill="black"/>
</svg>
