<svg width="20" height="20" viewBox="0 0 20 20" fill="none" xmlns="http://www.w3.org/2000/svg">
<path d="M1.12423 11.8743L1.09301 11.8675L14.4761 11.8675L10.2689 16.0839C10.0629 16.2898 9.94992 16.5686 9.94992 16.8613C9.94992 17.154 10.0629 17.4309 10.2689 17.6372L10.9236 18.2922C11.1294 18.498 11.4037 18.6119 11.6963 18.6119C11.9889 18.6119 12.2634 18.4989 12.4693 18.293L19.6811 11.0818C19.8878 10.8751 20.0008 10.5998 20 10.307C20.0008 10.0125 19.8878 9.73707 19.6811 9.53073L12.4693 2.31886C12.2634 2.11317 11.9891 2 11.6963 2C11.4037 2 11.1294 2.11333 10.9236 2.31886L10.2689 2.97382C10.0629 3.17935 9.94992 3.45382 9.94992 3.7465C9.94992 4.03903 10.0629 4.29902 10.2689 4.50472L14.5236 8.74471L1.10927 8.74471C0.506503 8.74471 -8.17197e-07 9.26423 -7.6453e-07 9.86666L-6.83546e-07 10.793C-6.3088e-07 11.3954 0.521463 11.8743 1.12423 11.8743Z" fill="black"/>
</svg>
