<svg width="20" height="20" viewBox="0 0 20 20" fill="none" xmlns="http://www.w3.org/2000/svg">
<path d="M18.0327 8.33933C19.1175 7.25456 19.1175 5.48954 18.0326 4.40471C16.9479 3.31993 15.1828 3.31993 14.0981 4.40471C13.225 5.27775 13.0552 6.59119 13.5874 7.63622L6.30376 14.9198C5.59129 15.6323 4.43206 15.6323 3.71959 14.9199C3.00713 14.2074 3.00713 13.0481 3.71953 12.3357L4.26681 11.7885L4.26675 12.2107C4.26681 12.6846 4.65107 13.0688 5.12504 13.069C5.599 13.069 5.98327 12.6847 5.98333 12.2107L5.98333 9.71656C5.98333 9.36944 5.77427 9.05647 5.45348 8.92369C5.13275 8.79085 4.76365 8.86428 4.51817 9.10976L2.5058 11.1221C1.12408 12.5038 1.12408 14.7521 2.5058 16.1338C3.88751 17.5155 6.13572 17.5155 7.51743 16.1338L14.8011 8.85008C15.8462 9.3823 17.1596 9.21244 18.0327 8.33933ZM15.3117 7.1256C14.8962 6.71008 14.8963 6.03397 15.3118 5.61844C15.7273 5.20292 16.4034 5.20292 16.8189 5.61844C17.2344 6.03396 17.2345 6.71008 16.819 7.1256C16.4034 7.54112 15.7273 7.54112 15.3117 7.1256Z" fill="black"/>
</svg>
