<svg width="20" height="20" viewBox="0 0 20 20" fill="none" xmlns="http://www.w3.org/2000/svg">
<path d="M19.6643 9.41615L16.6332 6.38506V2.88363C16.6332 2.25052 16.1202 1.73744 15.4861 1.73744C14.8535 1.73744 14.3405 2.25052 14.3405 2.88363V4.0924L12.0836 1.83542C10.9678 0.720201 9.02772 0.722179 7.91443 1.83744L0.335549 9.41615C-0.11185 9.86444 -0.11185 10.5898 0.335549 11.0374C0.783149 11.4856 1.50992 11.4856 1.95736 11.0374L9.53551 3.45848C9.78238 3.2129 10.2175 3.2129 10.4631 3.45776L18.0425 11.0374C18.2673 11.2615 18.5603 11.373 18.8532 11.373C19.1468 11.373 19.4403 11.2614 19.6643 11.0374C20.1119 10.5898 20.1119 9.86448 19.6643 9.41615Z" fill="black"/>
<path d="M10.3982 5.63424C10.178 5.41418 9.82149 5.41418 9.60195 5.63424L2.93555 12.2987C2.8303 12.4039 2.77063 12.5475 2.77063 12.6974V17.5582C2.77063 18.6988 3.69546 19.6236 4.83604 19.6236H8.13658V14.5122H11.8628V19.6236H15.1634C16.304 19.6236 17.2288 18.6988 17.2288 17.5582V12.6974C17.2288 12.5475 17.1696 12.4039 17.0639 12.2987L10.3982 5.63424Z" fill="black"/>
</svg>
