<svg width="20" height="20" viewBox="0 0 20 20" fill="none" xmlns="http://www.w3.org/2000/svg">
<path d="M10.0332 1.66663L17.5083 1.66663C17.9668 1.66663 18.3389 2.03998 18.3389 2.49994L18.3389 17.5C18.3389 17.96 17.9668 18.3333 17.5083 18.3333L10.0332 18.3333C9.57391 18.3333 9.20266 18.7058 9.20266 19.1666C9.20266 19.6274 9.57391 20 10.0332 20L17.5083 20C18.8821 20 20 18.8783 20 17.5L20 2.49998C20 1.12166 18.8821 -1.08519e-07 17.5083 -2.4187e-07L10.0332 -9.67487e-07C9.57391 -1.01207e-06 9.20266 0.372487 9.20266 0.833314C9.20266 1.29414 9.57391 1.66663 10.0332 1.66663Z" fill="black"/>
<path d="M0.247498 10.5933L5.29734 15.5933C5.62293 15.9166 6.14949 15.9124 6.47176 15.5849C6.79402 15.2574 6.7907 14.7299 6.46344 14.4066L2.85465 10.8333L12.5249 10.8333C12.9842 10.8333 13.3555 10.4608 13.3555 9.99997C13.3555 9.53914 12.9842 9.16661 12.5249 9.16661L2.85465 9.16661L6.46344 5.5933C6.79066 5.26996 6.79316 4.74246 6.47176 4.41497C6.30898 4.24997 6.09469 4.16664 5.88039 4.16664C5.66941 4.16664 5.45848 4.24663 5.29734 4.40666L0.247498 9.40667C0.0896859 9.56332 -1.4305e-06 9.77669 -1.44808e-06 10C-1.46566e-06 10.2232 0.0888657 10.4358 0.247498 10.5933Z" fill="black"/>
</svg>
