<svg width="20" height="20" viewBox="0 0 20 20" fill="none" xmlns="http://www.w3.org/2000/svg">
<path d="M7.29163 15.3148V19.3478C7.29163 19.6296 7.46496 19.8791 7.72162 19.9678C7.78579 19.9896 7.85162 20 7.91662 20C8.11162 20 8.29996 19.9044 8.41996 19.7339L10.6808 16.5235L7.29163 15.3148Z" fill="black"/>
<path d="M19.7375 0.120946C19.5458 -0.0207924 19.2941 -0.0399228 19.0858 0.0739898L0.335869 10.2913C0.114203 10.4122 -0.0166295 10.6592 0.00170373 10.9192C0.0208703 11.18 0.186703 11.4026 0.422536 11.487L5.63502 13.3461L16.7358 3.4418L8.14584 14.2409L16.8816 17.3565C16.9466 17.3791 17.015 17.3913 17.0833 17.3913C17.1966 17.3913 17.3091 17.3591 17.4083 17.2965C17.5666 17.1957 17.6741 17.0261 17.7016 16.8357L19.9933 0.74877C20.0275 0.505293 19.9291 0.263554 19.7375 0.120946Z" fill="black"/>
</svg>
