<svg width="9" height="20" viewBox="0 0 9 20" fill="none" xmlns="http://www.w3.org/2000/svg">
<path d="M8.73054 17.8417L8.44593 18.984C7.5921 19.3149 6.91006 19.5668 6.40218 19.7399C5.89375 19.9136 5.30299 20 4.62989 20C3.59624 20 2.79225 19.7514 2.21883 19.2576C1.64541 18.7618 1.35861 18.1335 1.35861 17.3713C1.35861 17.0763 1.37942 16.7728 1.42269 16.4636C1.46632 16.154 1.53569 15.8054 1.63062 15.4157L2.69768 11.7074C2.79261 11.3523 2.8733 11.0159 2.93793 10.6977C3.00347 10.3815 3.03505 10.0906 3.03505 9.82873C3.03505 9.35515 2.93519 9.0239 2.73638 8.83766C2.53758 8.65196 2.15822 8.55768 1.59502 8.55768C1.31917 8.55768 1.03566 8.60106 0.746668 8.68494C0.456399 8.76919 0.2083 8.85057 0 8.92621L0.28534 7.78297C0.984361 7.50352 1.65253 7.26422 2.29167 7.06561C2.93081 6.86647 3.53472 6.76681 4.10595 6.76681C5.13248 6.76681 5.9246 7.01041 6.48086 7.4976C7.03712 7.98516 7.31516 8.61719 7.31516 9.39602C7.31516 9.55717 7.2969 9.8411 7.25765 10.2469C7.21931 10.6536 7.14793 11.0263 7.04387 11.3652L5.98138 15.0587C5.8943 15.3553 5.81598 15.6945 5.74789 16.0761C5.6776 16.4552 5.64401 16.7448 5.64401 16.9392C5.64401 17.4296 5.75537 17.7644 5.97864 17.9424C6.20355 18.1204 6.59094 18.2089 7.14118 18.2089C7.3995 18.2089 7.69342 18.164 8.02002 18.0756C8.34571 17.9872 8.58322 17.9096 8.73054 17.8417ZM9 2.33561C9 2.97911 8.753 3.52868 8.25662 3.98057C7.76152 4.43407 7.16491 4.661 6.46699 4.661C5.76687 4.661 5.16881 4.43407 4.66805 3.98057C4.1682 3.52851 3.91773 2.97911 3.91773 2.33561C3.91773 1.69336 4.1682 1.14289 4.66805 0.685267C5.16789 0.228362 5.76705 0 6.46699 0C7.16473 0 7.76152 0.2289 8.25662 0.685267C8.75336 1.14289 9 1.69354 9 2.33561Z" fill="black"/>
</svg>
