<svg width="15" height="20" viewBox="0 0 15 20" fill="none" xmlns="http://www.w3.org/2000/svg">
<path d="M7.50027 20C3.36465 20 0 16.7151 0 12.6778C0 8.90266 6.17016 1.16606 6.87354 0.296452C7.02496 0.109383 7.25596 0 7.5 0C7.74404 0 7.97504 0.109124 8.12646 0.296452C8.8301 1.16632 15 8.90266 15 12.6778C15.0003 16.7151 11.6359 20 7.50027 20ZM7.50027 2.05698C5.41196 4.76142 1.59676 10.2124 1.59676 12.6778C1.59676 15.8556 4.245 18.4411 7.50027 18.4411C10.7555 18.4411 13.4038 15.8559 13.4038 12.6778C13.4035 10.2124 9.5883 4.76142 7.50027 2.05698Z" fill="#353535"/>
<path d="M7.50029 16.8833C7.05931 16.8833 6.7019 16.5343 6.7019 16.1038C6.7019 15.6733 7.05931 15.3243 7.50029 15.3243C8.99486 15.3243 10.2111 14.1378 10.2111 12.6786C10.2111 12.2481 10.5685 11.8992 11.0094 11.8992C11.4501 11.8992 11.8078 12.2481 11.8078 12.6786C11.8076 14.997 9.87521 16.8833 7.50029 16.8833Z" fill="#353535"/>
</svg>
