<svg width="20" height="20" viewBox="0 0 20 20" fill="none" xmlns="http://www.w3.org/2000/svg">
<path d="M14.2305 17.8417L13.9459 18.984C13.0921 19.3149 12.4101 19.5668 11.9022 19.7399C11.3938 19.9136 10.803 20 10.1299 20C9.09624 20 8.29225 19.7514 7.71883 19.2576C7.14541 18.7618 6.85861 18.1335 6.85861 17.3713C6.85861 17.0763 6.87942 16.7728 6.92269 16.4636C6.96632 16.154 7.03569 15.8054 7.13062 15.4157L8.19768 11.7074C8.29261 11.3523 8.3733 11.0159 8.43793 10.6977C8.50347 10.3815 8.53505 10.0906 8.53505 9.82873C8.53505 9.35515 8.43519 9.0239 8.23638 8.83766C8.03758 8.65196 7.65822 8.55768 7.09502 8.55768C6.81917 8.55768 6.53566 8.60106 6.24667 8.68494C5.9564 8.76919 5.7083 8.85057 5.5 8.92621L5.78534 7.78297C6.48436 7.50352 7.15253 7.26422 7.79167 7.06561C8.43081 6.86647 9.03472 6.76681 9.60595 6.76681C10.6325 6.76681 11.4246 7.01041 11.9809 7.4976C12.5371 7.98516 12.8152 8.61719 12.8152 9.39602C12.8152 9.55717 12.7969 9.8411 12.7577 10.2469C12.7193 10.6536 12.6479 11.0263 12.5439 11.3652L11.4814 15.0587C11.3943 15.3553 11.316 15.6945 11.2479 16.0761C11.1776 16.4552 11.144 16.7448 11.144 16.9392C11.144 17.4296 11.2554 17.7644 11.4786 17.9424C11.7036 18.1204 12.0909 18.2089 12.6412 18.2089C12.8995 18.2089 13.1934 18.164 13.52 18.0756C13.8457 17.9872 14.0832 17.9096 14.2305 17.8417ZM14.5 2.33561C14.5 2.97911 14.253 3.52868 13.7566 3.98057C13.2615 4.43407 12.6649 4.661 11.967 4.661C11.2669 4.661 10.6688 4.43407 10.168 3.98057C9.6682 3.52851 9.41773 2.97911 9.41773 2.33561C9.41773 1.69336 9.6682 1.14289 10.168 0.685267C10.6679 0.228362 11.2671 0 11.967 0C12.6647 0 13.2615 0.2289 13.7566 0.685267C14.2534 1.14289 14.5 1.69354 14.5 2.33561Z" fill="black"/>
</svg>
