<svg width="20" height="20" viewBox="0 0 20 20" fill="none" xmlns="http://www.w3.org/2000/svg">
<path d="M9.50027 20C5.36465 20 2 16.7151 2 12.6778C2 8.90266 8.17016 1.16606 8.87354 0.296452C9.02496 0.109383 9.25596 0 9.5 0C9.74404 0 9.97504 0.109124 10.1265 0.296452C10.8301 1.16632 17 8.90266 17 12.6778C17.0003 16.7151 13.6359 20 9.50027 20ZM9.50027 2.05698C7.41196 4.76142 3.59676 10.2124 3.59676 12.6778C3.59676 15.8556 6.245 18.4411 9.50027 18.4411C12.7555 18.4411 15.4038 15.8559 15.4038 12.6778C15.4035 10.2124 11.5883 4.76142 9.50027 2.05698Z" fill="black"/>
<path d="M9.50029 16.8833C9.05931 16.8833 8.7019 16.5343 8.7019 16.1038C8.7019 15.6733 9.05931 15.3243 9.50029 15.3243C10.9949 15.3243 12.2111 14.1378 12.2111 12.6786C12.2111 12.2481 12.5685 11.8992 13.0094 11.8992C13.4501 11.8992 13.8078 12.2481 13.8078 12.6786C13.8076 14.997 11.8752 16.8833 9.50029 16.8833Z" fill="black"/>
</svg>
