<svg width="20" height="20" viewBox="0 0 20 20" fill="none" xmlns="http://www.w3.org/2000/svg">
<path d="M12.6204 14.2515C13.4127 13.5585 13.9102 12.5566 13.9102 11.4421C13.9102 10.3275 13.4127 9.32561 12.6204 8.633C11.927 8.02655 11.0086 7.65714 10 7.65714C8.99184 7.65714 8.07309 8.02614 7.37961 8.633C6.58739 9.32516 6.08942 10.3275 6.08942 11.442C6.08942 12.5566 6.58739 13.5589 7.37961 14.2515C8.07305 14.8579 8.99184 15.2273 10 15.2273C11.0086 15.2273 11.927 14.8579 12.6204 14.2515Z" fill="black"/>
<path fill-rule="evenodd" clip-rule="evenodd" d="M20 16.7152V6.36603C20 5.65647 19.4057 5.08122 18.6726 5.08122H17.6804C17.1151 5.08122 16.6118 4.73476 16.4265 4.21759L15.9416 2.86405C15.7563 2.34687 15.2531 2 14.6878 2H6.94504C6.3793 2 5.87605 2.34687 5.69074 2.86405L5.20625 4.21759C5.02094 4.73473 4.51727 5.08122 3.95195 5.08122H1.32734C0.594297 5.08122 0 5.65647 0 6.36603V16.7152C0 17.4248 0.594297 18 1.32734 18H18.6727C19.4057 18 20 17.4248 20 16.7152ZM15.5302 11.4421C15.5302 14.3984 13.0542 16.795 10 16.795C6.94576 16.795 4.4698 14.3984 4.4698 11.4421C4.4698 8.4857 6.94576 6.0891 10 6.0891C13.0542 6.0891 15.5302 8.4857 15.5302 11.4421ZM2.10695 8.01476C2.71831 8.01476 3.21391 7.53504 3.21391 6.94328C3.21391 6.35152 2.71831 5.8718 2.10695 5.8718C1.4956 5.8718 1 6.35152 1 6.94328C1 7.53504 1.4956 8.01476 2.10695 8.01476Z" fill="black"/>
</svg>
