<svg width="20" height="20" viewBox="0 0 20 20" fill="none" xmlns="http://www.w3.org/2000/svg">
<path fill-rule="evenodd" clip-rule="evenodd" d="M14.2359 4.89069C14.2359 7.59171 12.3394 9.78131 10.0003 9.78131C7.66102 9.78131 5.76459 7.59171 5.76459 4.89069C5.76459 2.1896 6.38733 0 10.0003 0C13.6132 0 14.2359 2.1896 14.2359 4.89069ZM12.3195 10.1566C17.2662 11.0053 17.9126 12.346 17.991 17.0513C17.996 17.3522 17.9987 17.4043 18 17.3774C17.9998 17.4572 17.9997 17.5745 17.9997 17.7431C17.9997 17.7431 16.8219 20 10.0002 20C3.17835 20 2.00066 17.7431 2.00066 17.7431C2.00066 17.4806 2.0003 17.3301 2 17.2487C2.00132 17.2922 2.00475 17.2725 2.01214 16.8984C2.10231 12.3169 2.78805 10.996 7.68075 10.1566C7.68075 10.1566 8.37719 11.0001 10.0002 11.0001C11.6232 11.0001 12.3195 10.1566 12.3195 10.1566Z" fill="black"/>
</svg>
