<svg width="20" height="21" viewBox="0 0 20 21" fill="none" xmlns="http://www.w3.org/2000/svg">
<path d="M20 2.33329V8.16663C20 8.62235 19.6224 8.99996 19.1667 8.99996H13.3333C12.9948 8.99996 12.6953 8.79163 12.5651 8.47913C12.4349 8.17965 12.5 7.81506 12.7474 7.58069L14.5443 5.78381C13.3203 4.651 11.7057 3.99996 10 3.99996C6.32812 3.99996 3.33333 6.99475 3.33333 10.6666C3.33333 14.3385 6.32812 17.3333 10 17.3333C12.0703 17.3333 13.9844 16.3958 15.2604 14.7421C15.3255 14.651 15.4427 14.5989 15.5599 14.5859C15.6771 14.5859 15.7943 14.625 15.8854 14.7031L17.6693 16.5C17.8255 16.6432 17.8255 16.8906 17.6953 17.0599C15.7943 19.3515 12.9818 20.6666 10 20.6666C4.49219 20.6666 0 16.1744 0 10.6666C0 5.15881 4.49219 0.666626 10 0.666626C12.5651 0.666626 15.0521 1.69527 16.888 3.42704L18.5807 1.74736C18.8151 1.49996 19.1797 1.43486 19.4922 1.56506C19.7917 1.69527 20 1.99475 20 2.33329Z" fill="#1E9BC4"/>
</svg>
