<svg width="20" height="20" viewBox="0 0 20 20" fill="none" xmlns="http://www.w3.org/2000/svg">
<path d="M17.3519 7.54535L17.2567 7.51074L16.8852 6.60539L16.9255 6.51236C18.0511 3.9065 17.9735 3.82877 17.7868 3.63985L16.2853 2.14471C16.2239 2.08255 16.1162 2.03882 16.0232 2.03882C15.9388 2.03882 15.6829 2.03882 13.4654 3.06403L13.3765 3.10477L12.4616 2.7287L12.4248 2.63573C11.382 0 11.2752 0 11.0157 0H8.89536C8.63683 0 8.51909 0 7.55212 2.64031L7.51572 2.73643L6.60559 3.11515L6.51857 3.07822C5.01762 2.43229 4.14124 2.10474 3.91278 2.10474C3.82008 2.10474 3.71191 2.14719 3.65026 2.20919L2.14742 3.70864C1.95677 3.90059 1.8777 3.98098 3.06225 6.53246L3.10579 6.62708L2.73364 7.53144L2.64256 7.56738C0 8.60981 0 8.71145 0 8.98296V11.1039C0 11.3762 0 11.4892 2.64781 12.4578L2.74245 12.492L3.11466 13.3937L3.07469 13.4858C1.94909 16.0929 2.02048 16.1634 2.2121 16.358L3.71127 17.8552C3.77411 17.9168 3.88288 17.9609 3.97563 17.9609C4.05957 17.9609 4.31485 17.9609 6.53382 16.9362L6.62268 16.8937L7.53816 17.2717L7.57375 17.3652C8.6172 20 8.72439 20 8.98405 20H11.1051C11.3714 20 11.4818 20 12.4496 17.3579L12.4856 17.2618L13.3972 16.8856L13.484 16.9217C14.9837 17.5694 15.8596 17.8963 16.0866 17.8963C16.1785 17.8963 16.2877 17.8552 16.3503 17.7918L17.8556 16.2891C18.045 16.0961 18.1239 16.0173 16.9372 13.4682L16.8931 13.3725L17.2646 12.472L17.3533 12.4365C20.0001 11.3886 20.0001 11.2865 20.0001 11.0147V8.89496C20 8.62279 20 8.51038 17.3519 7.54535ZM9.99997 13.4398C8.10497 13.4398 6.56335 11.8963 6.56335 10.0004C6.56335 8.10444 8.10502 6.56293 9.99997 6.56293C11.8942 6.56293 13.4355 8.10477 13.4355 10.0004C13.4356 11.8959 11.8942 13.4398 9.99997 13.4398Z" fill="black"/>
</svg>
