<svg width="20" height="20" viewBox="0 0 20 20" fill="none" xmlns="http://www.w3.org/2000/svg">
<path d="M0 14.7901L5.20988 20L20 5.20988L14.7902 0L0 14.7901ZM5.20988 18.2634L1.7366 14.7901L2.47469 14.052L3.34303 14.9204L4.21129 14.0521L3.34295 13.1838L4.21121 12.3155L5.60054 13.7048L6.46888 12.8364L5.07955 11.4472L5.94781 10.5789L6.81607 11.4472L7.68433 10.5789L6.81607 9.71065L7.68441 8.84231L9.07366 10.2316L9.94192 9.36338L8.55267 7.97405L9.42101 7.10571L10.2893 7.97405L11.1576 7.10579L10.2894 6.23729L11.1578 5.36903L12.547 6.75827L13.4153 5.89001L12.026 4.50077L12.8944 3.63243L13.7626 4.50069L14.6309 3.63243L13.7626 2.76409L14.7901 1.7366L18.2633 5.20988L5.20988 18.2634ZM16.136 5.7163C15.9282 5.50852 15.9282 5.17165 16.136 4.9638C16.3438 4.75602 16.6807 4.75602 16.8885 4.9638C17.0963 5.17165 17.0963 5.50852 16.8885 5.7163C16.6808 5.92415 16.3439 5.92415 16.136 5.7163Z" fill="black"/>
</svg>
