<svg width="20" height="20" viewBox="0 0 20 20" fill="none" xmlns="http://www.w3.org/2000/svg">
<path d="M10.9656 0.627855L13.2213 5.40727C13.3782 5.73969 13.6815 5.97002 14.0324 6.02324L19.0766 6.78971C19.9602 6.92407 20.3127 8.05916 19.6736 8.71046L16.0236 12.4307C15.7699 12.6894 15.654 13.0624 15.714 13.4275L16.5755 18.6807C16.7266 19.6007 15.8029 20.3022 15.0127 19.8681L10.5013 17.3881C10.1875 17.2158 9.81247 17.2158 9.49875 17.3881L4.98725 19.8681C4.19709 20.3026 3.27344 19.6007 3.42446 18.6807L4.28596 13.4275C4.34603 13.0624 4.23005 12.6894 3.9764 12.4307L0.326406 8.71046C-0.31273 8.05872 0.039796 6.92363 0.923405 6.78971L5.96765 6.02324C6.31851 5.97002 6.6218 5.73969 6.77867 5.40727L9.03441 0.627855C9.42908 -0.209285 10.5705 -0.209285 10.9656 0.627855Z" fill="black"/>
</svg>
