<svg width="20" height="20" viewBox="0 0 20 20" fill="none" xmlns="http://www.w3.org/2000/svg">
<path d="M10 0C4.47748 0 0 4.47748 0 10C0 15.5232 4.47748 20 10 20C15.5232 20 20 15.5238 20 10C20 4.47748 15.5231 0 10 0ZM10 18.125C5.51253 18.125 1.87503 14.4875 1.87503 10C1.87503 5.51253 5.51253 1.87503 10 1.87503C14.4875 1.87503 18.125 5.51253 18.125 10C18.125 14.4875 14.4875 18.125 10 18.125Z" fill="black"/>
<path d="M8.59772 13.3333C8.39482 13.3333 8.19171 13.2616 8.03693 13.1181L5.23235 10.5196C4.92255 10.2326 4.92255 9.76732 5.23235 9.48029C5.54214 9.19326 6.04433 9.19326 6.35413 9.48029L8.59772 11.559L13.6459 6.8819C13.9557 6.59496 14.458 6.59487 14.7676 6.8819C15.0775 7.16893 15.0775 7.63433 14.7676 7.92125L9.15862 13.1181C9.00372 13.2615 8.80071 13.3333 8.59772 13.3333Z" fill="black"/>
</svg>
