<svg width="20" height="20" viewBox="0 0 20 20" fill="none" xmlns="http://www.w3.org/2000/svg">
<path d="M19.9829 18.8228L17.6687 6.97623C17.5755 6.49931 17.1233 6.15214 16.5951 6.15214H12.7463C13.4679 5.49997 13.9164 4.59396 13.9164 3.59335C13.9164 1.61195 12.1596 0 10 0C7.84053 0 6.0836 1.61195 6.0836 3.59335C6.0836 4.59396 6.53207 5.49997 7.2537 6.15214H3.40488C2.87672 6.15214 2.42455 6.49931 2.33134 6.97623L0.0171036 18.8228C-0.0398271 19.1145 0.046914 19.4143 0.254206 19.6415C0.461425 19.8687 0.767745 20 1.09064 20H18.9094C19.2323 20 19.5386 19.8687 19.7458 19.6415C19.953 19.4143 20.0398 19.1145 19.9829 18.8228ZM10 2.00135C10.9568 2.00135 11.7352 2.71549 11.7352 3.59335C11.7352 4.47121 10.9568 5.18542 10 5.18542C9.04327 5.18542 8.26485 4.47121 8.26485 3.59335C8.26485 2.71549 9.04327 2.00135 10 2.00135ZM9.71502 15.4855C9.65824 15.5816 9.54859 15.6414 9.4295 15.6414H8.91501C8.7997 15.6414 8.69296 15.5853 8.63465 15.494L7.36138 13.4996L6.54712 14.2623V15.1807C6.54712 15.4351 6.3223 15.6414 6.04499 15.6414C5.76768 15.6414 5.54287 15.4351 5.54287 15.1807V11.5384C5.54287 11.284 5.76768 11.0777 6.04499 11.0777C6.3223 11.0777 6.54712 11.284 6.54712 11.5384V13.1042L8.47963 11.1741C8.54115 11.1127 8.62796 11.0777 8.71885 11.0777H9.1604C9.29084 11.0777 9.40856 11.1492 9.45953 11.2594C9.51042 11.3695 9.48461 11.4969 9.39401 11.5829L8.05356 12.8551L9.70186 15.1808C9.76679 15.2725 9.77188 15.3894 9.71502 15.4855ZM14.6623 14.8778C14.6623 14.9683 14.6172 15.0544 14.5401 15.1109C14.3397 15.2576 14.0757 15.3893 13.7481 15.5059C13.3488 15.6481 12.9444 15.7191 12.5351 15.7191C12.0148 15.7191 11.5615 15.619 11.1745 15.4187C10.7878 15.2185 10.4971 14.9321 10.3026 14.5595C10.108 14.187 10.0108 13.7819 10.0108 13.3439C10.0108 12.8687 10.1194 12.4463 10.3365 12.077C10.5536 11.7075 10.8714 11.4244 11.29 11.2271C11.6087 11.0757 12.0058 10.9998 12.4808 10.9998C13.0983 10.9998 13.5806 11.1187 13.9278 11.3563C14.0783 11.4592 14.2054 11.5793 14.3093 11.7163C14.4086 11.8472 14.4288 12.0154 14.3629 12.163C14.297 12.3106 14.1542 12.4177 13.9832 12.447L13.9821 12.4472C13.7818 12.4816 13.5788 12.4002 13.4704 12.242C13.401 12.1407 13.3126 12.054 13.2052 11.9819C13.0117 11.8522 12.7702 11.7874 12.4808 11.7874C12.0419 11.7874 11.693 11.9151 11.4341 12.1703C11.1752 12.4256 11.0457 12.8044 11.0457 13.3066C11.0457 13.8483 11.1768 14.2545 11.4392 14.5253C11.7016 14.7961 12.0453 14.9315 12.4707 14.9315C12.6809 14.9315 12.8919 14.8937 13.1034 14.8179C13.3147 14.7421 13.4963 14.6503 13.6479 14.5425V13.9633H12.9168C12.6854 13.9633 12.4979 13.7912 12.4979 13.5789C12.4979 13.3666 12.6855 13.1946 12.9168 13.1946H14.3375C14.5169 13.1946 14.6623 13.328 14.6623 13.4926V14.8778Z" fill="black"/>
</svg>
