<?xml version="1.0" standalone="no"?>
<!DOCTYPE svg PUBLIC "-//W3C//DTD SVG 1.1//EN" "http://www.w3.org/Graphics/SVG/1.1/DTD/svg11.dtd" >
<!--
2024-7-8: Created with FontForge (http://fontforge.org)
-->
<svg xmlns="http://www.w3.org/2000/svg" xmlns:xlink="http://www.w3.org/1999/xlink" version="1.1">
<metadata>
Created by FontForge 20201107 at Mon Jul  8 12:57:07 2024
 By root

</metadata>
<defs>
<font id="Fishola-Icons" horiz-adv-x="512" >
  <font-face 
    font-family="Fishola-Icons"
    font-weight="400"
    font-stretch="normal"
    units-per-em="512"
    panose-1="2 0 5 3 0 0 0 0 0 0"
    ascent="448"
    descent="-64"
    bbox="-32.0002 -64.0243 640.006 448.015"
    underline-thickness="25.6"
    underline-position="-51.2"
    unicode-range="U+0020-F127"
  />
    <missing-glyph />
    <glyph glyph-name="space" unicode=" " horiz-adv-x="200" 
 />
    <glyph glyph-name="arrow" unicode="&#xf100;" 
d="M28.7803 144.018c-15.4307 0 -28.7803 12.2598 -28.7803 27.6816v23.7139c0 15.4229 12.9668 28.7227 28.3975 28.7227h343.406l-108.92 108.543c-5.27344 5.2666 -8.16602 11.9219 -8.16602 19.4111c0 7.49219 2.89258 14.5186 8.16602 19.7803l16.7607 16.7666
c5.26855 5.26172 12.29 8.16309 19.7803 8.16309c7.49609 0 14.5186 -2.89648 19.7891 -8.16309l184.622 -184.623c5.29199 -5.28223 8.18457 -12.334 8.16406 -19.873c0.0205078 -7.49512 -2.87207 -14.543 -8.16406 -19.835l-184.622 -184.606
c-5.27051 -5.27148 -12.2979 -8.16406 -19.7891 -8.16406c-7.49023 0 -14.5117 2.91602 -19.7803 8.18457l-16.7607 16.7676c-5.27344 5.28125 -8.16602 12.3701 -8.16602 19.8633s2.89258 14.6309 8.16602 19.9014l107.704 107.94h-342.606z" />
    <glyph glyph-name="calendar" unicode="&#xf101;" 
d="M451.999 408c33.085 0 60.001 -26.916 60.001 -60v-351.999c0 -33.085 -26.916 -60.001 -60.001 -60.001h-391.999c-33.084 0 -60 26.916 -60 60.001v351.999c0 33.084 26.916 60 60 60h24v40h40v-40h263.999v40h40.002v-40h23.998zM472 -3.99902v263.999h-432v-263.999
c0 -11.0283 8.97168 -20.001 20 -20.001h391.999c11.0283 0 20.001 8.97266 20.001 20.001zM472 300v48c0 11.0283 -8.97266 20 -20.001 20h-23.998v-40h-40.002v40h-263.999v-40h-40v40h-24c-11.0283 0 -20 -8.97168 -20 -20v-48h432zM116 218v-40.001h-40v40.001h40z
M196 218v-40.001h-40v40.001h40zM275.999 218v-40.001h-39.999v40.001h39.999zM355.999 218v-40.001h-39.998v40.001h39.998zM435.999 218v-40.001h-39.998v40.001h39.998zM116 137.999v-40h-40v40h40zM196 137.999v-40h-40v40h40zM275.999 137.999v-40h-39.999v40h39.999z
M355.999 137.999v-40h-39.998v40h39.998zM116 57.999v-40h-40v40h40zM196 57.999v-40h-40v40h40zM275.999 57.999v-40h-39.999v40h39.999zM355.999 57.999v-40h-39.998v40h39.998zM435.999 137.999v-40h-39.998v40h39.998z" />
    <glyph glyph-name="check" unicode="&#xf102;" 
d="M152.203 2.79297c-10.3887 0 -20.7871 3.96289 -28.7119 11.8936l-143.595 143.593c-15.8623 15.8623 -15.8623 41.5752 0 57.4365c15.8613 15.8613 41.5732 15.8613 57.4346 0l114.872 -114.872l258.467 258.462c15.8623 15.8564 41.5801 15.8613 57.4316 0
c15.8643 -15.8613 15.8643 -41.5801 0 -57.4355l-287.181 -287.184c-7.93066 -7.92773 -18.3242 -11.8936 -28.7178 -11.8936z" />
    <glyph glyph-name="chevron" unicode="&#xf103;" 
d="M5.11621 393.625c-3.41797 3.41895 -5.11621 7.35449 -5.11426 11.8037c0 4.44336 1.69824 8.38086 5.11523 11.7988l25.6504 25.6553c3.41699 3.4082 7.35254 5.11719 11.8057 5.11719c4.43848 0 8.375 -1.69824 11.793 -5.11719l201.631 -201.633l201.624 201.62
c3.41797 3.41895 7.35645 5.12793 11.8018 5.12793c4.44629 0 8.37988 -1.70898 11.7979 -5.12793l25.6465 -25.6445c3.42188 -3.41797 5.13281 -7.35352 5.13281 -11.7988c0 -4.44727 -1.70703 -8.37695 -5.13281 -11.8018l-239.069 -239.074
c-3.41797 -3.41992 -7.35449 -5.13184 -11.8008 -5.13184c-4.44531 0 -8.37598 1.71191 -11.791 5.13184z" />
    <glyph glyph-name="clock" unicode="&#xf104;" 
d="M256 448c140.8 0 256 -115.2 256 -256s-115.2 -256 -256 -256s-256 115.2 -256 256s115.2 256 256 256zM256 -12.7998c112.64 0 204.8 92.1602 204.8 204.8s-92.1602 204.8 -204.8 204.8s-204.8 -92.1602 -204.8 -204.8s92.1602 -204.8 204.8 -204.8zM268.798 320
v-133.12l115.199 -69.1201l-20.4795 -33.2793l-133.119 81.9199v153.6h38.3994z" />
    <glyph glyph-name="dashboard" unicode="&#xf105;" 
d="M197.332 277.332h-160c-20.5859 0 -37.332 16.7461 -37.332 37.3359v96c0 20.5859 16.7461 37.332 37.332 37.332h160c20.5898 0 37.3359 -16.7461 37.3359 -37.332v-96c0 -20.5898 -16.7461 -37.3359 -37.3359 -37.3359zM197.332 -64h-160
c-20.5859 0 -37.332 16.7471 -37.332 37.332v224c0 20.5898 16.7461 37.3359 37.332 37.3359h160c20.5898 0 37.3359 -16.7461 37.3359 -37.3359v-224c0 -20.585 -16.7461 -37.332 -37.3359 -37.332zM474.668 -64h-160c-20.5908 0 -37.3359 16.7451 -37.3359 37.332v96
c0 20.5908 16.7451 37.3359 37.3359 37.3359h160c20.585 0 37.332 -16.7451 37.332 -37.3359v-96c0 -20.5869 -16.7471 -37.332 -37.332 -37.332zM474.668 149.332h-160c-20.5908 0 -37.3359 16.7451 -37.3359 37.3359v224c0 20.5859 16.7451 37.332 37.3359 37.332h160
c20.585 0 37.332 -16.7461 37.332 -37.332v-224c0 -20.5908 -16.7471 -37.3359 -37.332 -37.3359z" />
    <glyph glyph-name="delete" unicode="&#xf106;" 
d="M96.498 -39.0293l-17.373 366.74h330.086l-17.375 -366.74c-0.583008 -13.9551 -12.0674 -24.9707 -26.0352 -24.9707h-243.268c-13.9668 0 -25.4512 11.0156 -26.0352 24.9707zM299.197 236.619v-209.526c0 -5.84766 4.74121 -10.583 10.5859 -10.583h16.9287
c5.84473 0 10.583 4.73828 10.583 10.583v209.526c0 5.84473 -4.74023 10.583 -10.583 10.583h-16.9287c-5.84766 0 -10.5859 -4.73926 -10.5859 -10.583zM225.12 236.619v-209.526c0 -5.84766 4.73926 -10.583 10.583 -10.583h16.9287
c5.84668 0 10.582 4.73828 10.582 10.583v209.526c0 5.84473 -4.73828 10.583 -10.582 10.583h-16.9287c-5.84473 0 -10.583 -4.73926 -10.583 -10.583zM151.039 236.619v-209.526c0 -5.84766 4.74023 -10.583 10.583 -10.583h16.9307
c5.84473 0 10.583 4.73828 10.583 10.583v209.526c0 5.84473 -4.73926 10.583 -10.583 10.583h-16.9307c-5.84473 0 -10.583 -4.73926 -10.583 -10.583zM420.774 421.325c9.03125 0 16.3506 -7.32129 16.3506 -16.3525v-51.3721h-385.925v51.373
c0 9.03125 7.32031 16.3535 16.3525 16.3535h112.229v21.2158c0 3.0127 2.44336 5.45703 5.45605 5.45703h117.852c3.0127 0 5.45801 -2.44434 5.45801 -5.45703v-21.2178h112.228z" />
    <glyph glyph-name="dot_empty" unicode="&#xf107;" 
d="M64 192c0 106.032 85.9678 192 192 192s192 -85.9678 192 -192s-85.9678 -192 -192 -192s-192 85.9678 -192 192zM0 192c0 -141.343 114.657 -256 256 -256s256 114.657 256 256s-114.657 256 -256 256s-256 -114.657 -256 -256z" />
    <glyph glyph-name="dot_full" unicode="&#xf108;" 
d="M0 192c0 141.385 114.615 256 256 256s256 -114.615 256 -256s-114.615 -256 -256 -256s-256 114.615 -256 256z" />
    <glyph glyph-name="download" unicode="&#xf109;" 
d="M368.003 224c6.27148 0 11.9678 -3.64844 14.5586 -9.37598c2.59277 -5.72754 1.63281 -12.4482 -2.52734 -17.1523l-112 -128.001c-3.04102 -3.45605 -7.42383 -5.4707 -12.0312 -5.4707c-4.6084 0 -8.99316 1.98438 -12.0332 5.4707l-112 128.001
c-4.12793 4.73633 -5.15137 11.4248 -2.52734 17.1523c2.5918 5.69629 8.28809 9.37598 14.5596 9.37598h64v208c0 8.83203 7.16797 16 16 16h64.001c8.83203 0 16 -7.16797 16 -16v-208h64zM443.732 0v96h68.2676v-128c0 -17.6943 -15.2578 -32 -34.1328 -32h-443.734
c-18.8408 0 -34.1328 14.3057 -34.1328 32v128h68.2666v-96h375.466z" />
    <glyph glyph-name="edit" unicode="&#xf10a;" 
d="M303.216 365.435l99.1943 -99.6777l-251.085 -252.313l-99.1367 99.6768zM477.677 389.475c13.2607 -13.3242 13.2607 -34.8125 0 -48.1377l-49.4258 -49.6689l-99.1934 99.6787l42.374 42.5811c17.1543 17.1797 44.915 17.1797 62.0107 0zM0.279297 -26.9844
l25.0518 113.115l99.1367 -99.6768l-110.534 -26.9316c-8.125 -1.98633 -15.46 5.33008 -13.6543 13.4932z" />
    <glyph glyph-name="error" unicode="&#xf10b;" 
d="M256 448c141.392 0 256 -114.623 256 -256c0 -141.409 -114.606 -256 -256 -256c-141.377 0 -256 114.606 -256 256c0 141.377 114.623 256 256 256zM256 -16c114.88 0 208 93.1201 208 208c0 114.879 -93.1201 207.999 -208 207.999
c-114.879 0 -207.999 -93.1201 -207.999 -207.999c0 -114.88 93.1201 -208 207.999 -208zM367.979 110.707c3.71973 -3.71973 6.73828 -16.8398 -3.36621 -26.9414c-10.1045 -10.1045 -23.2246 -7.08887 -26.9443 -3.36914l-81.6689 81.6699l-81.6689 -81.6699
c-3.71875 -3.71973 -16.8379 -6.73535 -26.9424 3.36914c-10.1035 10.1016 -7.08691 23.2217 -3.36816 26.9414l81.6699 81.6699l-81.6699 81.6689c-3.71973 3.7207 -6.73438 16.8398 3.36816 26.9434c10.1035 10.1025 23.2227 7.08691 26.9424 3.36621l81.668 -81.6689
l81.6699 81.6699c3.71973 3.71973 16.8398 6.73535 26.9414 -3.36816c10.1045 -10.1035 7.08887 -23.2217 3.36914 -26.9424l-81.6689 -81.6689z" />
    <glyph glyph-name="eye" unicode="&#xf10c;" 
d="M288 416c80.7998 0 145.5 -36.7998 192.6 -80.5996c46.8008 -43.4004 78.1006 -95.4004 93 -131.101c3.30078 -7.89941 3.30078 -16.7002 0 -24.5996c-14.8994 -35.7002 -46.1992 -87.6006 -93 -131.101c-47.0996 -43.7998 -111.8 -80.5996 -192.6 -80.5996
s-145.5 36.7998 -192.6 80.5996c-46.8008 43.4004 -78.1006 95.4004 -92.9004 131.101c-3.2998 7.89941 -3.2998 16.7002 0 24.5996c14.7998 35.7002 46.0996 87.7002 92.9004 131.101c47.0996 43.7998 111.8 80.5996 192.6 80.5996zM144 192
c0 -79.4756 64.5244 -144 144 -144s144 64.5244 144 144s-64.5244 144 -144 144s-144 -64.5244 -144 -144zM288 256c0 7.09961 -1.2002 13.9004 -3.2998 20.2998c-1.7998 5.60059 1.59961 11.9004 7.39941 11.7002c40.8008 -1.7002 77.5 -29.5996 88.6006 -71.0996
c13.7002 -51.2002 -16.7002 -103.9 -67.9004 -117.601s-103.899 16.7002 -117.6 67.9004c-1.90039 6.89941 -2.90039 13.7998 -3.2002 20.7002c-0.200195 5.7998 6.2002 9.19922 11.7002 7.39941c6.39941 -2.09961 13.2002 -3.2998 20.2998 -3.2998
c35.2998 0 64 28.7002 64 64z" />
    <glyph glyph-name="eye-slash" unicode="&#xf10d;" 
d="M38.7998 442.9l111.9 -87.7002c44.2998 34.5 101.1 60.7998 169.3 60.7998c80.7998 0 145.5 -36.7998 192.5 -80.5996c46.7998 -43.4004 78.0996 -95.4004 93 -131.101c3.2998 -7.89941 3.2998 -16.7002 0 -24.5996c-13.5 -32.2998 -40.2998 -77.7998 -79.9004 -118.4
l105.2 -82.3994c10.4004 -8.2002 12.2998 -23.3008 4.10059 -33.7002c-8.2002 -10.4004 -23.3008 -12.2998 -33.7002 -4.10059l-592 464c-10.4004 8.2002 -12.2998 23.3008 -4.10059 33.7002c8.2002 10.4004 23.3008 12.2998 33.7002 4.10059zM223.1 298.5
l0.100586 -0.0996094l90.2998 -70.8008c4.2002 8.5 6.59961 18.1006 6.59961 28.3008c0 7.09961 -1.19922 13.8994 -3.2998 20.2998c-1.7998 5.59961 1.60059 11.8994 7.40039 11.7002c40.7998 -1.7002 77.5 -29.6006 88.5996 -71.1006
c5.7998 -21.8994 3.60059 -44 -4.7998 -63.2998l38.5996 -30.2002c11.1006 20.4004 17.4004 43.7998 17.4004 68.7002c0 79.5 -64.5 144 -144 144c-37.2998 0 -71.4004 -14.2002 -96.9004 -37.5zM373 58.0996l73.2002 -57.5996
c-36.2998 -19.5996 -78.4004 -32.5 -126.2 -32.5c-80.7998 0 -145.5 36.7998 -192.5 80.5996c-46.7998 43.4004 -78.0996 95.4004 -93 131.101c-3.2998 7.89941 -3.2998 16.7002 0 24.5996c9.5 22.9004 25.7998 52.5 48.5996 82.2002l94.3008 -74.2998
c-0.900391 -6.60059 -1.40039 -13.2998 -1.40039 -20.2002c0 -79.5 64.5 -144 144 -144c18.7002 0 36.5996 3.59961 53 10.0996z" />
    <glyph glyph-name="faq" unicode="&#xf10e;" 
d="M0 192c0 141.503 114.516 256 256 256c141.504 0 256 -114.516 256 -256c0 -141.504 -114.517 -256 -256 -256h-236c-11.0459 0 -20 8.95508 -20 19.999v236.001zM252.689 307.998c-47.0566 0 -68.668 -27.8848 -68.668 -46.708
c0 -13.5947 11.502 -19.8691 20.9141 -19.8691c7.92773 0 11.1562 4.76074 14.8936 10.2725c5.13672 7.5752 11.2344 16.5674 31.8145 16.5674c17.4307 0 31.3721 -7.66895 31.3721 -23.7031c0 -15.4023 -13.0684 -25.4365 -24.123 -33.9219
c-2.45508 -1.88477 -4.80859 -3.69238 -6.89941 -5.4668c-10.1084 -8.71387 -23.3545 -23.0068 -23.3545 -52.9824c0 -18.124 4.87891 -23.3545 19.1709 -23.3545c17.0811 0 20.5654 7.66699 20.5654 14.29c0 18.127 0.350586 28.585 19.5205 43.5713
c9.41309 7.32031 39.0391 31.0234 39.0391 63.79c0 32.7656 -29.626 57.5146 -74.2451 57.5146zM221.669 77.9395c0 -14.29 11.5029 -26.8389 26.4912 -26.8389c14.9873 0 26.8398 12.5459 26.8398 26.8389c0 14.6406 -12.1982 26.8418 -26.8398 26.8418
c-14.6396 0 -26.4912 -12.2012 -26.4912 -26.8418z" />
    <glyph glyph-name="files" unicode="&#xf10f;" 
d="M451.451 428.348h0.00195312c33.3857 0 60.5469 -27.1611 60.5469 -60.5469v-71.1699c0 -8.80078 -7.13184 -15.9336 -15.9336 -15.9336h-73.2949v-249.094c0 -41.8789 -34.0713 -75.9502 -75.9502 -75.9502c-1.24707 0 -2.48828 0.0283203 -3.72266 0.0898438
v-0.0898438h-267.148v-0.00292969l-0.378906 0.00292969h-2.80762v0.0634766c-40.4072 1.67676 -72.7637 35.0723 -72.7637 75.8838v38.7734c0 8.79883 7.13281 15.9336 15.9336 15.9336h54.8135l2.01562 284.266c0 31.8027 26.2109 57.7744 58.4238 57.7744h320.265z
M270.871 31.6035v22.8379h-239.004v-22.8408c0 -24.207 19.6182 -43.9268 43.7949 -44.0811h209.343c-8.89355 12.4365 -14.1338 27.6592 -14.1338 44.084zM451.451 396.481c-15.8105 0 -28.6797 -12.8633 -28.6797 -28.6807v-55.2363h57.3613v55.2363
c0 15.8164 -12.8691 28.6797 -28.6797 28.6807h-0.00195312zM154.556 339.651c-8.80078 0 -15.9336 -7.13281 -15.9336 -15.9346c0 -8.80078 7.13281 -15.9336 15.9336 -15.9336h82.3242c8.80078 0 15.9336 7.13281 15.9336 15.9336
c0 8.80176 -7.13379 15.9346 -15.9336 15.9346h-82.3242zM332.48 275.917h-177.925c-8.80078 0 -15.9336 -7.13281 -15.9336 -15.9336c0 -8.80176 7.13281 -15.9346 15.9336 -15.9346h177.925c8.80078 0 15.9326 7.13281 15.9326 15.9346
c0 8.80078 -7.13184 15.9336 -15.9326 15.9336zM154.556 212.183c-8.80078 0 -15.9336 -7.13281 -15.9336 -15.9336s7.13281 -15.9355 15.9336 -15.9355h177.925c8.80078 0 15.9326 7.12988 15.9326 15.9355c0 8.80078 -7.13184 15.9336 -15.9326 15.9336h-177.925z
M332.48 148.449h-177.925c-8.80078 0 -15.9336 -7.13477 -15.9336 -15.9355c0 -8.80176 7.13281 -15.9336 15.9336 -15.9336h177.925c8.80078 0 15.9326 7.13184 15.9326 15.9336c0 8.80078 -7.13184 15.9355 -15.9326 15.9355z" />
    <glyph glyph-name="fish" unicode="&#xf110;" 
d="M414.096 249.437l-61.7549 -22.2598c-4.05566 48.3223 -16.0742 86.8398 -32.1182 117.505c31.2061 -8.45801 77.0459 -26.1914 103.662 -61.1416c2.08691 -2.73926 3.50684 -5.94629 4.14258 -9.35547c0.634766 -3.41016 0.46582 -6.9248 -0.489258 -10.2559
c-0.958008 -3.33105 -2.67285 -6.38184 -5.00977 -8.90137c-2.33789 -2.51953 -5.22754 -4.43652 -8.43262 -5.59082zM78.6855 211.878c2.35449 -6.7334 5.00293 -13.3418 7.94824 -19.8252c13.6133 -29.5312 32.5156 -56.2012 55.7314 -78.6348l-39.8779 -28.6797
c-2.77832 -1.99609 -5.98145 -3.29199 -9.34668 -3.77539c-3.36426 -0.486328 -6.79297 -0.148438 -10.0049 0.985352c-3.21094 1.13379 -6.1123 3.03125 -8.46582 5.53418c-2.35254 2.50391 -4.08887 5.5459 -5.06543 8.86816
c-11.6641 39.6729 -1.5498 84.6133 9.08105 115.527zM510.101 62.6973c1.09277 -1.61523 1.74023 -3.50195 1.87402 -5.46094c0.132812 -1.95801 -0.250977 -3.91895 -1.11133 -5.67285c-0.942383 -1.92285 -22.3438 -44.6133 -65.8838 -49.4209
c-0.0439453 -7.94141 0.657227 -15.8691 2.09668 -23.6719c2.09668 -13.8936 4.0625 -27.0215 -0.535156 -36.416c-1.08008 -2.20703 -2.85938 -3.97559 -5.0459 -5.02344c-2.18848 -1.04395 -4.65918 -1.30469 -7.00977 -0.739258
c-2.35254 0.568359 -4.44629 1.92969 -5.94629 3.86523c-1.49805 1.93262 -2.31445 4.3291 -2.31152 6.79688c0 34.7061 -44.8389 65.7793 -86.4922 79.9697c-122.954 41.8604 -199.382 98.8926 -233.646 174.347c-29.9209 65.8916 -26.5752 146.587 9.94824 239.844
c0.826172 2.07129 2.24805 3.83789 4.07812 5.06738c1.8291 1.22852 3.98047 1.86133 6.16992 1.81641c36.6816 -2.66113 72.1533 -14.5254 103.27 -34.542c46.9199 -30.1973 102.849 -93.3701 102.849 -222.825c0 -37.1514 11.3535 -66.4551 33.7461 -87.0996
c48.3711 -44.582 133.188 -36.2598 134.033 -36.165c1.91016 0.200195 3.84082 -0.12793 5.58398 -0.947266c1.74609 -0.821289 3.24316 -2.10645 4.33398 -3.72168zM171.564 322.053c5.6875 0 11.1416 2.30762 15.1641 6.41504
c4.02148 4.10742 6.28125 9.67871 6.28125 15.4883c0 4.33203 -1.25781 8.56641 -3.61426 12.1689c-2.35645 3.60156 -5.70605 6.40918 -9.625 8.06738c-3.91797 1.65723 -8.23047 2.09082 -12.3896 1.24609c-4.16016 -0.844727 -7.98145 -2.93164 -10.9805 -5.99414
c-3 -3.06348 -5.04199 -6.9668 -5.86914 -11.2158c-0.828125 -4.24805 -0.40332 -8.65234 1.21973 -12.6543c1.62305 -4.00293 4.37207 -7.42383 7.89844 -9.83105c3.52734 -2.40625 7.67285 -3.69043 11.915 -3.69043zM450.348 343.955
c-11.8428 0 -21.4453 9.80664 -21.4453 21.9033c0 12.0977 9.60254 21.9043 21.4453 21.9043c11.8447 0 21.4453 -9.80664 21.4453 -21.9043c0 -12.0967 -9.60059 -21.9033 -21.4453 -21.9033zM193.008 -50.3096c-11.8438 0 -21.4453 9.80566 -21.4453 21.9043
c0 12.0957 9.60156 21.9033 21.4453 21.9033s21.4453 -9.80762 21.4453 -21.9033c0 -12.0986 -9.60156 -21.9043 -21.4453 -21.9043zM21.4453 259.079c-11.8438 0 -21.4453 9.80566 -21.4453 21.9033c0 12.0967 9.60156 21.9033 21.4453 21.9033
s21.4453 -9.80664 21.4453 -21.9033c0 -12.0977 -9.60156 -21.9033 -21.4453 -21.9033z" />
    <glyph glyph-name="fishing" unicode="&#xf111;" 
d="M461.637 234.513c-22.3506 -22.3516 -55.9736 -26.6992 -82.7285 -13.0752l-186.462 -186.463c-35.3721 -35.3711 -92.9258 -35.3711 -128.298 0c-35.3721 35.3721 -35.3721 92.9277 0 128.3l51.5166 51.5156c6.28418 6.28418 15.7334 8.16406 23.9443 4.76367
c8.21191 -3.39941 13.5635 -11.4111 13.5635 -20.2979v-63.8496c-0.000976562 -12.1348 -9.83887 -21.9727 -21.9717 -21.9727c-12.1338 0.00488281 -21.9707 9.84082 -21.9727 21.9727l0.00195312 10.8086l-14.0107 -14.0088
c-18.2373 -18.2373 -18.2373 -47.915 0.00195312 -66.1553c18.2393 -18.2373 47.915 -18.2373 66.1543 0.00195312l186.462 186.46c-13.625 26.7529 -9.27832 60.377 13.0732 82.7266c27.7686 27.7705 72.9551 27.7705 100.724 0
c27.7734 -27.7715 27.7734 -72.9561 0.00195312 -100.727zM391.979 265.585c10.6396 -10.6377 27.9473 -10.6377 38.5869 0c10.6367 10.6367 10.6338 27.9453 -0.00292969 38.583s-27.9443 10.6377 -38.5811 0s-10.6396 -27.9463 -0.00292969 -38.583z" />
    <glyph glyph-name="fullscreen" unicode="&#xf112;" 
d="M287.408 193.43c-5.45508 -5.45703 -14.7402 -5.61035 -20.4844 0.134766l-8.83203 8.83203c-5.74414 5.74512 -6.11328 15.2822 -0.658203 20.7383l95.8135 95.8125l-78.9375 1.91895c-3.8252 0.0966797 -7.32715 1.55273 -10.1172 4.3418
c-2.79102 2.79102 -4.38281 6.43066 -4.48047 10.2549l-0.320312 12.1699c-0.0947266 3.82324 1.30859 7.38672 3.95605 10.0342c2.64941 2.65039 6.20996 4.05469 10.0352 3.95605l134.039 -3.48926c3.83691 -0.0976562 7.4873 -1.70117 10.2881 -4.51562
c2.79785 -2.78516 4.40039 -6.43262 4.50098 -10.2734l3.4834 -134.033c0.100586 -3.8252 -1.30762 -7.3877 -3.95508 -10.0361c-2.64941 -2.64746 -6.21582 -4.0459 -10.043 -3.94531l-12.1699 0.319336c-3.83203 0.103516 -7.49609 1.7207 -10.2861 4.51074
c-2.79004 2.79102 -4.42578 6.47266 -4.52344 10.2998l-2.125 78.2822l-95.5283 -95.5293zM222.029 188.012c5.45605 5.4541 14.7412 5.6084 20.4854 -0.135742l8.83301 -8.83203c5.74316 -5.74512 6.11426 -15.2832 0.657227 -20.7383l-95.8125 -95.8135l78.9365 -1.91699
c3.82617 -0.0976562 7.32812 -1.55469 10.1172 -4.3418c2.79004 -2.79297 4.38477 -6.43164 4.47949 -10.2559l0.320312 -12.1699c0.0966797 -3.8252 -1.30566 -7.38574 -3.95312 -10.0352c-2.65039 -2.64941 -6.21289 -4.05273 -10.0371 -3.95508l-134.038 3.48926
c-3.83789 0.0966797 -7.4873 1.69922 -10.2881 4.51562c-2.7998 2.78516 -4.40137 6.43262 -4.50098 10.2734l-3.48438 134.033c-0.0996094 3.8252 1.30762 7.38574 3.95703 10.0352c2.64746 2.64746 6.21484 4.04492 10.041 3.94531l12.1699 -0.320312
c3.83203 -0.101562 7.49512 -1.71973 10.2861 -4.51074c2.79102 -2.79004 4.42676 -6.47168 4.52441 -10.2988l2.125 -78.2822l95.5293 95.5293zM51.2002 345.6c0 15.7891 0.0371094 28.0381 0.610352 36.5859c0.427734 6.36621 1.2334 10.5176 1.77246 12.3086
c1.1123 0.34082 3.32812 0.839844 7.58105 1.29785c8.41211 0.90332 22.2998 1.00781 41.2363 1.00781h307.199c15.7891 0 28.0381 -0.0371094 36.5859 -0.610352c6.36621 -0.427734 10.5176 -1.2334 12.3086 -1.77246c0.34082 -1.1123 0.839844 -3.32812 1.29785 -7.58105
c0.90332 -8.41211 1.00781 -22.2998 1.00781 -41.2363v-307.199c0 -15.7891 -0.0371094 -28.0381 -0.610352 -36.5859c-0.427734 -6.36621 -1.2334 -10.5176 -1.77246 -12.3086c-1.1123 -0.34082 -3.32812 -0.839844 -7.58105 -1.29785
c-8.41211 -0.90332 -22.2998 -1.00781 -41.2363 -1.00781h-307.199c-15.7891 0 -28.0381 0.0371094 -36.5859 0.610352c-6.36621 0.427734 -10.5176 1.2334 -12.3086 1.77246c-0.34082 1.1123 -0.839844 3.32812 -1.29785 7.58105
c-0.90332 8.41211 -1.00781 22.2998 -1.00781 41.2363v307.199zM0 345.6v-307.199c0 -23.7305 -0.388672 -40.6885 2.75195 -56.4453c2.49023 -12.498 8.91406 -26.6592 22.2441 -35.1904c9.97363 -6.38379 20.3291 -8.35254 30.6426 -9.46094
c15.0371 -1.61621 27.7715 -1.30371 46.7617 -1.30371h307.199c23.7305 0 40.6885 -0.388672 56.4453 2.75195c12.498 2.49023 26.6592 8.91406 35.1904 22.2441c6.38379 9.97363 8.35254 20.3291 9.46094 30.6426c1.61621 15.0371 1.30371 27.7715 1.30371 46.7617v307.199
c0 18.9902 0 34.6338 -1.30371 46.7617c-1.1084 10.3135 -3.07715 20.6689 -9.46094 30.6426c-8.53125 13.3301 -22.6924 19.7539 -35.1904 22.2441c-15.7568 3.14062 -32.7148 2.75195 -56.4453 2.75195h-307.199c-18.9902 0 -34.6338 0 -46.7617 -1.30371
c-10.3135 -1.1084 -20.6689 -3.07715 -30.6426 -9.46094c-13.3301 -8.53125 -19.7539 -22.6924 -22.2441 -35.1904c-3.14062 -15.7568 -2.75195 -32.7148 -2.75195 -56.4453z" />
    <glyph glyph-name="gallery" unicode="&#xf113;" 
d="M469.333 405.333c23.4668 0 42.667 -19.1992 42.667 -42.666v-213.334c0 -23.4668 -19.2002 -42.666 -42.667 -42.666h-341.333c-23.4668 0 -42.667 19.1992 -42.667 42.666l0.213867 256c0 23.4668 18.9863 42.667 42.4531 42.667h128l42.667 -42.667h170.666z
M0 362.667h42.667v-298.667h384v-42.667h-384c-23.4668 0 -42.667 19.2002 -42.667 42.667l0.212891 192h-0.212891v106.667zM149.333 170.667l96 128l74.667 -96.2139l53.333 64.2139l74.667 -96h-298.667zM128 149.333h341.333v213.334h-188.373l-12.5869 12.5859
l-30.0801 30.0801h-110.293v-256z" />
    <glyph glyph-name="home" unicode="&#xf114;" 
d="M503.406 206.946c11.458 -11.4766 11.458 -30.0449 0 -41.5039c-5.73438 -5.73438 -13.248 -8.59082 -20.7646 -8.59082c-7.49805 0 -14.999 2.85449 -20.7539 8.59082l-194.032 194.039c-6.28711 6.26855 -17.4268 6.26855 -23.7461 -0.0185547l-194.001 -194.021
c-11.4541 -11.4736 -30.0596 -11.4736 -41.5186 0c-11.4531 11.459 -11.4531 30.0283 0 41.5039l194.02 194.016c28.5 28.5508 78.166 28.6006 106.73 0.0517578l57.7773 -57.7793v30.9443c0 16.208 13.1328 29.3428 29.3271 29.3428
c16.2324 0 29.3652 -13.1348 29.3652 -29.3428v-89.6367zM266.194 303.764l170.642 -170.61c2.70605 -2.69336 4.22168 -6.36914 4.22168 -10.207v-124.437c0 -29.1992 -23.6748 -52.874 -52.875 -52.874h-84.4951v130.852h-95.3906v-130.852h-84.4941
c-29.1992 0 -52.875 23.6748 -52.875 52.874v124.437c0 3.83789 1.52832 7.51367 4.22266 10.207l170.659 170.61c5.62012 5.63379 14.7471 5.63379 20.3848 0z" />
    <glyph glyph-name="info" unicode="&#xf115;" 
d="M364.301 -8.74707l-7.28613 -29.2432c-21.8564 -8.47168 -39.3164 -14.9199 -52.3184 -19.3516c-13.0146 -4.44629 -28.1396 -6.6582 -45.3711 -6.6582c-26.4619 0 -47.0439 6.36426 -61.7236 19.0059c-14.6787 12.6924 -22.0215 28.7764 -22.0215 48.2891
c0 7.55176 0.533203 15.3213 1.64062 23.2373c1.11719 7.92578 2.89258 16.8496 5.32324 26.8262l27.3164 94.9326c2.43066 9.08984 4.49609 17.7021 6.15039 25.8477c1.67773 8.09473 2.48633 15.542 2.48633 22.2461c0 12.123 -2.55664 20.6035 -7.64551 25.3711
c-5.08984 4.75391 -14.8008 7.16797 -29.2188 7.16797c-7.0625 0 -14.3203 -1.11133 -21.7178 -3.25781c-7.43164 -2.15723 -13.7822 -4.24023 -19.1152 -6.17676l7.30469 29.2666c17.8955 7.1543 35 13.2803 51.3623 18.3643
c16.3623 5.09863 31.8223 7.64941 46.4453 7.64941c26.2803 0 46.5576 -6.23633 60.7988 -18.708c14.2393 -12.4814 21.3584 -28.6611 21.3584 -48.5996c0 -4.125 -0.46875 -11.3945 -1.47266 -21.7822c-0.982422 -10.4121 -2.81055 -19.9531 -5.47266 -28.6289
l-27.2002 -94.5537c-2.22949 -7.59277 -4.23438 -16.2764 -5.97754 -26.0449c-1.7998 -9.70508 -2.66016 -17.1191 -2.66016 -22.0957c0 -12.5547 2.85254 -21.125 8.56641 -25.6816c5.75977 -4.55664 15.6748 -6.82227 29.7617 -6.82227
c6.61328 0 14.1367 1.14941 22.498 3.41211c8.33789 2.2627 14.418 4.25 18.1885 5.98828zM371.2 388.208c0 -16.4736 -6.32324 -30.542 -19.0312 -42.1104c-12.6748 -11.6094 -27.9473 -17.4189 -45.8135 -17.4189c-17.9229 0 -33.2344 5.80957 -46.0547 17.4189
c-12.7949 11.5723 -19.207 25.6367 -19.207 42.1104c0 16.4424 6.41211 30.5342 19.207 42.249c12.7979 11.6973 28.1367 17.543 46.0547 17.543c17.8613 0 33.1387 -5.85938 45.8135 -17.543c12.7178 -11.7148 19.0312 -25.8115 19.0312 -42.249z" />
    <glyph glyph-name="lake" unicode="&#xf116;" 
d="M243.207 -64c-105.872 0 -192.007 84.0938 -192.007 187.448c0 96.6436 157.956 294.7 175.963 316.963c3.87598 4.78906 9.78906 7.58887 16.0371 7.58887c6.24707 0 12.1611 -2.79395 16.0381 -7.58887c18.0127 -22.2686 175.962 -220.319 175.962 -316.963
c0.0078125 -103.354 -86.1211 -187.448 -191.993 -187.448zM243.207 395.342c-53.4609 -69.2344 -151.13 -208.779 -151.13 -271.894c0 -81.3516 67.7949 -147.54 151.13 -147.54c83.334 0 151.13 66.1807 151.13 147.54
c-0.00683594 63.1143 -97.6768 202.659 -151.13 271.894zM243.207 15.7871c-11.2891 0 -20.4385 8.93457 -20.4385 19.9561c0 11.0205 9.14941 19.9551 20.4385 19.9551c38.2627 0 69.3975 30.374 69.3975 67.7295c0 11.0205 9.14941 19.9531 20.4365 19.9531
c11.2812 0 20.4385 -8.93262 20.4385 -19.9531c-0.00488281 -59.3506 -49.4746 -107.641 -110.272 -107.641z" />
    <glyph glyph-name="logout" unicode="&#xf117;" 
d="M256.85 405.334c-11.7578 0 -21.2617 9.53613 -21.2617 21.333s9.50391 21.333 21.2617 21.333h191.363c35.1689 0 63.7871 -28.7148 63.7871 -63.999v-384.001c0 -35.2842 -28.6182 -64 -63.7871 -64h-191.363c-11.7578 0 -21.2617 9.53809 -21.2617 21.335
s9.50391 21.333 21.2617 21.333h191.363c11.7373 0 21.2627 9.55566 21.2627 21.332v384.002c0 11.7744 -9.52539 21.332 -21.2627 21.332h-191.363zM6.33594 176.812c-4.06055 4.03223 -6.33594 9.47461 -6.33594 15.1885c0 5.7168 2.2959 11.1787 6.33594 15.1895
l129.276 128c4.125 4.09668 9.52441 6.14453 14.9258 6.14453c5.48633 0 10.9717 -2.13281 15.1387 -6.35742c8.22852 -8.38379 8.16406 -21.8877 -0.212891 -30.165l-92.3848 -91.4766h247.559c11.7578 0 21.2627 -9.53711 21.2627 -21.334
c0 -11.7979 -9.50488 -21.333 -21.2627 -21.333h-247.559l92.3848 -91.4766c8.37793 -8.27637 8.46289 -21.7812 0.212891 -30.165s-21.7295 -8.49121 -30.0645 -0.214844z" />
    <glyph glyph-name="magnifying-glass" unicode="&#xf118;" 
d="M505.73 -27.6377c8.3584 -8.25391 8.3584 -21.8398 0 -30.0928c-8.3584 -8.3584 -21.8389 -8.3584 -30.1973 0l-123.09 122.985c-37.1973 -30.5127 -84.7412 -48.7969 -136.672 -48.7969c-119.223 0 -215.771 96.6533 -215.771 215.771
c0 119.118 96.5488 215.771 215.771 215.771c119.117 0 215.771 -96.6533 215.771 -215.771c0 -51.9307 -18.3887 -99.5791 -48.9014 -136.776zM215.771 59.4023c95.2939 0 172.932 77.5322 172.932 172.826c0 95.2949 -77.6377 172.931 -172.932 172.931
c-95.3994 0 -172.931 -77.6357 -172.931 -172.931c0 -95.2939 77.5312 -172.826 172.931 -172.826z" />
    <glyph glyph-name="menu" unicode="&#xf119;" 
d="M0 396.8c0 51.2002 0 51.2002 51.2002 51.2002h409.6c51.2002 0 51.2002 0 51.2002 -51.2002v0c0 -51.2002 0 -51.2002 -51.2002 -51.2002h-409.6c-51.2002 0 -51.2002 0 -51.2002 51.2002v0zM0 192c0 51.2002 0 51.2002 51.2002 51.2002h409.6
c51.2002 0 51.2002 0 51.2002 -51.2002v0c0 -51.2002 0 -51.2002 -51.2002 -51.2002h-409.6c-51.2002 0 -51.2002 0 -51.2002 51.2002v0zM0 -12.7998c0 51.2002 0 51.2002 51.2002 51.2002h409.6c51.2002 0 51.2002 0 51.2002 -51.2002v0
c0 -51.2002 0 -51.2002 -51.2002 -51.2002h-409.6c-51.2002 0 -51.2002 0 -51.2002 51.2002v0z" />
    <glyph glyph-name="photo" unicode="&#xf11a;" 
d="M323.082 83.1611c-17.751 -15.5234 -41.2617 -24.9805 -67.082 -24.9805c-25.8086 0 -49.3301 9.45703 -67.082 24.9805c-20.2812 17.7314 -33.0293 43.3896 -33.0293 71.9238c0 28.5312 12.748 54.1914 33.0293 71.9102c17.7529 15.5361 41.2734 24.9824 67.082 24.9824
c25.8203 0 49.3311 -9.45703 67.082 -24.9824c20.2832 -17.7305 33.0195 -43.3789 33.0195 -71.9131c0 -28.5312 -12.7363 -54.1797 -33.0195 -71.9209zM512 20.0908c0 -18.166 -15.2139 -32.8906 -33.9785 -32.8906h-444.042c-18.7656 0 -33.9795 14.7246 -33.9795 32.8906
v264.938c0 18.165 15.2139 32.8916 33.9795 32.8916h67.1904c14.4727 0 27.3662 8.87012 32.1104 22.1084l12.4023 34.6514c4.74414 13.2393 17.6279 22.1191 32.1104 22.1191h198.215c14.4717 0 27.3535 -8.87988 32.0967 -22.1191l12.4141 -34.6514
c4.74316 -13.2393 17.6279 -22.1084 32.0996 -22.1084h25.4004c18.7676 0 33.9814 -14.7266 33.9814 -32.8916v-264.938zM397.573 155.082c0 75.6836 -63.3857 137.037 -141.573 137.037c-78.1885 0 -141.573 -61.3535 -141.573 -137.037
c0 -75.6807 63.3848 -137.034 141.573 -137.034c78.1875 0 141.573 61.3535 141.573 137.034zM53.9375 242.822c15.6514 0 28.3389 12.2803 28.3389 27.4297s-12.6875 27.4297 -28.3389 27.4297c-15.6504 0 -28.3379 -12.2803 -28.3379 -27.4297
s12.6875 -27.4297 28.3379 -27.4297z" />
    <glyph glyph-name="plus" unicode="&#xf11b;" 
d="M484.214 227.723c8.76758 0 27.7861 -11.9062 27.7861 -35.7207c0 -23.8154 -19.0156 -35.7217 -27.7832 -35.7217h-192.494v-192.497c0 -8.76465 -11.9072 -27.7803 -35.7227 -27.7803c-23.8145 0 -35.7217 19.0156 -35.7217 27.7803v192.497h-192.495
c-8.76855 0 -27.7832 11.9092 -27.7832 35.7217s19.0146 35.7207 27.7832 35.7197h192.494v192.495c0 8.76855 11.9082 27.7832 35.7217 27.7832c23.8145 0 35.7207 -19.0137 35.7207 -27.7832v-192.494h192.494z" />
    <glyph glyph-name="profile" unicode="&#xf11c;" 
d="M364.439 322.798c0 -69.1455 -48.5508 -125.199 -108.432 -125.199c-59.8857 0 -108.435 56.0537 -108.435 125.199c0 69.1484 15.9424 125.202 108.435 125.202c92.4902 0 108.432 -56.0537 108.432 -125.202zM315.379 187.991
c126.636 -21.7266 143.184 -56.0488 145.19 -176.505c0.12793 -7.70312 0.197266 -9.03613 0.230469 -8.34766c-0.00488281 -2.04297 -0.0078125 -5.0459 -0.0078125 -9.3623c0 0 -30.1514 -57.7764 -204.787 -57.7764c-174.639 0 -204.788 57.7764 -204.788 57.7764
c0 6.7207 -0.00878906 10.5732 -0.0166016 12.6572c0.0332031 -1.11426 0.121094 -0.609375 0.310547 8.96777c2.30859 117.286 19.8633 151.101 145.116 172.59c0 0 17.8291 -21.5938 59.3779 -21.5938s59.374 21.5938 59.374 21.5938z" />
    <glyph glyph-name="redo" unicode="&#xf11d;" 
d="M487.619 391.112v-142.223c0 -11.1104 -9.20605 -20.3174 -20.3164 -20.3174h-142.225c-8.25293 0 -15.5547 5.0791 -18.7295 12.6982c-3.17383 7.30176 -1.58691 16.1904 4.44531 21.9053l43.8096 43.8096c-29.8418 27.6191 -69.207 43.4922 -110.794 43.4922
c-89.5244 0 -162.54 -73.0166 -162.54 -162.539c0 -89.5244 73.0156 -162.541 162.54 -162.541c50.4756 0 97.1436 22.8574 128.254 63.1758c1.58691 2.22168 4.44434 3.49121 7.30176 3.80859c2.85742 0 5.71484 -0.953125 7.93555 -2.85742l43.4932 -43.8105
c3.80859 -3.49121 3.80859 -9.52246 0.634766 -13.6504c-46.3486 -55.8711 -114.92 -87.9346 -187.619 -87.9346c-134.286 0 -243.81 109.523 -243.81 243.81c0 134.285 109.523 243.809 243.81 243.809c62.5391 0 123.175 -25.0791 167.936 -67.3018l41.2705 40.9521
c5.71484 6.03223 14.6035 7.61914 22.2227 4.44531c7.30176 -3.1748 12.3809 -10.4766 12.3809 -18.7305z" />
    <glyph glyph-name="send" unicode="&#xf11e;" 
d="M186.666 55.9414l86.7627 -30.9434l-57.8779 -82.1855c-3.07227 -4.36523 -7.89355 -6.8125 -12.8857 -6.8125c-1.66309 0 -3.34863 0.266602 -4.99121 0.824219c-6.57129 2.27051 -11.0078 8.6582 -11.0078 15.8721v103.245zM505.28 444.903
c4.9043 -3.65039 7.42383 -9.83887 6.54785 -16.0723l-58.667 -411.825c-0.704102 -4.87402 -3.45605 -9.21582 -7.50879 -11.7959c-2.53906 -1.60254 -5.41895 -2.42676 -8.32031 -2.42676c-1.74805 0 -3.49902 0.311523 -5.16309 0.890625l-223.636 79.7588
l219.903 276.457l-284.18 -253.55l-133.439 47.5928c-6.03809 2.16113 -10.2832 7.85938 -10.7734 14.5361c-0.469727 6.65527 2.87988 12.9785 8.55469 16.0742l479.998 261.562c5.33203 2.91699 11.7754 2.42676 16.6836 -1.20215z" />
    <glyph glyph-name="settings" unicode="&#xf11f;" 
d="M444.209 254.839c67.791 -24.7051 67.791 -27.582 67.7939 -34.5498v-54.2656c0 -6.95801 0 -9.57129 -67.7588 -36.3975l-2.27051 -0.90918l-9.51074 -23.0527l1.12988 -2.4502c30.3789 -65.2568 28.3594 -67.2744 23.5107 -72.2148l-38.5361 -38.4688
c-1.60254 -1.62305 -4.39746 -2.67578 -6.75 -2.67578c-5.81152 0 -28.2344 8.36914 -66.627 24.9502l-2.22168 0.923828l-23.3369 -9.63086l-0.921875 -2.45996c-24.7764 -67.6377 -27.6025 -67.6377 -34.4189 -67.6377h-54.2998c-6.64648 0 -9.39062 0 -36.1035 67.4512
l-0.911133 2.39355l-23.4355 9.67676l-2.27539 -1.08789c-56.8057 -26.2324 -63.3408 -26.2324 -65.4893 -26.2324c-2.375 0 -5.15918 1.12891 -6.76758 2.70605l-38.3789 38.3281c-4.90527 4.98145 -6.7334 6.78613 22.082 73.5283l1.02344 2.35742l-9.52832 23.084
l-2.42285 0.875c-67.7842 24.7969 -67.7842 27.6895 -67.7842 34.6602v54.2959c0 6.95117 0 9.55273 67.6494 36.2393l2.33203 0.919922l9.52637 23.1514l-1.11426 2.42188c-30.3242 65.3184 -28.2998 67.376 -23.4199 72.29l38.4727 38.3857
c1.57812 1.58789 4.34766 2.6748 6.7207 2.6748c5.84863 0 28.2842 -8.38574 66.708 -24.9219l2.22852 -0.945312l23.2988 9.69531l0.931641 2.46094c24.7549 67.5918 27.7686 67.5918 34.3877 67.5918h54.2803c6.64355 0 9.37695 0 36.0732 -67.4746l0.941406 -2.37988
l23.4219 -9.62793l2.27539 1.04297c56.7686 26.2461 63.3193 26.2461 65.4805 26.2461c2.38086 0 5.1377 -1.12012 6.70898 -2.71094l38.4385 -38.2754c4.78027 -4.83691 6.7666 -6.82715 -22.0488 -73.5371l-1.03223 -2.38086l9.51074 -23.1777zM255.999 103.941
c48.4922 0 87.9521 39.5234 87.9502 88.0488c0 48.5273 -39.458 87.999 -87.9502 87.999c-48.5107 0 -87.9775 -39.4629 -87.9775 -87.999c0 -48.5352 39.4658 -88.0488 87.9775 -88.0488z" />
    <glyph glyph-name="share" unicode="&#xf120;" 
d="M396.359 129.203c53.2559 0 96.584 -43.3408 96.582 -96.6104c0 -53.2588 -43.3281 -96.5908 -96.584 -96.5908c-53.2627 0 -96.5947 43.3301 -96.5947 96.5908c0 11.3145 1.97168 22.1729 5.56152 32.2705l-115.359 65.498
c-17.7314 -21.3418 -44.4541 -34.9561 -74.3018 -34.9561c-53.2695 0 -96.6084 43.3301 -96.6084 96.5898c0 53.2627 43.3389 96.5928 96.6084 96.5928c29.8477 0 56.5723 -13.6143 74.3047 -34.958l115.356 65.5137c-3.58984 10.0977 -5.55957 20.9541 -5.55957 32.2656
c0 53.2607 43.332 96.5908 96.5947 96.5908c53.2559 0 96.584 -43.3301 96.5791 -96.5928c0 -53.2783 -43.3271 -96.6221 -96.583 -96.6221c-29.8574 0 -56.5889 13.624 -74.3203 34.9795l-115.35 -65.5127c3.58691 -10.0947 5.55859 -20.9492 5.55859 -32.2588
c0 -11.3115 -1.97168 -22.166 -5.55859 -32.2617l115.358 -65.4961c17.7334 21.3486 44.4609 34.9678 74.3154 34.9678zM396.359 414.199c-34.625 0 -62.7939 -28.167 -62.7939 -62.79c0 -34.6406 28.1689 -62.8213 62.7939 -62.8213
c34.6191 0 62.7832 28.1807 62.7832 62.8213c0 34.623 -28.1641 62.79 -62.7832 62.79zM115.665 129.203c34.6162 0 62.7812 28.1699 62.7812 62.79c0 34.625 -28.1631 62.792 -62.7812 62.792c-34.6318 0 -62.8076 -28.167 -62.8076 -62.792
c0 -34.6201 28.1758 -62.79 62.8076 -62.79zM396.359 -30.1992c34.6191 0 62.7832 28.1689 62.7832 62.79c0 34.6338 -28.1641 62.8125 -62.7832 62.8125c-34.625 0 -62.7939 -28.1787 -62.7939 -62.8125c0 -34.6211 28.1689 -62.79 62.7939 -62.79z" />
    <glyph glyph-name="size" unicode="&#xf121;" 
d="M0 69.373l378.629 378.627l133.371 -133.373l-378.627 -378.627zM133.373 -19.543l334.167 334.17l-88.9131 88.916l-26.3047 -26.3037l22.2285 -22.2295l-22.2285 -22.2275l-22.2256 22.2275l-22.2314 -22.2295l35.5664 -35.5645l-22.2285 -22.2275l-35.5635 35.5645
l-22.2314 -22.2275l22.2266 -22.2334l-22.2285 -22.2275l-22.2285 22.2295l-22.2295 -22.2295l35.5645 -35.5664l-22.2266 -22.2266l-35.5654 35.5654l-22.2295 -22.2295l22.2275 -22.2275l-22.2275 -22.2275l-22.2275 22.2275l-22.2275 -22.2275l35.5674 -35.5645
l-22.2295 -22.2305l-35.5674 35.5664l-22.2275 -22.2285l22.2295 -22.2285l-22.2266 -22.2285l-22.2295 22.2305l-18.8955 -18.8955zM413.082 301.663c-5.32031 5.31836 -5.32031 13.9424 0 19.2637c5.31934 5.31934 13.9443 5.31934 19.2637 0
c5.31934 -5.32129 5.31934 -13.9453 0 -19.2637c-5.31738 -5.32129 -13.9414 -5.32129 -19.2637 0z" />
    <glyph glyph-name="star" unicode="&#xf122;" 
d="M280.72 431.927l57.7451 -122.353c4.0166 -8.51074 11.7812 -14.4062 20.7646 -15.7695l129.132 -19.6211c22.6201 -3.43945 31.6436 -32.498 15.2832 -49.1709l-93.4404 -95.2383c-6.49512 -6.62305 -9.46191 -16.1719 -7.92578 -25.5186l22.0547 -134.481
c3.86816 -23.5527 -19.7783 -41.5107 -40.0078 -30.3975l-115.492 63.4873c-8.0332 4.41113 -17.6338 4.41113 -25.665 0l-115.494 -63.4873c-20.2285 -11.123 -43.874 6.84473 -40.0078 30.3975l22.0547 134.481c1.53809 9.34668 -1.43164 18.8955 -7.9248 25.5186
l-93.4395 95.2383c-16.3623 16.6836 -7.33789 45.7422 15.2832 49.1709l129.132 19.6211c8.98242 1.36328 16.7471 7.25879 20.7627 15.7695l57.7471 122.353c10.1035 21.4307 39.3232 21.4307 49.4385 0z" />
    <glyph glyph-name="stop" unicode="&#xf123;" 
d="M0 345.6c0 102.4 0 102.4 102.4 102.4h307.199c102.4 0 102.4 0 102.4 -102.4v-307.199c0 -102.4 0 -102.4 -102.4 -102.4h-307.199c-102.4 0 -102.4 0 -102.4 102.4v307.199z" />
    <glyph glyph-name="success" unicode="&#xf124;" 
d="M256 448c141.392 0 256 -114.623 256 -256c0 -141.409 -114.606 -256 -256 -256c-141.377 0 -256 114.606 -256 256c0 141.377 114.623 256 256 256zM256 -16c114.88 0 208 93.1201 208 208c0 114.879 -93.1201 207.999 -208 207.999
c-114.879 0 -207.999 -93.1201 -207.999 -207.999c0 -114.88 93.1201 -208 207.999 -208zM220.102 106.668c-5.19434 0 -10.3936 1.83496 -14.3564 5.50879l-71.7969 66.5215c-7.93066 7.34766 -7.93066 19.2588 0 26.6064s20.7861 7.34766 28.7178 0l57.4355 -53.2148
l129.233 119.733c7.93066 7.3457 20.79 7.34766 28.7158 0c7.93359 -7.34766 7.93359 -19.2617 0 -26.6074l-143.59 -133.039c-3.96582 -3.6709 -9.16309 -5.50879 -14.3594 -5.50879z" />
    <glyph glyph-name="triangle" unicode="&#xf125;" 
d="M300.341 64c-19.707 -34.1338 -68.9746 -34.1338 -88.6816 0l-177.361 307.2c-19.707 34.1328 4.92676 76.7998 44.3398 76.7998h354.725c39.4131 0 64.0469 -42.667 44.3408 -76.7998z" />
    <glyph glyph-name="warning" unicode="&#xf126;" 
d="M256 448c141.392 0 256 -114.623 256 -256c0 -141.409 -114.606 -256 -256 -256c-141.377 0 -256 114.606 -256 256c0 141.377 114.623 256 256 256zM256 -16c114.88 0 208 93.1201 208 208c0 114.879 -93.1201 207.999 -208 207.999
c-114.879 0 -207.999 -93.1201 -207.999 -207.999c0 -114.88 93.1201 -208 207.999 -208zM256.016 335.729c17.8887 0 32.207 -9.93555 32.21 -25.0244v-141.76c0 -15.0732 -14.3213 -25.0088 -32.21 -25.0088c-18.3369 0 -32.208 9.53613 -32.208 25.0088v141.76
c0 15.4561 13.873 25.0244 32.208 25.0244zM256.016 112c17.6172 0 31.9355 -14.3359 31.9385 -31.9668c0 -17.5996 -14.3213 -31.9355 -31.9385 -31.9355c-17.6152 0 -31.9521 14.3359 -31.9521 31.9355c0 17.6309 14.3369 31.9668 31.9521 31.9668z" />
    <glyph glyph-name="weight" unicode="&#xf127;" 
d="M511.562 -33.8633c1.45605 -7.46777 -0.765625 -15.1426 -6.07031 -20.959c-5.30371 -5.81641 -13.1455 -9.17773 -21.4111 -9.17773h-456.161c-8.26562 0 -16.1074 3.36133 -21.4121 9.17773c-5.30664 5.81641 -7.52734 13.4912 -6.07031 20.959l59.2451 303.271
c2.38574 12.209 13.9609 21.0967 27.4824 21.0967h98.5293c-18.4736 16.6963 -29.9541 39.8896 -29.9541 65.5049c0 50.7246 44.9775 91.9902 100.26 91.9902c55.2861 0 100.26 -41.2656 100.26 -91.9902c0 -25.6152 -11.4814 -48.8086 -29.9541 -65.5049h98.5293
c13.5215 0 25.0977 -8.8877 27.4834 -21.0967zM256 396.766c-24.4922 0 -44.4199 -18.2822 -44.4199 -40.7559c0 -22.4727 19.9277 -40.7568 44.4199 -40.7568c24.4941 0 44.4209 18.2842 44.4209 40.7568c0 22.4736 -19.9268 40.7559 -44.4209 40.7559zM248.704 51.5713
c1.45605 2.45996 1.32617 5.45312 -0.336914 7.7998l-42.1963 59.5381l34.3154 32.5684c2.31934 2.20215 2.98047 5.46289 1.67773 8.28223c-1.30469 2.82031 -4.31836 4.65137 -7.6582 4.65137h-11.3037c-2.32617 0 -4.54883 -0.896484 -6.12402 -2.46777
l-49.4717 -49.4111v40.085c0 6.5127 -5.75586 11.7939 -12.8545 11.7939c-7.09961 0 -12.8545 -5.28125 -12.8545 -11.7939v-93.2432c0 -6.5127 5.75488 -11.7939 12.8545 -11.7939c7.09863 0 12.8545 5.28125 12.8545 11.7939v23.5107l20.8447 19.5254l32.5957 -51.0566
c1.49316 -2.33691 4.22559 -3.77344 7.17773 -3.77344h13.1709c3.04883 0 5.85547 1.53125 7.30859 3.99121zM375.354 67.1279v35.4619c0 4.21289 -3.72168 7.62793 -8.31445 7.62793h-36.3701c-5.9209 0 -10.7236 -4.40234 -10.7236 -9.83789
c0 -5.43457 4.7998 -9.84082 10.7236 -9.84082h18.7168v-14.8271c-3.88184 -2.75977 -8.53027 -5.10938 -13.9395 -7.0498c-5.41504 -1.94043 -10.8164 -2.9082 -16.1973 -2.9082c-10.8906 0 -19.6895 3.46582 -26.4062 10.3984
c-6.71777 6.93262 -10.0742 17.3311 -10.0742 31.1982c0 12.8564 3.31543 22.5537 9.94336 29.0898c6.62793 6.5332 15.5596 9.80176 26.7959 9.80176c7.4082 0 13.5908 -1.6582 18.5439 -4.97852c2.75 -1.8457 5.0127 -4.06543 6.78906 -6.65918
c2.77539 -4.0498 7.97266 -6.13379 13.0996 -5.25293l0.0283203 0.00488281c4.37793 0.75 8.0332 3.49219 9.7207 7.27051c1.68652 3.77832 1.16992 8.08496 -1.37207 11.4355c-2.66016 3.50781 -5.91406 6.58203 -9.7666 9.21582
c-8.88867 6.08301 -21.2354 9.12695 -37.043 9.12695c-12.1602 0 -22.3262 -1.94336 -30.4844 -5.81934c-10.7168 -5.05078 -18.8525 -12.2979 -24.4102 -21.7568c-5.55762 -9.4541 -8.33789 -20.2676 -8.33789 -32.4326c0 -11.2129 2.48828 -21.584 7.46973 -31.1201
c4.97949 -9.53809 12.4219 -16.8701 22.3213 -21.9951c9.90723 -5.12793 21.5117 -7.69043 34.8311 -7.69043c10.4785 0 20.8311 1.81738 31.0527 5.45801c8.38672 2.98535 15.1455 6.35645 20.2754 10.1123c1.97363 1.44629 3.12793 3.65039 3.12793 5.9668z" />
  </font>
</defs>
</svg>
