<svg width="180" height="180" viewBox="0 0 180 180" fill="none" xmlns="http://www.w3.org/2000/svg">
<path d="M57.7941 69.5184C53.8194 69.5184 50.5853 72.7532 50.5853 76.729C50.5853 80.7048 53.8194 83.9397 57.7941 83.9397C61.7689 83.9397 65.003 80.7048 65.003 76.729C65.003 72.7532 61.7689 69.5184 57.7941 69.5184ZM57.7941 78.3931C56.8769 78.3931 56.1305 77.6465 56.1305 76.729C56.1305 75.8116 56.8769 75.065 57.7941 75.065C58.7114 75.065 59.4577 75.8116 59.4577 76.729C59.4577 77.6465 58.7114 78.3931 57.7941 78.3931Z" fill="#DFE6E9"/>
<path d="M178.228 0.188029C176.8 -0.365474 175.194 0.344516 174.641 1.77329C173.854 3.8069 167.67 20.3839 161.102 38.9378C159.739 38.6273 158.324 38.4575 156.869 38.4575C146.371 38.4575 137.83 47.0002 137.83 57.501C137.83 65.2152 142.442 71.8681 149.051 74.8579C148.778 75.7638 148.522 76.6313 148.289 77.4404C141.033 102.634 132.602 106.24 130.191 106.745C128.113 107.183 126.274 106.458 124.728 104.597C121.706 100.957 120.171 92.8665 123.944 83.7013C129.95 69.1108 139.261 42.8764 134.139 31.1107C132.9 28.2666 130.925 26.3184 128.268 25.3218C120.45 22.389 111.66 28.4993 102.144 43.4823C97.4009 50.95 93.6912 58.6857 91.899 62.6386C80.4454 57.681 64.7656 57.5171 49.2206 62.3137C30.8348 67.9855 15.8178 79.7789 8.01977 94.6701C-1.24217 112.355 -2.56405 132.072 4.48304 147.413C10.3876 160.266 21.7469 169.216 36.4686 172.614C40.1038 173.453 43.7689 173.798 47.3418 173.798C60.1169 173.797 71.6844 169.387 76.2368 167.406C82.8103 174.865 92.5564 179.169 104.578 179.891C105.848 179.967 107.082 180 108.271 180C116.025 180 121.775 178.588 122.052 178.519C124.17 177.989 124.857 175.209 123.221 173.755C111.909 163.697 98.7123 154.838 94.5775 152.133V132.934C94.5775 131.044 92.6365 129.68 90.8573 130.328C77.0802 135.339 72.9434 146.952 71.7533 152.215L51.904 151.112L84.8607 88.372C85.5729 87.016 85.0516 85.3393 83.6959 84.6268C82.3403 83.914 80.6641 84.4359 79.9521 85.7919L70.3249 104.119C70.2391 104.132 70.1537 104.149 70.0679 104.171C67.8917 104.732 65.6365 105.016 63.3657 105.016C48.587 105.016 36.5639 92.9895 36.5639 78.2071C36.5639 77.4127 36.5938 76.6158 36.6687 75.8249C36.7397 75.0707 36.9429 74.3174 36.8842 73.5554C41.214 71.1483 45.8979 69.1425 50.8543 67.6135C64.8518 63.2945 79.3351 63.35 89.4879 67.637L84.5706 76.9988C83.8584 78.3547 84.3797 80.0314 85.7354 80.7439C87.0906 81.4563 88.7665 80.9345 89.4792 79.5789C89.4792 79.5789 100.456 56.4812 106.824 46.4559C114.516 34.3456 121.44 28.6861 126.32 30.515C127.552 30.9767 128.421 31.8699 129.054 33.3251C132.153 40.4436 128.326 58.4863 118.815 81.5893C114.771 91.4148 115.433 102.085 120.463 108.141C123.126 111.347 127.188 113.042 131.328 112.173C140.063 110.344 147.979 98.5541 153.618 78.9758C153.852 78.1641 154.11 77.2906 154.385 76.3767C155.199 76.4836 156.027 76.5441 156.869 76.5441C167.366 76.5441 175.907 68.0013 175.907 57.5006C175.907 50.4197 172.021 44.2334 166.272 40.9525C172.841 22.3883 179.028 5.80219 179.812 3.7749C180.365 2.34683 179.656 0.74083 178.228 0.188029ZM63.3654 110.563C64.6001 110.563 65.8309 110.49 67.0515 110.351L44.9888 152.352C44.5497 153.187 44.5659 154.189 45.0313 155.01C45.4968 155.831 46.3472 156.359 47.2894 156.411L73.9063 157.89C75.3843 157.97 76.6756 156.861 76.8204 155.381C76.8731 154.843 78.1345 143.281 89.0323 137.23V153.642C89.0323 154.59 89.5168 155.472 90.3162 155.982C90.459 156.073 103.135 164.173 115.058 174.061C106.186 175.047 88.995 175.022 79.2153 162.305C78.4056 161.252 76.9642 160.922 75.7777 161.515C75.5794 161.614 55.7593 171.376 37.716 167.21C24.5172 164.163 14.7677 156.517 9.52165 145.097C3.18683 131.308 4.4616 113.419 12.9315 97.2445C16.9976 89.4797 23.2551 82.6287 31.0377 77.2024C31.0275 77.5379 31.0187 77.873 31.0187 78.2081C31.0187 96.0489 45.5291 110.563 63.3654 110.563ZM156.868 70.9974C150.249 70.9974 144.732 66.2037 143.594 59.9056L164.423 68.6779C162.266 70.1419 159.665 70.9974 156.868 70.9974ZM170.263 59.1017C170.037 61.0059 169.415 62.7895 168.478 64.3677L143.84 53.9915C144.335 52.1569 145.207 50.4763 146.368 49.0381L170.263 59.1017ZM169.501 52.7624L151.431 45.1526C153.096 44.4163 154.934 44.0045 156.868 44.0045C162.642 44.0038 167.579 47.6511 169.501 52.7624Z" fill="#DFE6E9"/>
<path d="M30.9995 110.072C29.7824 109.143 28.0428 109.377 27.1136 110.594C25.5678 112.62 22.6621 113.01 20.6368 111.465C18.6114 109.919 18.2208 107.012 19.7667 104.986C20.6955 103.768 20.4617 102.028 19.2442 101.099C18.0271 100.169 16.2872 100.403 15.358 101.621C11.9574 106.078 12.8162 112.472 17.2723 115.874C19.1103 117.277 21.277 117.955 23.4278 117.955C26.4917 117.955 29.5232 116.578 31.5212 113.959C32.4504 112.742 32.2169 111.002 30.9995 110.072Z" fill="#DFE6E9"/>
<path d="M51.7023 123.383C50.4852 122.454 48.7453 122.688 47.8161 123.906C46.2699 125.931 43.3649 126.321 41.3392 124.776C39.3139 123.23 38.9233 120.323 40.4691 118.297C41.3983 117.079 41.1642 115.339 39.9467 114.41C38.7296 113.48 36.9897 113.714 36.0605 114.932C32.6602 119.39 33.5187 125.783 37.9751 129.185C39.8131 130.588 41.9798 131.266 44.1306 131.266C47.1949 131.266 50.2261 129.889 52.224 127.27C53.1532 126.053 52.9194 124.313 51.7023 123.383Z" fill="#DFE6E9"/>
<path d="M33.9941 132.308C32.777 131.378 31.0371 131.612 30.1079 132.83C29.3594 133.812 28.2731 134.443 27.05 134.607C25.8262 134.77 24.6123 134.45 23.6311 133.701C21.6057 132.155 21.2151 129.249 22.7613 127.222C23.6901 126.004 23.4563 124.264 22.2389 123.335C21.0217 122.405 19.2815 122.639 18.3527 123.857C14.952 128.315 15.8109 134.708 20.2669 138.11C22.1049 139.513 24.2716 140.191 26.4228 140.191C29.4867 140.191 32.5182 138.814 34.5162 136.195C35.4457 134.977 35.2116 133.237 33.9941 132.308Z" fill="#DFE6E9"/>
<path d="M95.9975 2.03668C88.3739 -0.556764 80.0636 3.5393 77.4726 11.1656C75.2068 17.8337 80.0278 35.5476 81.0174 39.0303C81.2663 39.9063 81.9297 40.6047 82.7921 40.8976C83.6461 41.1891 84.6129 41.0362 85.3371 40.4985C88.2438 38.3397 102.858 27.2341 105.123 20.5657C107.715 12.9408 103.621 4.62802 95.9975 2.03668ZM99.8735 18.781L99.8732 18.7814C98.7601 22.0581 91.3203 28.7462 85.2952 33.5333C83.3711 25.7909 81.6583 16.0828 82.7225 12.9506C83.8623 9.59619 86.9536 7.16872 90.479 6.8438C91.7373 6.72775 93.0159 6.88142 94.2123 7.28829C98.9412 8.8957 101.481 14.0516 99.8735 18.781Z" fill="#DFE6E9"/>
<path d="M146.238 127.753C139.54 125.582 121.901 130.653 118.433 131.692C116.608 132.239 115.866 134.517 117.026 136.033C119.225 138.91 130.533 153.37 137.23 155.542C137.23 155.542 137.23 155.542 137.231 155.542C138.722 156.026 140.234 156.255 141.723 156.255C147.883 156.255 153.624 152.322 155.625 146.152C158.108 138.491 153.897 130.238 146.238 127.753ZM150.35 144.442C148.809 149.194 143.692 151.806 138.941 150.266H138.941C135.65 149.198 128.86 141.852 123.989 135.893C131.701 133.86 141.381 132.008 144.528 133.03C149.278 134.571 151.89 139.69 150.35 144.442Z" fill="#DFE6E9"/>
<path d="M39.5424 52.6305C38.977 49.0538 35.9118 30.9532 31.0546 25.8545C25.5006 20.0241 16.239 19.8012 10.4097 25.3559C4.58042 30.9113 4.35682 40.1749 9.91153 46.0061C14.7684 51.105 32.695 55.0415 36.2391 55.7789C38.1062 56.1664 39.8394 54.5143 39.5424 52.6305ZM13.9257 42.1797C10.4807 38.563 10.6192 32.8173 14.2347 29.3714C15.9851 27.7028 18.2344 26.875 20.4809 26.875C22.874 26.875 25.2633 27.815 27.0401 29.6805C29.4272 32.1861 31.9036 41.8805 33.352 49.4396C25.8739 47.6286 16.3128 44.6856 13.9257 42.1797Z" fill="#DFE6E9"/>
</svg>
